{"glyphs":{"0":{"ha":749,"x_min":57,"x_max":719,"o":"m 454 957 q 225 860 314 957 q 97 616 136 763 q 57 315 57 469 q 124 63 57 149 q 322 -24 192 -24 q 550 74 461 -24 q 679 319 639 172 q 719 618 719 465 q 651 870 719 783 q 454 957 583 957 m 443 801 q 499 772 481 801 q 518 671 518 742 q 497 431 518 557 q 434 219 476 306 q 332 132 392 132 q 277 163 296 132 q 258 264 258 193 q 279 501 258 375 q 342 714 300 626 q 443 801 383 801 z "},"1":{"ha":583,"x_min":60,"x_max":556,"o":"m 556 938 l 424 0 l 224 0 l 324 719 l 131 600 l 60 747 l 371 938 l 556 938 z "},"2":{"ha":642,"x_min":-19,"x_max":633,"o":"m 367 957 q 563 890 493 957 q 633 718 633 822 q 597 566 633 642 q 474 395 561 490 q 228 160 386 300 l 574 161 l 528 0 l -19 0 l 0 151 q 262 416 178 325 q 383 572 346 507 q 421 701 421 638 q 397 772 421 747 q 332 796 374 796 q 253 774 290 796 q 168 701 215 751 l 58 803 q 199 918 124 879 q 367 957 274 957 z "},"3":{"ha":646,"x_min":-51,"x_max":625,"o":"m 367 957 q 557 894 489 957 q 625 736 625 832 q 571 585 625 647 q 407 494 517 522 q 538 438 490 485 q 586 308 586 392 q 544 149 586 225 q 419 24 501 72 q 224 -24 338 -24 q -51 119 43 -24 l 74 221 q 142 156 107 176 q 224 136 178 136 q 333 185 290 136 q 376 318 376 235 q 347 394 376 371 q 260 417 318 417 l 189 417 l 233 563 l 278 563 q 383 605 346 563 q 421 711 421 647 q 397 778 421 756 q 331 801 374 801 q 157 721 246 801 l 68 835 q 210 927 136 897 q 367 957 283 957 z "},"4":{"ha":706,"x_min":8,"x_max":681,"o":"m 681 363 l 658 206 l 567 206 l 538 0 l 339 0 l 368 206 l 8 206 l 28 346 l 347 961 l 515 896 l 249 363 l 392 363 l 446 589 l 621 589 l 589 363 l 681 363 z "},"5":{"ha":669,"x_min":-21,"x_max":671,"o":"m 628 788 l 325 788 l 296 581 q 424 614 358 614 q 571 550 515 614 q 626 369 626 486 q 583 181 626 271 q 454 33 540 90 q 246 -24 368 -24 q 88 13 151 -24 q -21 117 24 50 l 104 219 q 169 156 135 178 q 251 135 204 135 q 375 202 333 135 q 417 361 417 269 q 329 468 417 468 q 276 460 301 468 q 221 435 251 453 l 81 435 l 151 938 l 671 938 l 628 788 z "},"6":{"ha":714,"x_min":51,"x_max":692,"o":"m 478 629 q 626 566 571 629 q 681 388 681 503 q 641 192 681 286 q 522 37 601 97 q 328 -24 442 -24 q 119 60 188 -24 q 51 296 51 143 q 106 615 51 463 q 265 862 161 767 q 506 957 368 957 q 692 894 613 957 l 603 774 q 499 807 554 807 q 374 738 429 807 q 290 542 319 669 q 478 629 372 629 m 336 128 q 417 171 385 128 q 463 274 449 214 q 476 390 476 335 q 458 463 476 442 q 407 485 440 485 q 338 463 374 485 q 269 400 303 440 q 257 258 257 308 q 276 158 257 189 q 336 128 294 128 z "},"7":{"ha":579,"x_min":29,"x_max":640,"o":"m 640 938 l 621 794 l 207 -22 l 29 42 l 407 779 l 72 779 l 94 938 l 640 938 z "},"8":{"ha":725,"x_min":17,"x_max":713,"o":"m 539 500 q 676 290 676 422 q 630 127 676 199 q 500 16 583 56 q 310 -24 417 -24 q 151 8 217 -24 q 51 97 85 40 q 17 222 17 153 q 215 488 17 399 q 117 671 117 557 q 156 817 117 751 q 269 919 196 882 q 440 957 343 957 q 638 899 563 957 q 713 742 713 842 q 672 608 713 668 q 539 500 631 549 m 429 815 q 340 774 368 815 q 313 675 313 732 q 331 610 313 635 q 394 564 350 586 l 415 556 q 492 637 471 594 q 514 729 514 679 q 429 815 514 815 m 326 128 q 433 173 394 128 q 472 289 472 218 q 448 359 472 332 q 364 414 424 386 l 333 428 q 221 233 221 358 q 249 155 221 182 q 326 128 276 128 z "},"9":{"ha":704,"x_min":47,"x_max":701,"o":"m 421 957 q 629 879 557 957 q 701 667 701 801 q 556 222 701 411 q 75 -39 411 32 l 47 107 q 313 222 218 153 q 454 414 408 290 q 369 349 413 371 q 272 326 325 326 q 123 394 181 326 q 65 575 65 461 q 106 761 65 674 q 227 903 147 849 q 421 957 307 957 m 347 474 q 483 564 419 474 q 492 689 492 629 q 472 781 492 753 q 410 808 451 808 q 305 737 339 808 q 271 581 271 665 q 347 474 271 474 z "},"\r":{"ha":278,"x_min":0,"x_max":0,"o":""}," ":{"ha":278,"x_min":0,"x_max":0,"o":""},"A":{"ha":740,"x_min":-67,"x_max":703,"o":"m 481 0 l 467 211 l 226 211 l 156 0 l -67 0 l 324 963 l 582 963 l 703 0 l 481 0 m 279 369 l 457 369 l 428 814 l 279 369 z "},"Á":{"ha":740,"x_min":-67,"x_max":703,"o":"m 481 0 l 467 211 l 226 211 l 156 0 l -67 0 l 324 963 l 582 963 l 703 0 l 481 0 m 279 369 l 457 369 l 428 814 l 279 369 m 603 1308 l 671 1154 l 360 1039 l 313 1139 l 603 1308 z "},"Ă":{"ha":740,"x_min":-67,"x_max":708,"o":"m 481 0 l 467 211 l 226 211 l 156 0 l -67 0 l 324 963 l 582 963 l 703 0 l 481 0 m 279 369 l 457 369 l 428 814 l 279 369 m 467 1043 q 321 1108 369 1043 q 279 1265 272 1172 l 389 1282 q 415 1215 393 1240 q 476 1190 436 1190 q 549 1217 518 1190 q 596 1286 579 1243 l 708 1260 q 626 1104 689 1165 q 467 1043 563 1043 z "},"Ắ":{"ha":740,"x_min":-67,"x_max":721,"o":"m 721 1440 l 493 1243 l 421 1311 l 619 1549 l 721 1440 m 476 1171 q 549 1197 518 1171 q 596 1267 579 1224 l 708 1240 q 626 1085 689 1146 q 467 1024 563 1024 q 321 1088 369 1024 q 279 1246 272 1153 l 389 1263 q 415 1196 393 1221 q 476 1171 436 1171 m 324 963 l 582 963 l 703 0 l 481 0 l 467 211 l 226 211 l 156 0 l -67 0 l 324 963 m 279 369 l 457 369 l 428 814 l 279 369 z "},"Ặ":{"ha":740,"x_min":-67,"x_max":708,"o":"m 481 0 l 467 211 l 226 211 l 156 0 l -67 0 l 324 963 l 582 963 l 703 0 l 481 0 m 279 369 l 457 369 l 428 814 l 279 369 m 467 1043 q 321 1108 369 1043 q 279 1265 272 1172 l 389 1282 q 415 1215 393 1240 q 476 1190 436 1190 q 549 1217 518 1190 q 596 1286 579 1243 l 708 1260 q 626 1104 689 1165 q 467 1043 563 1043 m 300 -86 q 380 -115 350 -86 q 410 -192 410 -144 q 371 -288 410 -250 q 274 -326 332 -326 q 194 -297 224 -326 q 165 -221 165 -268 q 204 -124 165 -162 q 300 -86 243 -86 z "},"Ằ":{"ha":740,"x_min":-67,"x_max":708,"o":"m 563 1304 l 478 1243 l 304 1449 l 429 1544 l 563 1304 m 467 1024 q 321 1088 369 1024 q 279 1246 272 1153 l 389 1263 q 415 1196 393 1221 q 476 1171 436 1171 q 549 1197 518 1171 q 596 1267 579 1224 l 708 1240 q 626 1085 689 1146 q 467 1024 563 1024 m 324 963 l 582 963 l 703 0 l 481 0 l 467 211 l 226 211 l 156 0 l -67 0 l 324 963 m 279 369 l 457 369 l 428 814 l 279 369 z "},"Ẳ":{"ha":740,"x_min":-67,"x_max":711,"o":"m 481 0 l 467 211 l 226 211 l 156 0 l -67 0 l 324 963 l 582 963 l 703 0 l 481 0 m 279 369 l 457 369 l 428 814 l 279 369 m 469 1024 q 324 1088 372 1024 q 282 1246 275 1153 l 392 1263 q 417 1196 396 1221 q 479 1171 439 1171 q 551 1197 521 1171 q 599 1267 582 1224 l 711 1240 q 628 1085 692 1146 q 469 1024 565 1024 m 444 1372 q 517 1389 493 1375 q 542 1433 542 1403 q 499 1469 542 1469 q 425 1450 464 1469 l 401 1542 q 535 1575 458 1575 q 643 1540 604 1575 q 682 1446 682 1504 q 557 1308 682 1333 l 550 1249 l 431 1249 l 444 1372 z "},"Ẵ":{"ha":740,"x_min":-67,"x_max":751,"o":"m 438 1364 q 401 1350 417 1364 q 363 1306 385 1336 l 271 1357 q 351 1465 306 1424 q 447 1506 397 1506 q 494 1496 475 1506 q 538 1469 514 1486 q 564 1451 553 1457 q 586 1446 575 1446 q 622 1459 606 1446 q 658 1503 638 1472 l 751 1453 q 669 1346 715 1386 q 575 1306 624 1306 q 531 1315 551 1306 q 488 1340 511 1324 q 462 1357 475 1350 q 438 1364 449 1364 m 475 1171 q 547 1197 517 1171 q 594 1267 578 1224 l 707 1240 q 624 1085 688 1146 q 465 1024 561 1024 q 319 1088 368 1024 q 278 1246 271 1153 l 388 1263 q 413 1196 392 1221 q 475 1171 435 1171 m 324 963 l 582 963 l 703 0 l 481 0 l 467 211 l 226 211 l 156 0 l -67 0 l 324 963 m 279 369 l 457 369 l 428 814 l 279 369 z "},"Ǎ":{"ha":740,"x_min":-67,"x_max":729,"o":"m 481 0 l 467 211 l 226 211 l 156 0 l -67 0 l 324 963 l 582 963 l 703 0 l 481 0 m 279 369 l 457 369 l 428 814 l 279 369 m 658 1304 l 729 1219 l 528 1042 l 403 1042 l 247 1225 l 331 1304 l 479 1188 l 658 1304 z "},"Â":{"ha":740,"x_min":-67,"x_max":710,"o":"m 481 0 l 467 211 l 226 211 l 156 0 l -67 0 l 324 963 l 582 963 l 703 0 l 481 0 m 279 369 l 457 369 l 428 814 l 279 369 m 300 1050 l 229 1135 l 431 1313 l 556 1313 l 710 1129 l 629 1050 l 479 1168 l 300 1050 z "},"Ấ":{"ha":740,"x_min":-67,"x_max":904,"o":"m 904 1400 l 676 1203 l 604 1271 l 803 1508 l 904 1400 m 425 1265 l 550 1265 l 704 1082 l 624 1003 l 474 1121 l 294 1003 l 224 1088 l 425 1265 m 324 963 l 582 963 l 703 0 l 481 0 l 467 211 l 226 211 l 156 0 l -67 0 l 324 963 m 279 369 l 457 369 l 428 814 l 279 369 z "},"Ậ":{"ha":740,"x_min":-67,"x_max":710,"o":"m 481 0 l 467 211 l 226 211 l 156 0 l -67 0 l 324 963 l 582 963 l 703 0 l 481 0 m 279 369 l 457 369 l 428 814 l 279 369 m 300 1050 l 229 1135 l 431 1313 l 556 1313 l 710 1129 l 629 1050 l 479 1168 l 300 1050 m 300 -86 q 380 -115 350 -86 q 410 -192 410 -144 q 371 -288 410 -250 q 274 -326 332 -326 q 194 -297 224 -326 q 165 -221 165 -268 q 204 -124 165 -162 q 300 -86 243 -86 z "},"Ầ":{"ha":740,"x_min":-67,"x_max":704,"o":"m 365 1264 l 281 1203 l 107 1408 l 232 1504 l 365 1264 m 294 1003 l 224 1088 l 425 1265 l 550 1265 l 704 1082 l 624 1003 l 474 1121 l 294 1003 m 324 963 l 582 963 l 703 0 l 481 0 l 467 211 l 226 211 l 156 0 l -67 0 l 324 963 m 279 369 l 457 369 l 428 814 l 279 369 z "},"Ẩ":{"ha":740,"x_min":-67,"x_max":881,"o":"m 481 0 l 467 211 l 226 211 l 156 0 l -67 0 l 324 963 l 582 963 l 703 0 l 481 0 m 279 369 l 457 369 l 428 814 l 279 369 m 292 1003 l 221 1088 l 422 1265 l 547 1265 l 701 1082 l 621 1003 l 471 1121 l 292 1003 m 643 1308 q 716 1325 692 1311 q 740 1369 740 1339 q 697 1406 740 1406 q 624 1386 663 1406 l 600 1478 q 733 1511 657 1511 q 842 1476 803 1511 q 881 1382 881 1440 q 756 1244 881 1269 l 749 1185 l 629 1185 l 643 1308 z "},"Ẫ":{"ha":740,"x_min":-67,"x_max":751,"o":"m 438 1361 q 401 1347 417 1361 q 363 1303 385 1333 l 271 1354 q 351 1462 306 1421 q 447 1503 397 1503 q 494 1493 475 1503 q 538 1467 514 1483 q 564 1449 553 1454 q 586 1443 575 1443 q 622 1456 606 1443 q 658 1500 638 1469 l 751 1450 q 669 1343 715 1383 q 575 1303 624 1303 q 531 1312 551 1303 q 488 1338 511 1321 q 462 1354 475 1347 q 438 1361 449 1361 m 424 1265 l 549 1265 l 703 1082 l 622 1003 l 472 1121 l 293 1003 l 222 1088 l 424 1265 m 324 963 l 582 963 l 703 0 l 481 0 l 467 211 l 226 211 l 156 0 l -67 0 l 324 963 m 279 369 l 457 369 l 428 814 l 279 369 z "},"Ȁ":{"ha":740,"x_min":-67,"x_max":703,"o":"m 481 0 l 467 211 l 226 211 l 156 0 l -67 0 l 324 963 l 582 963 l 703 0 l 481 0 m 279 369 l 457 369 l 428 814 l 279 369 m 344 1365 l 431 1093 l 315 1044 l 193 1299 l 344 1365 m 564 1365 l 639 1093 l 525 1051 l 413 1303 l 564 1365 z "},"Ä":{"ha":740,"x_min":-67,"x_max":733,"o":"m 481 0 l 467 211 l 226 211 l 156 0 l -67 0 l 324 963 l 582 963 l 703 0 l 481 0 m 279 369 l 457 369 l 428 814 l 279 369 m 324 1068 q 253 1094 279 1068 q 228 1160 228 1119 q 262 1245 228 1211 q 346 1279 296 1279 q 416 1253 390 1279 q 442 1188 442 1228 q 408 1102 442 1136 q 324 1068 374 1068 m 615 1068 q 546 1094 572 1068 q 519 1160 519 1119 q 553 1245 519 1211 q 638 1279 588 1279 q 707 1253 681 1279 q 733 1188 733 1228 q 699 1102 733 1136 q 615 1068 665 1068 z "},"Ǟ":{"ha":740,"x_min":-67,"x_max":726,"o":"m 481 0 l 467 211 l 226 211 l 156 0 l -67 0 l 324 963 l 582 963 l 703 0 l 481 0 m 279 369 l 457 369 l 428 814 l 279 369 m 317 1036 q 247 1062 272 1036 q 221 1128 221 1088 q 255 1213 221 1179 q 339 1247 289 1247 q 409 1222 383 1247 q 435 1156 435 1196 q 401 1070 435 1104 q 317 1036 367 1036 m 608 1036 q 539 1062 565 1036 q 513 1128 513 1088 q 547 1213 513 1179 q 631 1247 581 1247 q 700 1222 674 1247 q 726 1156 726 1196 q 692 1070 726 1104 q 608 1036 658 1036 m 681 1303 l 300 1303 l 322 1450 l 703 1450 l 681 1303 z "},"Ȧ":{"ha":740,"x_min":-67,"x_max":703,"o":"m 481 0 l 467 211 l 226 211 l 156 0 l -67 0 l 324 963 l 582 963 l 703 0 l 481 0 m 279 369 l 457 369 l 428 814 l 279 369 m 475 1056 q 395 1085 425 1056 q 365 1161 365 1114 q 404 1258 365 1219 q 501 1296 443 1296 q 581 1267 551 1296 q 610 1190 610 1238 q 571 1094 610 1132 q 475 1056 532 1056 z "},"Ạ":{"ha":740,"x_min":-67,"x_max":703,"o":"m 481 0 l 467 211 l 226 211 l 156 0 l -67 0 l 324 963 l 582 963 l 703 0 l 481 0 m 279 369 l 457 369 l 428 814 l 279 369 m 300 -86 q 380 -115 350 -86 q 410 -192 410 -144 q 371 -288 410 -250 q 274 -326 332 -326 q 194 -297 224 -326 q 165 -221 165 -268 q 204 -124 165 -162 q 300 -86 243 -86 z "},"Ǡ":{"ha":740,"x_min":-67,"x_max":710,"o":"m 481 0 l 467 211 l 226 211 l 156 0 l -67 0 l 324 963 l 582 963 l 703 0 l 481 0 m 279 369 l 457 369 l 428 814 l 279 369 m 463 1024 q 383 1053 413 1024 q 353 1129 353 1082 q 392 1226 353 1188 q 489 1264 431 1264 q 568 1235 539 1264 q 597 1158 597 1206 q 558 1062 597 1100 q 463 1024 519 1024 m 688 1304 l 307 1304 l 329 1451 l 710 1451 l 688 1304 z "},"À":{"ha":740,"x_min":-67,"x_max":703,"o":"m 481 0 l 467 211 l 226 211 l 156 0 l -67 0 l 324 963 l 582 963 l 703 0 l 481 0 m 279 369 l 457 369 l 428 814 l 279 369 m 410 1306 l 663 1136 l 604 1040 l 321 1153 l 410 1306 z "},"Ả":{"ha":740,"x_min":-67,"x_max":703,"o":"m 481 0 l 467 211 l 226 211 l 156 0 l -67 0 l 324 963 l 582 963 l 703 0 l 481 0 m 279 369 l 457 369 l 428 814 l 279 369 m 422 1185 q 495 1201 471 1188 q 519 1246 519 1215 q 476 1282 519 1282 q 403 1263 442 1282 l 379 1354 q 513 1388 436 1388 q 621 1352 582 1388 q 660 1258 660 1317 q 535 1121 660 1146 l 528 1061 l 408 1061 l 422 1185 z "},"Ȃ":{"ha":740,"x_min":-67,"x_max":703,"o":"m 481 0 l 467 211 l 226 211 l 156 0 l -67 0 l 324 963 l 582 963 l 703 0 l 481 0 m 279 369 l 457 369 l 428 814 l 279 369 m 253 1086 q 341 1253 276 1189 q 501 1317 406 1317 q 647 1250 599 1317 q 690 1081 696 1183 l 575 1065 q 488 1171 567 1171 q 364 1060 403 1171 l 253 1086 z "},"Ɑ":{"ha":857,"x_min":50,"x_max":857,"o":"m 750 203 q 747 172 747 178 q 755 139 747 151 q 781 118 763 126 l 719 -19 q 556 86 599 -11 q 460 6 511 33 q 340 -22 408 -22 q 127 74 204 -22 q 50 342 50 169 q 103 662 50 514 q 251 898 156 810 q 469 986 347 986 q 574 960 531 986 q 649 888 617 935 l 675 963 l 857 963 l 750 203 m 396 133 q 536 207 474 133 l 613 756 q 563 808 589 790 q 499 825 536 825 q 374 755 426 825 q 296 573 322 685 q 269 338 269 461 q 302 181 269 229 q 396 133 335 133 z "},"Ā":{"ha":740,"x_min":-67,"x_max":703,"o":"m 481 0 l 467 211 l 226 211 l 156 0 l -67 0 l 324 963 l 582 963 l 703 0 l 481 0 m 279 369 l 457 369 l 428 814 l 279 369 m 658 1086 l 278 1086 l 300 1233 l 681 1233 l 658 1086 z "},"Ą":{"ha":740,"x_min":-67,"x_max":703,"o":"m 604 0 q 436 -160 436 -69 q 493 -207 436 -207 q 568 -199 526 -207 l 539 -328 q 451 -337 501 -337 q 331 -298 378 -337 q 285 -192 285 -258 q 478 33 285 -50 l 467 211 l 226 211 l 156 0 l -67 0 l 324 963 l 582 963 l 703 0 l 604 0 m 279 369 l 457 369 l 428 814 l 279 369 z "},"Å":{"ha":740,"x_min":-67,"x_max":703,"o":"m 481 0 l 467 211 l 226 211 l 156 0 l -67 0 l 324 963 l 582 963 l 703 0 l 481 0 m 279 369 l 457 369 l 428 814 l 279 369 m 508 1374 q 624 1329 582 1374 q 665 1215 665 1285 q 640 1117 665 1161 q 570 1046 615 1072 q 467 1019 525 1019 q 353 1063 394 1019 q 311 1176 311 1107 q 336 1274 311 1229 q 406 1347 361 1319 q 508 1374 451 1374 m 499 1268 q 448 1242 467 1268 q 429 1182 429 1217 q 442 1138 429 1153 q 476 1124 454 1124 q 527 1149 508 1124 q 546 1210 546 1175 q 499 1268 546 1268 z "},"Ǻ":{"ha":740,"x_min":-67,"x_max":703,"o":"m 481 0 l 467 211 l 226 211 l 156 0 l -67 0 l 324 963 l 582 963 l 703 0 l 481 0 m 279 369 l 457 369 l 428 814 l 279 369 m 500 1365 q 615 1321 574 1365 q 657 1207 657 1276 q 632 1108 657 1153 q 562 1038 607 1064 q 458 1011 517 1011 q 344 1055 386 1011 q 303 1168 303 1099 q 328 1266 303 1221 q 398 1338 353 1311 q 500 1365 443 1365 m 490 1260 q 440 1234 458 1260 q 421 1174 421 1208 q 433 1130 421 1144 q 468 1115 446 1115 q 519 1141 500 1115 q 538 1201 538 1167 q 490 1260 538 1260 m 611 1638 l 679 1483 l 368 1368 l 321 1468 l 611 1638 z "},"Ⱥ":{"ha":740,"x_min":-67,"x_max":703,"o":"m 506 0 l 486 211 l 347 211 l 229 -103 l 158 -85 l 269 211 l 211 211 l 138 0 l -67 0 l 324 963 l 554 963 l 586 1049 l 657 1031 l 594 864 l 703 0 l 506 0 m 264 360 l 326 360 l 444 675 l 431 833 l 264 360 m 404 360 l 474 360 l 460 508 l 404 360 z "},"Ã":{"ha":740,"x_min":-67,"x_max":726,"o":"m 481 0 l 467 211 l 226 211 l 156 0 l -67 0 l 324 963 l 582 963 l 703 0 l 481 0 m 279 369 l 457 369 l 428 814 l 279 369 m 549 1060 q 505 1069 524 1060 q 460 1097 486 1079 q 433 1115 447 1107 q 408 1122 419 1122 q 372 1108 388 1122 q 333 1060 356 1093 l 240 1115 q 322 1228 275 1185 q 419 1272 368 1272 q 466 1263 447 1272 q 510 1235 485 1253 q 560 1210 540 1210 q 594 1224 578 1210 q 632 1269 611 1238 l 726 1217 q 644 1103 690 1146 q 549 1060 597 1060 z "},"Æ":{"ha":1051,"x_min":-74,"x_max":1053,"o":"m 1007 806 l 681 806 l 689 564 l 986 564 l 964 410 l 694 410 l 703 158 l 986 158 l 963 0 l 508 0 l 506 211 l 244 211 l 156 0 l -74 0 l 385 963 l 1053 963 l 1007 806 m 313 369 l 503 369 l 496 803 l 313 369 z "},"Ǽ":{"ha":1051,"x_min":-74,"x_max":1053,"o":"m 1007 806 l 681 806 l 689 564 l 986 564 l 964 410 l 694 410 l 703 158 l 986 158 l 963 0 l 508 0 l 506 211 l 244 211 l 156 0 l -74 0 l 385 963 l 1053 963 l 1007 806 m 313 369 l 503 369 l 496 803 l 313 369 m 833 1308 l 901 1154 l 590 1039 l 543 1139 l 833 1308 z "},"Ǣ":{"ha":1051,"x_min":-74,"x_max":1053,"o":"m 1007 806 l 681 806 l 689 564 l 986 564 l 964 410 l 694 410 l 703 158 l 986 158 l 963 0 l 508 0 l 506 211 l 244 211 l 156 0 l -74 0 l 385 963 l 1053 963 l 1007 806 m 313 369 l 503 369 l 496 803 l 313 369 m 889 1086 l 508 1086 l 531 1233 l 911 1233 l 889 1086 z "},"B":{"ha":768,"x_min":26,"x_max":756,"o":"m 550 508 q 728 314 728 472 q 623 84 728 168 q 308 0 518 0 l 26 0 l 161 963 l 425 963 q 668 908 581 963 q 756 746 756 854 q 698 590 756 650 q 550 508 640 531 m 389 575 q 501 615 464 575 q 538 724 538 654 q 510 788 538 768 q 426 808 482 808 l 353 808 l 319 575 l 389 575 m 329 158 q 510 326 510 158 q 478 405 510 381 q 383 429 446 429 l 300 429 l 261 158 l 329 158 z "},"Ḃ":{"ha":768,"x_min":26,"x_max":756,"o":"m 550 508 q 728 314 728 472 q 623 84 728 168 q 308 0 518 0 l 26 0 l 161 963 l 425 963 q 668 908 581 963 q 756 746 756 854 q 698 590 756 650 q 550 508 640 531 m 389 575 q 501 615 464 575 q 538 724 538 654 q 510 788 538 768 q 426 808 482 808 l 353 808 l 319 575 l 389 575 m 329 158 q 510 326 510 158 q 478 405 510 381 q 383 429 446 429 l 300 429 l 261 158 l 329 158 m 463 1056 q 383 1085 413 1056 q 353 1161 353 1114 q 392 1258 353 1219 q 489 1296 431 1296 q 568 1267 539 1296 q 597 1190 597 1238 q 558 1094 597 1132 q 463 1056 519 1056 z "},"Ḅ":{"ha":768,"x_min":26,"x_max":756,"o":"m 550 508 q 728 314 728 472 q 623 84 728 168 q 308 0 518 0 l 26 0 l 161 963 l 425 963 q 668 908 581 963 q 756 746 756 854 q 698 590 756 650 q 550 508 640 531 m 389 575 q 501 615 464 575 q 538 724 538 654 q 510 788 538 768 q 426 808 482 808 l 353 808 l 319 575 l 389 575 m 329 158 q 510 326 510 158 q 478 405 510 381 q 383 429 446 429 l 300 429 l 261 158 l 329 158 m 315 -86 q 395 -115 365 -86 q 425 -192 425 -144 q 386 -288 425 -250 q 289 -326 347 -326 q 210 -297 239 -326 q 181 -221 181 -268 q 219 -124 181 -162 q 315 -86 258 -86 z "},"Ꞵ":{"ha":767,"x_min":-15,"x_max":749,"o":"m 550 508 q 679 448 631 493 q 728 318 728 403 q 680 147 728 219 q 550 38 632 75 q 368 0 468 0 q 242 15 303 0 l 199 -292 l -15 -292 l 161 963 l 418 963 q 661 908 574 963 q 749 743 749 853 q 692 588 749 647 q 550 508 635 529 m 354 429 l 388 575 l 403 575 q 495 613 461 575 q 529 721 529 650 q 502 788 529 767 q 422 808 475 808 l 353 808 l 263 168 q 350 158 303 158 q 467 204 425 158 q 510 326 510 250 q 393 429 510 429 l 354 429 z "},"Ɓ":{"ha":954,"x_min":60,"x_max":942,"o":"m 736 508 q 914 314 914 472 q 809 84 914 168 q 494 0 704 0 l 213 0 l 325 806 l 290 806 q 241 785 258 806 q 224 725 224 764 q 235 650 224 700 l 92 596 q 68 663 76 632 q 60 732 60 694 q 127 900 60 838 q 307 963 194 963 l 611 963 q 854 908 767 963 q 942 746 942 854 q 884 590 942 650 q 736 508 826 531 m 575 575 q 687 615 650 575 q 724 724 724 654 q 696 788 724 768 q 613 808 668 808 l 539 808 l 506 575 l 575 575 m 515 158 q 696 326 696 158 q 664 405 696 381 q 569 429 632 429 l 486 429 l 447 158 l 515 158 z "},"Ƀ":{"ha":779,"x_min":-3,"x_max":768,"o":"m 563 508 q 740 314 740 472 q 635 84 740 168 q 321 0 531 0 l 39 0 l 72 243 l -3 243 l 13 351 l 88 351 l 174 963 l 438 963 q 681 908 593 963 q 768 746 768 854 q 710 590 768 650 q 563 508 653 531 m 401 575 q 513 615 476 575 q 550 724 550 654 q 522 788 550 768 q 439 808 494 808 l 365 808 l 332 575 l 401 575 m 342 158 q 522 326 522 158 q 490 405 522 381 q 396 429 458 429 l 313 429 l 301 351 l 436 351 l 421 243 l 286 243 l 274 158 l 342 158 z "},"Ƃ":{"ha":743,"x_min":26,"x_max":719,"o":"m 404 618 q 636 551 553 618 q 719 358 719 485 q 681 186 719 268 q 555 52 642 104 q 332 0 468 0 l 26 0 l 161 963 l 704 963 l 657 797 l 351 797 l 326 618 l 404 618 m 332 158 q 456 213 417 158 q 494 350 494 268 q 465 437 494 408 q 376 465 436 465 l 306 465 l 263 158 l 332 158 z "},"C":{"ha":718,"x_min":51,"x_max":774,"o":"m 518 986 q 774 875 676 986 l 661 764 q 518 824 593 824 q 376 749 432 824 q 297 566 321 675 q 272 349 272 457 q 414 146 272 146 q 499 165 460 146 q 590 222 538 183 l 671 97 q 376 -24 539 -24 q 140 74 228 -24 q 51 357 51 172 q 101 660 51 515 q 257 895 151 804 q 518 986 363 986 z "},"Ć":{"ha":718,"x_min":51,"x_max":774,"o":"m 518 986 q 774 875 676 986 l 661 764 q 518 824 593 824 q 376 749 432 824 q 297 566 321 675 q 272 349 272 457 q 414 146 272 146 q 499 165 460 146 q 590 222 538 183 l 671 97 q 376 -24 539 -24 q 140 74 228 -24 q 51 357 51 172 q 101 660 51 515 q 257 895 151 804 q 518 986 363 986 m 672 1308 l 740 1154 l 429 1039 l 382 1139 l 672 1308 z "},"Č":{"ha":718,"x_min":51,"x_max":799,"o":"m 518 986 q 774 875 676 986 l 661 764 q 518 824 593 824 q 376 749 432 824 q 297 566 321 675 q 272 349 272 457 q 414 146 272 146 q 499 165 460 146 q 590 222 538 183 l 671 97 q 376 -24 539 -24 q 140 74 228 -24 q 51 357 51 172 q 101 660 51 515 q 257 895 151 804 q 518 986 363 986 m 728 1304 l 799 1219 l 597 1042 l 472 1042 l 317 1225 l 400 1304 l 549 1188 l 728 1304 z "},"Ç":{"ha":718,"x_min":51,"x_max":774,"o":"m 671 97 q 425 -21 561 -4 l 418 -71 q 503 -109 474 -78 q 532 -190 532 -140 q 511 -270 532 -231 q 444 -335 490 -310 q 325 -361 397 -361 q 186 -317 242 -361 l 244 -225 q 281 -241 264 -236 q 321 -246 299 -246 q 366 -233 349 -246 q 385 -197 383 -221 q 360 -164 385 -174 q 276 -154 336 -154 l 310 -18 q 121 99 190 3 q 51 357 51 196 q 101 660 51 515 q 257 895 151 804 q 518 986 363 986 q 774 875 676 986 l 661 764 q 518 824 593 824 q 376 749 432 824 q 297 566 321 675 q 272 349 272 457 q 414 146 272 146 q 499 165 460 146 q 590 222 538 183 l 671 97 z "},"Ĉ":{"ha":718,"x_min":51,"x_max":779,"o":"m 518 986 q 774 875 676 986 l 661 764 q 518 824 593 824 q 376 749 432 824 q 297 566 321 675 q 272 349 272 457 q 414 146 272 146 q 499 165 460 146 q 590 222 538 183 l 671 97 q 376 -24 539 -24 q 140 74 228 -24 q 51 357 51 172 q 101 660 51 515 q 257 895 151 804 q 518 986 363 986 m 369 1050 l 299 1135 l 500 1313 l 625 1313 l 779 1129 l 699 1050 l 549 1168 l 369 1050 z "},"Ċ":{"ha":718,"x_min":51,"x_max":774,"o":"m 518 986 q 774 875 676 986 l 661 764 q 518 824 593 824 q 376 749 432 824 q 297 566 321 675 q 272 349 272 457 q 414 146 272 146 q 499 165 460 146 q 590 222 538 183 l 671 97 q 376 -24 539 -24 q 140 74 228 -24 q 51 357 51 172 q 101 660 51 515 q 257 895 151 804 q 518 986 363 986 m 544 1056 q 465 1085 494 1056 q 435 1161 435 1114 q 474 1258 435 1219 q 571 1296 513 1296 q 650 1267 621 1296 q 679 1190 679 1238 q 640 1094 679 1132 q 544 1056 601 1056 z "},"Ꭓ":{"ha":708,"x_min":-90,"x_max":781,"o":"m 781 963 l 481 406 l 633 -219 l 410 -219 l 333 260 l 144 -219 l -90 -219 l 228 404 l 96 963 l 319 963 l 376 542 l 551 963 l 781 963 z "},"Ƈ":{"ha":722,"x_min":50,"x_max":1008,"o":"m 844 1179 q 1008 1126 939 1179 l 933 1000 q 857 1025 896 1025 q 782 938 793 1025 l 774 875 l 672 771 q 519 824 596 824 q 376 749 432 824 q 297 566 321 675 q 272 349 272 457 q 413 146 272 146 q 497 165 458 146 q 590 222 536 183 l 671 97 q 538 10 613 43 q 379 -24 464 -24 q 138 74 226 -24 q 50 357 50 172 q 101 658 50 513 q 253 894 153 803 q 492 986 354 986 q 606 963 556 986 l 607 972 q 681 1124 621 1068 q 844 1179 740 1179 z "},"Ȼ":{"ha":718,"x_min":51,"x_max":774,"o":"m 414 146 q 499 165 460 146 q 590 222 538 183 l 671 97 q 376 -24 539 -24 q 292 -14 329 -24 l 258 -103 l 185 -83 l 221 11 q 96 140 140 53 q 51 357 51 228 q 101 660 51 515 q 257 895 151 804 q 518 986 363 986 q 589 981 544 986 l 615 1049 l 689 1029 l 663 958 q 774 875 725 931 l 661 764 q 603 804 633 788 l 357 157 q 414 146 379 146 m 272 349 q 297 214 272 263 l 529 824 l 518 824 q 376 749 432 824 q 297 566 321 675 q 272 349 272 457 z "},"D":{"ha":819,"x_min":26,"x_max":800,"o":"m 410 963 q 694 885 588 963 q 800 613 800 808 q 678 169 800 339 q 292 0 556 0 l 26 0 l 161 963 l 410 963 m 353 804 l 263 158 l 325 158 q 522 297 463 158 q 582 615 582 435 q 540 763 582 722 q 419 804 499 804 l 353 804 z "},"Ǳ":{"ha":1457,"x_min":26,"x_max":1503,"o":"m 410 963 q 694 885 588 963 q 800 613 800 808 q 678 169 800 339 q 292 0 556 0 l 26 0 l 161 963 l 410 963 m 353 804 l 263 158 l 325 158 q 522 297 463 158 q 582 615 582 435 q 540 763 582 722 q 419 804 499 804 l 353 804 m 751 0 l 775 163 l 1239 793 l 899 793 l 924 963 l 1503 963 l 1478 797 l 1015 174 l 1401 174 l 1354 0 l 751 0 z "},"Ǆ":{"ha":1457,"x_min":26,"x_max":1503,"o":"m 410 963 q 694 885 588 963 q 800 613 800 808 q 678 169 800 339 q 292 0 556 0 l 26 0 l 161 963 l 410 963 m 353 804 l 263 158 l 325 158 q 522 297 463 158 q 582 615 582 435 q 540 763 582 722 q 419 804 499 804 l 353 804 m 751 0 l 775 163 l 1239 793 l 899 793 l 924 963 l 1503 963 l 1478 797 l 1015 174 l 1401 174 l 1354 0 l 751 0 m 1413 1304 l 1483 1219 l 1282 1042 l 1157 1042 l 1001 1225 l 1085 1304 l 1233 1188 l 1413 1304 z "},"Ɖ":{"ha":831,"x_min":22,"x_max":811,"o":"m 421 963 q 705 885 599 963 q 811 613 811 808 q 689 169 811 339 q 303 0 567 0 l 38 0 l 97 424 l 22 424 l 42 557 l 115 557 l 172 963 l 421 963 m 336 158 q 533 297 474 158 q 593 615 593 435 q 551 763 593 722 q 431 804 510 804 l 364 804 l 329 557 l 490 557 l 471 424 l 311 424 l 274 158 l 336 158 z "},"Ð":{"ha":831,"x_min":22,"x_max":811,"o":"m 421 963 q 705 885 599 963 q 811 613 811 808 q 689 169 811 339 q 303 0 567 0 l 38 0 l 97 424 l 22 424 l 42 557 l 115 557 l 172 963 l 421 963 m 336 158 q 533 297 474 158 q 593 615 593 435 q 551 763 593 722 q 431 804 510 804 l 364 804 l 329 557 l 490 557 l 471 424 l 311 424 l 274 158 l 336 158 z "},"Ď":{"ha":819,"x_min":26,"x_max":800,"o":"m 410 963 q 694 885 588 963 q 800 613 800 808 q 678 169 800 339 q 292 0 556 0 l 26 0 l 161 963 l 410 963 m 353 804 l 263 158 l 325 158 q 522 297 463 158 q 582 615 582 435 q 540 763 582 722 q 419 804 499 804 l 353 804 m 661 1304 l 732 1219 l 531 1042 l 406 1042 l 250 1225 l 333 1304 l 482 1188 l 661 1304 z "},"Ḓ":{"ha":819,"x_min":26,"x_max":800,"o":"m 410 963 q 694 885 588 963 q 800 613 800 808 q 678 169 800 339 q 292 0 556 0 l 26 0 l 161 963 l 410 963 m 353 804 l 263 158 l 325 158 q 522 297 463 158 q 582 615 582 435 q 540 763 582 722 q 419 804 499 804 l 353 804 m 107 -360 l 38 -275 l 240 -89 l 365 -89 l 519 -281 l 433 -360 l 288 -233 l 107 -360 z "},"Đ":{"ha":831,"x_min":22,"x_max":811,"o":"m 421 963 q 705 885 599 963 q 811 613 811 808 q 689 169 811 339 q 303 0 567 0 l 38 0 l 97 424 l 22 424 l 42 557 l 115 557 l 172 963 l 421 963 m 336 158 q 533 297 474 158 q 593 615 593 435 q 551 763 593 722 q 431 804 510 804 l 364 804 l 329 557 l 490 557 l 471 424 l 311 424 l 274 158 l 336 158 z "},"Ḋ":{"ha":819,"x_min":26,"x_max":800,"o":"m 410 963 q 694 885 588 963 q 800 613 800 808 q 678 169 800 339 q 292 0 556 0 l 26 0 l 161 963 l 410 963 m 353 804 l 263 158 l 325 158 q 522 297 463 158 q 582 615 582 435 q 540 763 582 722 q 419 804 499 804 l 353 804 m 478 1056 q 398 1085 428 1056 q 368 1161 368 1114 q 407 1258 368 1219 q 504 1296 446 1296 q 583 1267 554 1296 q 613 1190 613 1238 q 574 1094 613 1132 q 478 1056 535 1056 z "},"Ḍ":{"ha":819,"x_min":26,"x_max":800,"o":"m 410 963 q 694 885 588 963 q 800 613 800 808 q 678 169 800 339 q 292 0 556 0 l 26 0 l 161 963 l 410 963 m 353 804 l 263 158 l 325 158 q 522 297 463 158 q 582 615 582 435 q 540 763 582 722 q 419 804 499 804 l 353 804 m 301 -86 q 381 -115 351 -86 q 411 -192 411 -144 q 372 -288 411 -250 q 275 -326 333 -326 q 196 -297 225 -326 q 167 -221 167 -268 q 206 -124 167 -162 q 301 -86 244 -86 z "},"Ɗ":{"ha":1004,"x_min":60,"x_max":986,"o":"m 596 963 q 880 885 774 963 q 986 613 986 808 q 864 169 986 339 q 478 0 742 0 l 213 0 l 325 806 l 290 806 q 241 785 258 806 q 224 725 224 764 q 235 650 224 700 l 92 596 q 68 663 76 632 q 60 732 60 694 q 127 900 60 838 q 307 963 194 963 l 596 963 m 511 158 q 708 297 649 158 q 768 615 768 435 q 726 763 768 722 q 606 804 685 804 l 539 804 l 449 158 l 511 158 z "},"Ḏ":{"ha":819,"x_min":26,"x_max":800,"o":"m 410 963 q 694 885 588 963 q 800 613 800 808 q 678 169 800 339 q 292 0 556 0 l 26 0 l 161 963 l 410 963 m 353 804 l 263 158 l 325 158 q 522 297 463 158 q 582 615 582 435 q 540 763 582 722 q 419 804 499 804 l 353 804 m 122 -115 l 503 -115 l 481 -262 l 100 -262 l 122 -115 z "},"Ƌ":{"ha":744,"x_min":11,"x_max":750,"o":"m 615 0 l 325 0 q 94 70 176 0 q 11 276 11 140 q 116 528 11 439 q 399 617 221 617 l 488 617 l 513 797 l 190 797 l 213 963 l 750 963 l 615 0 m 424 158 l 467 465 l 397 465 q 276 417 317 465 q 236 283 236 368 q 266 188 236 218 q 361 158 296 158 l 424 158 z "},"ǲ":{"ha":1375,"x_min":26,"x_max":1399,"o":"m 410 963 q 694 885 588 963 q 800 613 800 808 q 678 169 800 339 q 292 0 556 0 l 26 0 l 161 963 l 410 963 m 353 804 l 263 158 l 325 158 q 522 297 463 158 q 582 615 582 435 q 540 763 582 722 q 419 804 499 804 l 353 804 m 1399 738 l 1378 589 l 1038 160 l 1328 160 l 1285 0 l 768 0 l 789 149 l 1131 579 l 874 579 l 897 738 l 1399 738 z "},"ǅ":{"ha":1375,"x_min":26,"x_max":1428,"o":"m 410 963 q 694 885 588 963 q 800 613 800 808 q 678 169 800 339 q 292 0 556 0 l 26 0 l 161 963 l 410 963 m 353 804 l 263 158 l 325 158 q 522 297 463 158 q 582 615 582 435 q 540 763 582 722 q 419 804 499 804 l 353 804 m 1399 738 l 1378 589 l 1038 160 l 1328 160 l 1285 0 l 768 0 l 789 149 l 1131 579 l 874 579 l 897 738 l 1399 738 m 1360 1122 l 1428 1038 l 1226 851 l 1101 851 l 951 1038 l 1029 1122 l 1175 997 l 1360 1122 z "},"E":{"ha":649,"x_min":26,"x_max":693,"o":"m 693 963 l 647 806 l 353 806 l 319 565 l 578 565 l 556 413 l 297 413 l 263 158 l 581 158 l 557 0 l 26 0 l 161 963 l 693 963 z "},"É":{"ha":649,"x_min":26,"x_max":693,"o":"m 693 963 l 647 806 l 353 806 l 319 565 l 578 565 l 556 413 l 297 413 l 263 158 l 581 158 l 557 0 l 26 0 l 161 963 l 693 963 m 578 1308 l 646 1154 l 335 1039 l 288 1139 l 578 1308 z "},"Ĕ":{"ha":649,"x_min":26,"x_max":693,"o":"m 693 963 l 647 806 l 353 806 l 319 565 l 578 565 l 556 413 l 297 413 l 263 158 l 581 158 l 557 0 l 26 0 l 161 963 l 693 963 m 442 1043 q 296 1108 344 1043 q 254 1265 247 1172 l 364 1282 q 390 1215 368 1240 q 451 1190 411 1190 q 524 1217 493 1190 q 571 1286 554 1243 l 683 1260 q 601 1104 664 1165 q 442 1043 538 1043 z "},"Ě":{"ha":649,"x_min":26,"x_max":704,"o":"m 693 963 l 647 806 l 353 806 l 319 565 l 578 565 l 556 413 l 297 413 l 263 158 l 581 158 l 557 0 l 26 0 l 161 963 l 693 963 m 633 1304 l 704 1219 l 503 1042 l 378 1042 l 222 1225 l 306 1304 l 454 1188 l 633 1304 z "},"Ȩ":{"ha":649,"x_min":26,"x_max":693,"o":"m 353 806 l 319 565 l 578 565 l 556 413 l 297 413 l 263 158 l 581 158 l 557 0 l 349 0 l 338 -71 q 423 -108 394 -78 q 451 -189 451 -139 q 431 -269 451 -229 q 363 -335 410 -308 q 243 -361 315 -361 q 165 -349 200 -361 q 106 -317 129 -336 l 164 -225 q 240 -246 200 -246 q 287 -233 269 -246 q 304 -197 304 -221 q 280 -164 304 -174 q 196 -154 256 -154 l 233 0 l 26 0 l 161 963 l 693 963 l 647 806 l 353 806 z "},"Ê":{"ha":649,"x_min":26,"x_max":693,"o":"m 693 963 l 647 806 l 353 806 l 319 565 l 578 565 l 556 413 l 297 413 l 263 158 l 581 158 l 557 0 l 26 0 l 161 963 l 693 963 m 275 1050 l 204 1135 l 406 1313 l 531 1313 l 685 1129 l 604 1050 l 454 1168 l 275 1050 z "},"Ế":{"ha":649,"x_min":26,"x_max":879,"o":"m 778 1508 l 879 1400 l 651 1203 l 579 1271 l 778 1508 m 269 1003 l 199 1088 l 400 1265 l 525 1265 l 679 1082 l 599 1003 l 449 1121 l 269 1003 m 693 963 l 647 806 l 353 806 l 319 565 l 578 565 l 556 413 l 297 413 l 263 158 l 581 158 l 557 0 l 26 0 l 161 963 l 693 963 z "},"Ệ":{"ha":649,"x_min":26,"x_max":693,"o":"m 693 963 l 647 806 l 353 806 l 319 565 l 578 565 l 556 413 l 297 413 l 263 158 l 581 158 l 557 0 l 26 0 l 161 963 l 693 963 m 275 1050 l 204 1135 l 406 1313 l 531 1313 l 685 1129 l 604 1050 l 454 1168 l 275 1050 m 275 -86 q 355 -115 325 -86 q 385 -192 385 -144 q 346 -288 385 -250 q 249 -326 307 -326 q 169 -297 199 -326 q 140 -221 140 -268 q 179 -124 140 -162 q 275 -86 218 -86 z "},"Ề":{"ha":649,"x_min":26,"x_max":693,"o":"m 207 1504 l 340 1264 l 256 1203 l 82 1408 l 207 1504 m 269 1003 l 199 1088 l 400 1265 l 525 1265 l 679 1082 l 599 1003 l 449 1121 l 269 1003 m 693 963 l 647 806 l 353 806 l 319 565 l 578 565 l 556 413 l 297 413 l 263 158 l 581 158 l 557 0 l 26 0 l 161 963 l 693 963 z "},"Ể":{"ha":649,"x_min":26,"x_max":856,"o":"m 693 963 l 647 806 l 353 806 l 319 565 l 578 565 l 556 413 l 297 413 l 263 158 l 581 158 l 557 0 l 26 0 l 161 963 l 693 963 m 267 1003 l 196 1088 l 397 1265 l 522 1265 l 676 1082 l 596 1003 l 446 1121 l 267 1003 m 618 1308 q 691 1325 667 1311 q 715 1369 715 1339 q 672 1406 715 1406 q 599 1386 638 1406 l 575 1478 q 708 1511 632 1511 q 817 1476 778 1511 q 856 1382 856 1440 q 731 1244 856 1269 l 724 1185 l 604 1185 l 618 1308 z "},"Ễ":{"ha":649,"x_min":26,"x_max":726,"o":"m 550 1303 q 506 1312 526 1303 q 463 1338 486 1321 q 437 1354 450 1347 q 413 1361 424 1361 q 376 1347 392 1361 q 338 1303 360 1333 l 246 1354 q 326 1462 281 1421 q 422 1503 372 1503 q 469 1493 450 1503 q 513 1467 489 1483 q 539 1449 528 1454 q 561 1443 550 1443 q 597 1456 581 1443 q 633 1500 613 1469 l 726 1450 q 644 1343 690 1383 q 550 1303 599 1303 m 268 1003 l 197 1088 l 399 1265 l 524 1265 l 678 1082 l 597 1003 l 447 1121 l 268 1003 m 693 963 l 647 806 l 353 806 l 319 565 l 578 565 l 556 413 l 297 413 l 263 158 l 581 158 l 557 0 l 26 0 l 161 963 l 693 963 z "},"Ȅ":{"ha":649,"x_min":26,"x_max":693,"o":"m 693 963 l 647 806 l 353 806 l 319 565 l 578 565 l 556 413 l 297 413 l 263 158 l 581 158 l 557 0 l 26 0 l 161 963 l 693 963 m 319 1365 l 406 1093 l 290 1044 l 168 1299 l 319 1365 m 539 1365 l 614 1093 l 500 1051 l 388 1303 l 539 1365 z "},"Ë":{"ha":649,"x_min":26,"x_max":708,"o":"m 693 963 l 647 806 l 353 806 l 319 565 l 578 565 l 556 413 l 297 413 l 263 158 l 581 158 l 557 0 l 26 0 l 161 963 l 693 963 m 299 1068 q 228 1094 254 1068 q 203 1160 203 1119 q 237 1245 203 1211 q 321 1279 271 1279 q 391 1253 365 1279 q 417 1188 417 1228 q 383 1102 417 1136 q 299 1068 349 1068 m 590 1068 q 521 1094 547 1068 q 494 1160 494 1119 q 528 1245 494 1211 q 613 1279 563 1279 q 682 1253 656 1279 q 708 1188 708 1228 q 674 1102 708 1136 q 590 1068 640 1068 z "},"Ė":{"ha":649,"x_min":26,"x_max":693,"o":"m 693 963 l 647 806 l 353 806 l 319 565 l 578 565 l 556 413 l 297 413 l 263 158 l 581 158 l 557 0 l 26 0 l 161 963 l 693 963 m 450 1056 q 370 1085 400 1056 q 340 1161 340 1114 q 379 1258 340 1219 q 476 1296 418 1296 q 556 1267 526 1296 q 585 1190 585 1238 q 546 1094 585 1132 q 450 1056 507 1056 z "},"Ẹ":{"ha":649,"x_min":26,"x_max":693,"o":"m 693 963 l 647 806 l 353 806 l 319 565 l 578 565 l 556 413 l 297 413 l 263 158 l 581 158 l 557 0 l 26 0 l 161 963 l 693 963 m 275 -86 q 355 -115 325 -86 q 385 -192 385 -144 q 346 -288 385 -250 q 249 -326 307 -326 q 169 -297 199 -326 q 140 -221 140 -268 q 179 -124 140 -162 q 275 -86 218 -86 z "},"È":{"ha":649,"x_min":26,"x_max":693,"o":"m 693 963 l 647 806 l 353 806 l 319 565 l 578 565 l 556 413 l 297 413 l 263 158 l 581 158 l 557 0 l 26 0 l 161 963 l 693 963 m 385 1306 l 638 1136 l 579 1040 l 296 1153 l 385 1306 z "},"Ẻ":{"ha":649,"x_min":26,"x_max":693,"o":"m 693 963 l 647 806 l 353 806 l 319 565 l 578 565 l 556 413 l 297 413 l 263 158 l 581 158 l 557 0 l 26 0 l 161 963 l 693 963 m 397 1185 q 470 1201 446 1188 q 494 1246 494 1215 q 451 1282 494 1282 q 378 1263 417 1282 l 354 1354 q 488 1388 411 1388 q 596 1352 557 1388 q 635 1258 635 1317 q 510 1121 635 1146 l 503 1061 l 383 1061 l 397 1185 z "},"Ȇ":{"ha":649,"x_min":26,"x_max":693,"o":"m 693 963 l 647 806 l 353 806 l 319 565 l 578 565 l 556 413 l 297 413 l 263 158 l 581 158 l 557 0 l 26 0 l 161 963 l 693 963 m 228 1086 q 316 1253 251 1189 q 476 1317 381 1317 q 622 1250 574 1317 q 665 1081 671 1183 l 550 1065 q 463 1171 542 1171 q 339 1060 378 1171 l 228 1086 z "},"Ē":{"ha":649,"x_min":26,"x_max":693,"o":"m 693 963 l 647 806 l 353 806 l 319 565 l 578 565 l 556 413 l 297 413 l 263 158 l 581 158 l 557 0 l 26 0 l 161 963 l 693 963 m 633 1086 l 253 1086 l 275 1233 l 656 1233 l 633 1086 z "},"Ę":{"ha":649,"x_min":26,"x_max":693,"o":"m 353 806 l 319 565 l 578 565 l 556 413 l 297 413 l 263 158 l 581 158 l 557 0 l 510 0 q 342 -160 342 -69 q 399 -207 342 -207 q 474 -199 432 -207 l 444 -328 q 357 -337 407 -337 q 237 -298 283 -337 q 190 -192 190 -258 q 318 0 190 -75 l 26 0 l 161 963 l 693 963 l 647 806 l 353 806 z "},"Ɛ":{"ha":672,"x_min":14,"x_max":725,"o":"m 444 985 q 606 953 539 985 q 725 857 672 921 l 608 750 q 457 826 540 826 q 361 787 396 826 q 326 685 326 747 q 355 611 326 636 q 438 586 383 586 l 525 586 l 478 428 l 418 428 q 283 384 331 428 q 235 257 235 340 q 353 139 235 139 q 447 160 403 139 q 539 224 492 182 l 638 110 q 318 -22 508 -22 q 97 47 179 -22 q 14 235 14 117 q 85 428 14 358 q 281 511 156 499 q 111 700 111 549 q 157 849 111 783 q 280 949 203 914 q 444 985 357 985 z "},"Ǝ":{"ha":644,"x_min":-17,"x_max":649,"o":"m 122 963 l 649 963 l 514 0 l -17 0 l 6 158 l 322 158 l 358 413 l 97 413 l 119 565 l 379 565 l 413 806 l 100 806 l 122 963 z "},"Ʃ":{"ha":628,"x_min":-22,"x_max":682,"o":"m 682 963 l 660 803 l 313 803 l 481 513 l 471 422 l 233 163 l 572 163 l 550 0 l -22 0 l 0 158 l 282 479 l 89 804 l 111 963 l 682 963 z "},"Ɇ":{"ha":649,"x_min":26,"x_max":693,"o":"m 647 806 l 592 806 l 500 565 l 578 565 l 556 413 l 442 413 l 346 158 l 581 158 l 557 0 l 285 0 l 246 -103 l 172 -83 l 204 0 l 26 0 l 161 963 l 569 963 l 603 1049 l 676 1029 l 651 963 l 693 963 l 647 806 m 419 565 l 510 806 l 353 806 l 319 565 l 419 565 m 264 158 l 361 413 l 297 413 l 263 158 l 264 158 z "},"Ẽ":{"ha":649,"x_min":26,"x_max":701,"o":"m 693 963 l 647 806 l 353 806 l 319 565 l 578 565 l 556 413 l 297 413 l 263 158 l 581 158 l 557 0 l 26 0 l 161 963 l 693 963 m 524 1060 q 480 1069 499 1060 q 435 1097 461 1079 q 408 1115 422 1107 q 383 1122 394 1122 q 347 1108 363 1122 q 308 1060 331 1093 l 215 1115 q 297 1228 250 1185 q 394 1272 343 1272 q 441 1263 422 1272 q 485 1235 460 1253 q 535 1210 515 1210 q 569 1224 553 1210 q 607 1269 586 1238 l 701 1217 q 619 1103 665 1146 q 524 1060 572 1060 z "},"Ʒ":{"ha":682,"x_min":-25,"x_max":690,"o":"m 668 808 l 414 557 q 586 492 526 551 q 646 329 646 432 q 595 142 646 222 q 457 20 544 63 q 263 -22 369 -22 q 90 14 158 -22 q -25 119 21 50 l 99 222 q 173 158 136 178 q 261 139 210 139 q 379 188 333 139 q 425 319 425 238 q 392 405 425 379 q 294 431 360 431 l 168 431 l 169 432 l 188 556 l 432 804 l 118 804 l 142 963 l 690 963 l 668 808 z "},"Ǯ":{"ha":682,"x_min":-25,"x_max":690,"o":"m 668 808 l 414 557 q 586 492 526 551 q 646 329 646 432 q 595 142 646 222 q 457 20 544 63 q 263 -22 369 -22 q 90 14 158 -22 q -25 119 21 50 l 99 222 q 173 158 136 178 q 261 139 210 139 q 379 188 333 139 q 425 319 425 238 q 392 405 425 379 q 294 431 360 431 l 168 431 l 169 432 l 188 556 l 432 804 l 118 804 l 142 963 l 690 963 l 668 808 m 619 1304 l 690 1219 l 489 1042 l 364 1042 l 208 1225 l 292 1304 l 440 1188 l 619 1304 z "},"Ƹ":{"ha":685,"x_min":13,"x_max":706,"o":"m 681 804 l 354 804 l 546 553 l 528 431 l 410 431 q 281 384 326 431 q 235 254 235 338 q 263 169 235 199 q 344 139 290 139 q 444 160 399 139 q 540 226 490 182 l 639 115 q 499 13 576 49 q 318 -22 421 -22 q 93 51 174 -22 q 13 247 13 124 q 53 407 13 338 q 167 516 94 476 q 332 558 240 556 l 135 808 l 157 963 l 706 963 l 681 804 z "},"F":{"ha":601,"x_min":26,"x_max":678,"o":"m 678 963 l 631 806 l 353 806 l 317 543 l 563 543 l 539 386 l 294 386 l 240 0 l 26 0 l 161 963 l 678 963 z "},"Ḟ":{"ha":601,"x_min":26,"x_max":678,"o":"m 678 963 l 631 806 l 353 806 l 317 543 l 563 543 l 539 386 l 294 386 l 240 0 l 26 0 l 161 963 l 678 963 m 440 1056 q 360 1085 390 1056 q 331 1161 331 1114 q 369 1258 331 1219 q 467 1296 408 1296 q 546 1267 517 1296 q 575 1190 575 1238 q 536 1094 575 1132 q 440 1056 497 1056 z "},"Ƒ":{"ha":601,"x_min":-228,"x_max":678,"o":"m 353 806 l 317 543 l 563 543 l 539 386 l 294 386 l 240 0 l 232 -58 q 138 -244 214 -181 q -53 -307 63 -307 q -228 -247 -160 -307 l -142 -122 q -102 -142 -118 -136 q -64 -147 -86 -147 q -9 -126 -31 -147 q 18 -67 13 -106 l 26 0 l 161 963 l 678 963 l 631 806 l 353 806 z "},"G":{"ha":807,"x_min":49,"x_max":819,"o":"m 543 986 q 819 865 713 986 l 700 758 q 624 810 660 794 q 539 826 588 826 q 382 749 443 826 q 294 557 321 672 q 268 318 268 442 q 300 180 268 222 q 396 138 332 138 q 517 171 458 138 l 549 397 l 442 397 l 444 551 l 775 551 l 710 78 q 551 3 636 29 q 383 -22 467 -22 q 133 71 217 -22 q 49 344 49 164 q 103 656 49 508 q 270 894 158 803 q 543 986 382 986 z "},"Ǵ":{"ha":807,"x_min":49,"x_max":819,"o":"m 543 986 q 819 865 713 986 l 700 758 q 624 810 660 794 q 539 826 588 826 q 382 749 443 826 q 294 557 321 672 q 268 318 268 442 q 300 180 268 222 q 396 138 332 138 q 517 171 458 138 l 549 397 l 442 397 l 444 551 l 775 551 l 710 78 q 551 3 636 29 q 383 -22 467 -22 q 133 71 217 -22 q 49 344 49 164 q 103 656 49 508 q 270 894 158 803 q 543 986 382 986 m 679 1308 l 747 1154 l 436 1039 l 389 1139 l 679 1308 z "},"Ɣ":{"ha":717,"x_min":69,"x_max":814,"o":"m 431 117 q 472 -1 458 46 q 485 -99 485 -49 q 428 -253 485 -199 q 269 -307 371 -307 q 142 -265 185 -307 q 99 -151 99 -222 q 128 -25 99 -89 q 218 125 157 39 l 69 963 l 289 963 l 347 267 l 594 963 l 814 963 l 431 117 m 329 -103 q 311 11 329 -57 q 254 -135 254 -83 q 283 -168 254 -168 q 329 -103 329 -168 z "},"Ğ":{"ha":807,"x_min":49,"x_max":819,"o":"m 543 986 q 819 865 713 986 l 700 758 q 624 810 660 794 q 539 826 588 826 q 382 749 443 826 q 294 557 321 672 q 268 318 268 442 q 300 180 268 222 q 396 138 332 138 q 517 171 458 138 l 549 397 l 442 397 l 444 551 l 775 551 l 710 78 q 551 3 636 29 q 383 -22 467 -22 q 133 71 217 -22 q 49 344 49 164 q 103 656 49 508 q 270 894 158 803 q 543 986 382 986 m 543 1043 q 397 1108 446 1043 q 356 1265 349 1172 l 465 1282 q 491 1215 469 1240 q 553 1190 513 1190 q 625 1217 594 1190 q 672 1286 656 1243 l 785 1260 q 702 1104 765 1165 q 543 1043 639 1043 z "},"Ǧ":{"ha":807,"x_min":49,"x_max":819,"o":"m 543 986 q 819 865 713 986 l 700 758 q 624 810 660 794 q 539 826 588 826 q 382 749 443 826 q 294 557 321 672 q 268 318 268 442 q 300 180 268 222 q 396 138 332 138 q 517 171 458 138 l 549 397 l 442 397 l 444 551 l 775 551 l 710 78 q 551 3 636 29 q 383 -22 467 -22 q 133 71 217 -22 q 49 344 49 164 q 103 656 49 508 q 270 894 158 803 q 543 986 382 986 m 735 1304 l 806 1219 l 604 1042 l 479 1042 l 324 1225 l 407 1304 l 556 1188 l 735 1304 z "},"Ĝ":{"ha":807,"x_min":49,"x_max":819,"o":"m 543 986 q 819 865 713 986 l 700 758 q 624 810 660 794 q 539 826 588 826 q 382 749 443 826 q 294 557 321 672 q 268 318 268 442 q 300 180 268 222 q 396 138 332 138 q 517 171 458 138 l 549 397 l 442 397 l 444 551 l 775 551 l 710 78 q 551 3 636 29 q 383 -22 467 -22 q 133 71 217 -22 q 49 344 49 164 q 103 656 49 508 q 270 894 158 803 q 543 986 382 986 m 376 1050 l 306 1135 l 507 1313 l 632 1313 l 786 1129 l 706 1050 l 556 1168 l 376 1050 z "},"Ģ":{"ha":807,"x_min":49,"x_max":819,"o":"m 543 986 q 819 865 713 986 l 700 758 q 624 810 660 794 q 539 826 588 826 q 382 749 443 826 q 294 557 321 672 q 268 318 268 442 q 300 180 268 222 q 396 138 332 138 q 517 171 458 138 l 549 397 l 442 397 l 444 551 l 775 551 l 710 78 q 551 3 636 29 q 383 -22 467 -22 q 133 71 217 -22 q 49 344 49 164 q 103 656 49 508 q 270 894 158 803 q 543 986 382 986 m 368 -96 q 438 -122 411 -96 q 464 -187 464 -149 q 453 -244 464 -218 q 413 -321 442 -269 l 336 -447 l 235 -447 l 294 -283 q 258 -212 258 -258 q 290 -128 258 -161 q 368 -96 321 -96 z "},"Ġ":{"ha":807,"x_min":49,"x_max":819,"o":"m 543 986 q 819 865 713 986 l 700 758 q 624 810 660 794 q 539 826 588 826 q 382 749 443 826 q 294 557 321 672 q 268 318 268 442 q 300 180 268 222 q 396 138 332 138 q 517 171 458 138 l 549 397 l 442 397 l 444 551 l 775 551 l 710 78 q 551 3 636 29 q 383 -22 467 -22 q 133 71 217 -22 q 49 344 49 164 q 103 656 49 508 q 270 894 158 803 q 543 986 382 986 m 551 1056 q 472 1085 501 1056 q 442 1161 442 1114 q 481 1258 442 1219 q 578 1296 519 1296 q 657 1267 628 1296 q 686 1190 686 1238 q 647 1094 686 1132 q 551 1056 608 1056 z "},"Ɠ":{"ha":769,"x_min":49,"x_max":1056,"o":"m 892 1179 q 1056 1126 986 1179 l 981 1000 q 904 1025 943 1025 q 828 938 840 1025 l 819 865 l 713 768 q 629 812 671 797 q 539 826 588 826 q 382 749 443 826 q 294 557 321 672 q 268 318 268 442 q 300 180 268 222 q 396 138 332 138 q 517 171 458 138 l 549 397 l 442 397 l 443 551 l 775 551 l 710 78 q 551 3 635 29 q 383 -22 467 -22 q 133 71 217 -22 q 49 344 49 164 q 103 654 49 507 q 265 894 158 801 q 522 986 372 986 q 651 958 599 986 l 654 972 q 728 1124 668 1068 q 892 1179 788 1179 z "},"Ɂ":{"ha":644,"x_min":79,"x_max":667,"o":"m 201 457 l 268 479 q 400 562 356 507 q 444 707 444 617 q 419 795 444 764 q 343 826 393 826 q 257 806 299 826 q 168 747 215 786 l 79 861 q 222 954 149 924 q 383 985 294 985 q 590 914 514 985 q 667 721 667 843 q 610 519 667 597 q 442 401 553 440 l 406 389 l 351 0 l 138 0 l 201 457 z "},"Ǥ":{"ha":839,"x_min":49,"x_max":833,"o":"m 817 242 l 732 242 l 710 78 q 551 3 636 29 q 383 -22 467 -22 q 133 71 217 -22 q 49 344 49 164 q 103 656 49 508 q 270 894 158 803 q 543 986 382 986 q 819 865 713 986 l 699 758 q 624 810 660 794 q 539 826 588 826 q 382 749 443 826 q 294 557 321 672 q 268 318 268 442 q 300 180 268 222 q 396 138 332 138 q 525 172 463 138 l 535 242 l 421 242 l 438 368 l 551 368 l 561 436 l 446 436 l 444 569 l 775 569 l 749 368 l 833 368 l 817 242 z "},"Ȝ":{"ha":640,"x_min":4,"x_max":642,"o":"m 376 986 q 571 922 500 986 q 642 754 642 858 q 406 496 642 553 q 551 444 500 490 q 601 310 601 397 q 433 13 601 129 q 4 -156 264 -104 l 10 3 q 283 124 190 56 q 376 310 376 192 q 345 390 376 365 q 244 414 314 414 l 157 414 l 203 572 l 269 572 q 381 615 340 572 q 421 731 421 658 q 332 826 421 826 q 247 807 290 826 q 151 749 203 788 l 67 861 q 376 986 206 986 z "},"H":{"ha":825,"x_min":25,"x_max":829,"o":"m 239 0 l 25 0 l 161 963 l 375 963 l 322 586 l 563 586 l 615 963 l 829 963 l 694 0 l 481 0 l 539 417 l 299 417 l 239 0 z "},"Ħ":{"ha":843,"x_min":33,"x_max":886,"o":"m 886 819 l 868 696 l 800 696 l 703 0 l 489 0 l 547 417 l 307 417 l 247 0 l 33 0 l 132 696 l 64 696 l 82 819 l 149 819 l 169 963 l 383 963 l 364 819 l 604 819 l 624 963 l 838 963 l 818 819 l 886 819 m 571 586 l 586 696 l 346 696 l 331 586 l 571 586 z "},"Ȟ":{"ha":825,"x_min":25,"x_max":829,"o":"m 239 0 l 25 0 l 161 963 l 375 963 l 322 586 l 563 586 l 615 963 l 829 963 l 694 0 l 481 0 l 539 417 l 299 417 l 239 0 m 700 1304 l 771 1219 l 569 1042 l 444 1042 l 289 1225 l 372 1304 l 521 1188 l 700 1304 z "},"Ĥ":{"ha":825,"x_min":25,"x_max":829,"o":"m 239 0 l 25 0 l 161 963 l 375 963 l 322 586 l 563 586 l 615 963 l 829 963 l 694 0 l 481 0 l 539 417 l 299 417 l 239 0 m 342 1050 l 271 1135 l 472 1313 l 597 1313 l 751 1129 l 671 1050 l 521 1168 l 342 1050 z "},"Ḥ":{"ha":825,"x_min":25,"x_max":829,"o":"m 239 0 l 25 0 l 161 963 l 375 963 l 322 586 l 563 586 l 615 963 l 829 963 l 694 0 l 481 0 l 539 417 l 299 417 l 239 0 m 346 -86 q 426 -115 396 -86 q 456 -192 456 -144 q 417 -288 456 -250 q 319 -326 378 -326 q 240 -297 269 -326 q 211 -221 211 -268 q 250 -124 211 -162 q 346 -86 289 -86 z "},"Ɦ":{"ha":1010,"x_min":60,"x_max":1015,"o":"m 1015 963 l 881 0 l 667 0 l 725 417 l 485 417 l 425 0 l 211 0 l 325 806 l 290 806 q 241 785 258 806 q 224 725 224 764 q 235 650 224 700 l 92 596 q 68 663 76 632 q 60 732 60 694 q 127 900 60 838 q 307 963 194 963 l 561 963 l 508 586 l 749 586 l 801 963 l 1015 963 z "},"Ɥ":{"ha":772,"x_min":56,"x_max":776,"o":"m 776 963 l 642 0 l 428 0 l 478 354 q 385 301 431 318 q 282 285 339 285 q 115 351 174 285 q 56 529 56 417 q 60 592 56 558 l 111 963 l 321 963 l 269 589 q 267 549 267 561 q 290 472 267 497 q 361 447 313 447 q 499 504 436 447 l 563 963 l 776 963 z "},"Ƕ":{"ha":1176,"x_min":26,"x_max":1139,"o":"m 758 -22 q 574 41 636 -22 q 511 197 511 104 q 514 232 511 210 l 539 417 l 299 417 l 240 0 l 26 0 l 161 963 l 375 963 l 322 586 l 563 586 l 615 963 l 829 963 l 728 229 q 725 197 725 207 q 781 132 725 132 q 906 280 871 132 q 940 607 940 428 q 936 738 940 678 l 1131 738 q 1139 593 1139 667 q 1057 141 1139 304 q 758 -22 975 -22 z "},"I":{"ha":369,"x_min":26,"x_max":375,"o":"m 375 963 l 240 0 l 26 0 l 161 963 l 375 963 z "},"Ĳ":{"ha":768,"x_min":26,"x_max":778,"o":"m 375 963 l 240 0 l 26 0 l 161 963 l 375 963 m 663 139 q 599 -47 646 25 q 486 -160 551 -119 q 328 -231 421 -200 l 290 -78 q 404 8 372 -43 q 450 154 436 58 l 564 963 l 778 963 l 663 139 z "},"Í":{"ha":369,"x_min":26,"x_max":485,"o":"m 375 963 l 240 0 l 26 0 l 161 963 l 375 963 m 417 1308 l 485 1154 l 174 1039 l 126 1139 l 417 1308 z "},"Ĭ":{"ha":369,"x_min":26,"x_max":522,"o":"m 375 963 l 240 0 l 26 0 l 161 963 l 375 963 m 281 1043 q 135 1108 183 1043 q 93 1265 86 1172 l 203 1282 q 228 1215 207 1240 q 290 1190 250 1190 q 363 1217 332 1190 q 410 1286 393 1243 l 522 1260 q 440 1104 503 1165 q 281 1043 376 1043 z "},"Ǐ":{"ha":369,"x_min":26,"x_max":543,"o":"m 375 963 l 240 0 l 26 0 l 161 963 l 375 963 m 472 1304 l 543 1219 l 342 1042 l 217 1042 l 61 1225 l 144 1304 l 293 1188 l 472 1304 z "},"Î":{"ha":369,"x_min":26,"x_max":524,"o":"m 375 963 l 240 0 l 26 0 l 161 963 l 375 963 m 114 1050 l 43 1135 l 244 1313 l 369 1313 l 524 1129 l 443 1050 l 293 1168 l 114 1050 z "},"Ȉ":{"ha":369,"x_min":7,"x_max":453,"o":"m 375 963 l 240 0 l 26 0 l 161 963 l 375 963 m 158 1365 l 244 1093 l 129 1044 l 7 1299 l 158 1365 m 378 1365 l 453 1093 l 339 1051 l 226 1303 l 378 1365 z "},"Ï":{"ha":369,"x_min":26,"x_max":547,"o":"m 375 963 l 240 0 l 26 0 l 161 963 l 375 963 m 138 1068 q 67 1094 93 1068 q 42 1160 42 1119 q 76 1245 42 1211 q 160 1279 110 1279 q 230 1253 204 1279 q 256 1188 256 1228 q 222 1102 256 1136 q 138 1068 188 1068 m 429 1068 q 360 1094 386 1068 q 333 1160 333 1119 q 367 1245 333 1211 q 451 1279 401 1279 q 521 1253 494 1279 q 547 1188 547 1228 q 513 1102 547 1136 q 429 1068 479 1068 z "},"Ḯ":{"ha":369,"x_min":26,"x_max":551,"o":"m 375 963 l 240 0 l 26 0 l 161 963 l 375 963 m 428 1511 l 529 1403 l 301 1206 l 229 1274 l 428 1511 m 126 1040 q 58 1065 83 1040 q 32 1132 32 1090 q 67 1217 32 1183 q 151 1251 101 1251 q 220 1226 194 1251 q 246 1158 246 1200 q 211 1074 246 1108 q 126 1040 176 1040 m 433 1040 q 365 1065 390 1040 q 339 1132 339 1090 q 374 1217 339 1183 q 457 1251 408 1251 q 526 1226 500 1251 q 551 1158 551 1200 q 517 1074 551 1108 q 433 1040 483 1040 z "},"İ":{"ha":369,"x_min":26,"x_max":424,"o":"m 375 963 l 240 0 l 26 0 l 161 963 l 375 963 m 289 1056 q 209 1085 239 1056 q 179 1161 179 1114 q 218 1258 179 1219 q 315 1296 257 1296 q 394 1267 365 1296 q 424 1190 424 1238 q 385 1094 424 1132 q 289 1056 346 1056 z "},"Ị":{"ha":369,"x_min":-19,"x_max":375,"o":"m 375 963 l 240 0 l 26 0 l 161 963 l 375 963 m 115 -86 q 195 -115 165 -86 q 225 -192 225 -144 q 186 -288 225 -250 q 89 -326 147 -326 q 10 -297 39 -326 q -19 -221 -19 -268 q 19 -124 -19 -162 q 115 -86 58 -86 z "},"Ì":{"ha":369,"x_min":26,"x_max":476,"o":"m 375 963 l 240 0 l 26 0 l 161 963 l 375 963 m 224 1306 l 476 1136 l 418 1040 l 135 1153 l 224 1306 z "},"Ỉ":{"ha":369,"x_min":26,"x_max":474,"o":"m 375 963 l 240 0 l 26 0 l 161 963 l 375 963 m 236 1185 q 309 1201 285 1188 q 333 1246 333 1215 q 290 1282 333 1282 q 217 1263 256 1282 l 193 1354 q 326 1388 250 1388 q 435 1352 396 1388 q 474 1258 474 1317 q 349 1121 474 1146 l 342 1061 l 222 1061 l 236 1185 z "},"Ȋ":{"ha":369,"x_min":26,"x_max":504,"o":"m 375 963 l 240 0 l 26 0 l 161 963 l 375 963 m 67 1086 q 155 1253 90 1189 q 315 1317 219 1317 q 461 1250 413 1317 q 504 1081 510 1183 l 389 1065 q 301 1171 381 1171 q 178 1060 217 1171 l 67 1086 z "},"Ī":{"ha":369,"x_min":26,"x_max":494,"o":"m 375 963 l 240 0 l 26 0 l 161 963 l 375 963 m 472 1086 l 92 1086 l 114 1233 l 494 1233 l 472 1086 z "},"Į":{"ha":369,"x_min":-128,"x_max":375,"o":"m 375 963 l 240 0 l 192 0 q 24 -160 24 -69 q 81 -207 24 -207 q 156 -199 114 -207 l 126 -328 q 39 -337 89 -337 q -81 -298 -35 -337 q -128 -192 -128 -258 q 29 15 -128 -64 l 161 963 l 375 963 z "},"Ɩ":{"ha":485,"x_min":43,"x_max":451,"o":"m 451 33 q 267 -24 372 -24 q 102 29 161 -24 q 43 183 43 82 q 46 231 43 197 l 53 283 l 149 963 l 361 963 l 267 283 l 257 211 l 256 194 q 308 136 256 136 q 351 142 333 136 q 399 161 369 147 l 451 33 z "},"Ɨ":{"ha":415,"x_min":17,"x_max":436,"o":"m 436 579 l 415 419 l 324 419 l 265 0 l 51 0 l 110 419 l 17 419 l 38 579 l 132 579 l 186 963 l 400 963 l 346 579 l 436 579 z "},"Ĩ":{"ha":369,"x_min":26,"x_max":540,"o":"m 375 963 l 240 0 l 26 0 l 161 963 l 375 963 m 363 1060 q 319 1069 338 1060 q 274 1097 300 1079 q 247 1115 261 1107 q 222 1122 233 1122 q 185 1108 201 1122 q 147 1060 169 1093 l 54 1115 q 135 1228 89 1185 q 233 1272 182 1272 q 280 1263 261 1272 q 324 1235 299 1253 q 374 1210 354 1210 q 408 1224 392 1210 q 446 1269 425 1238 l 540 1217 q 458 1103 504 1146 q 363 1060 411 1060 z "},"J":{"ha":399,"x_min":-79,"x_max":408,"o":"m 293 139 q 229 -47 276 25 q 117 -160 182 -119 q -42 -231 51 -200 l -79 -78 q 35 8 3 -43 q 81 154 67 58 l 194 963 l 408 963 l 293 139 z "},"Ĵ":{"ha":399,"x_min":-79,"x_max":556,"o":"m 293 139 q 229 -47 276 25 q 117 -160 182 -119 q -42 -231 51 -200 l -79 -78 q 35 8 3 -43 q 81 154 67 58 l 194 963 l 408 963 l 293 139 m 146 1050 l 75 1135 l 276 1313 l 401 1313 l 556 1129 l 475 1050 l 325 1168 l 146 1050 z "},"Ʝ":{"ha":461,"x_min":-168,"x_max":467,"o":"m 332 -12 q 446 -65 379 -26 l 396 -151 q 308 -114 361 -133 q 206 -259 275 -211 q 22 -307 138 -307 q -119 -266 -69 -307 q -168 -151 -168 -225 q -107 -19 -168 -67 q 46 29 -46 29 q 122 25 97 29 l 254 963 l 467 963 l 333 -3 l 332 -12 m 13 -196 q 75 -168 54 -196 q 108 -76 96 -140 q 44 -74 75 -74 q -16 -93 6 -74 q -37 -144 -37 -112 q -25 -183 -37 -169 q 13 -196 -12 -196 z "},"Ɉ":{"ha":419,"x_min":-79,"x_max":440,"o":"m 419 394 l 329 394 l 293 139 q 229 -47 276 25 q 117 -160 182 -119 q -42 -231 51 -200 l -79 -78 q 35 8 3 -43 q 81 154 67 58 l 114 394 l 21 394 l 42 558 l 138 558 l 194 963 l 408 963 l 351 558 l 440 558 l 419 394 z "},"K":{"ha":797,"x_min":26,"x_max":868,"o":"m 26 0 l 161 963 l 375 963 l 240 0 l 26 0 m 518 0 l 319 514 l 646 963 l 868 963 l 539 517 l 756 0 l 518 0 z "},"Ǩ":{"ha":797,"x_min":26,"x_max":868,"o":"m 26 0 l 161 963 l 375 963 l 240 0 l 26 0 m 518 0 l 319 514 l 646 963 l 868 963 l 539 517 l 756 0 l 518 0 m 697 1304 l 768 1219 l 567 1042 l 442 1042 l 286 1225 l 369 1304 l 518 1188 l 697 1304 z "},"Ķ":{"ha":797,"x_min":26,"x_max":868,"o":"m 26 0 l 161 963 l 375 963 l 240 0 l 26 0 m 518 0 l 319 514 l 646 963 l 868 963 l 539 517 l 756 0 l 518 0 m 343 -96 q 413 -122 386 -96 q 439 -187 439 -149 q 428 -244 439 -218 q 388 -321 417 -269 l 311 -447 l 210 -447 l 269 -283 q 233 -212 233 -258 q 265 -128 233 -161 q 343 -96 296 -96 z "},"Ƙ":{"ha":824,"x_min":26,"x_max":913,"o":"m 319 514 l 540 839 q 644 952 594 919 q 769 985 694 985 q 852 970 818 985 q 913 931 886 956 l 838 813 q 789 829 814 829 q 749 817 767 829 q 707 769 732 804 l 540 518 l 756 0 l 517 0 l 319 514 m 26 0 l 161 963 l 375 963 l 240 0 l 26 0 z "},"L":{"ha":633,"x_min":26,"x_max":596,"o":"m 375 963 l 264 172 l 596 172 l 549 0 l 26 0 l 161 963 l 375 963 z "},"Ǉ":{"ha":1000,"x_min":26,"x_max":1010,"o":"m 375 963 l 264 172 l 596 172 l 549 0 l 26 0 l 161 963 l 375 963 m 894 139 q 831 -47 878 25 q 718 -160 783 -119 q 560 -231 653 -200 l 522 -78 q 636 8 604 -43 q 682 154 668 58 l 796 963 l 1010 963 l 894 139 z "},"Ĺ":{"ha":633,"x_min":26,"x_max":596,"o":"m 375 963 l 264 172 l 596 172 l 549 0 l 26 0 l 161 963 l 375 963 m 417 1308 l 485 1154 l 174 1039 l 126 1139 l 417 1308 z "},"Ƚ":{"ha":653,"x_min":18,"x_max":615,"o":"m 283 172 l 615 172 l 568 0 l 46 0 l 106 422 l 18 422 l 39 586 l 128 586 l 181 963 l 394 963 l 342 586 l 438 586 l 417 422 l 318 422 l 283 172 z "},"Ɬ":{"ha":768,"x_min":24,"x_max":731,"o":"m 731 172 l 683 0 l 161 0 l 210 351 q 71 397 118 354 q 24 514 24 440 q 75 642 24 594 q 207 690 126 690 q 257 685 240 690 l 296 963 l 510 963 l 442 476 q 546 486 499 481 l 574 490 l 578 375 q 425 356 486 358 l 399 172 l 731 172 m 163 522 q 228 474 163 474 l 242 575 q 213 579 229 579 q 176 564 189 579 q 163 522 163 549 z "},"Ľ":{"ha":633,"x_min":26,"x_max":597,"o":"m 375 963 l 264 172 l 596 172 l 549 0 l 26 0 l 161 963 l 375 963 m 447 981 l 597 961 l 496 668 l 392 679 l 447 981 z "},"Ḽ":{"ha":633,"x_min":7,"x_max":596,"o":"m 375 963 l 264 172 l 596 172 l 549 0 l 26 0 l 161 963 l 375 963 m 76 -360 l 7 -275 l 210 -89 l 335 -89 l 489 -281 l 403 -360 l 257 -233 l 76 -360 z "},"Ļ":{"ha":633,"x_min":26,"x_max":596,"o":"m 375 963 l 264 172 l 596 172 l 549 0 l 26 0 l 161 963 l 375 963 m 276 -96 q 346 -122 319 -96 q 372 -187 372 -149 q 361 -244 372 -218 q 321 -321 350 -269 l 244 -447 l 143 -447 l 203 -283 q 167 -212 167 -258 q 198 -128 167 -161 q 276 -96 229 -96 z "},"Ŀ":{"ha":633,"x_min":26,"x_max":642,"o":"m 375 963 l 264 172 l 596 172 l 549 0 l 26 0 l 161 963 l 375 963 m 507 429 q 427 458 457 429 q 397 535 397 488 q 436 631 397 593 q 533 669 475 669 q 613 640 583 669 q 642 564 642 611 q 603 467 642 506 q 507 429 564 429 z "},"Ḷ":{"ha":633,"x_min":26,"x_max":596,"o":"m 375 963 l 264 172 l 596 172 l 549 0 l 26 0 l 161 963 l 375 963 m 271 -86 q 351 -115 321 -86 q 381 -192 381 -144 q 342 -288 381 -250 q 244 -326 303 -326 q 165 -297 194 -326 q 136 -221 136 -268 q 175 -124 136 -162 q 271 -86 214 -86 z "},"ǈ":{"ha":964,"x_min":26,"x_max":1000,"o":"m 375 963 l 264 172 l 596 172 l 549 0 l 26 0 l 161 963 l 375 963 m 478 -156 q 562 -108 529 -133 q 615 -41 594 -83 q 644 69 635 1 l 738 738 l 943 738 l 850 74 q 790 -115 833 -43 q 683 -229 746 -187 q 526 -307 621 -271 l 478 -156 m 865 881 q 785 910 815 881 q 756 986 756 939 q 794 1083 756 1044 q 892 1121 833 1121 q 971 1092 942 1121 q 1000 1015 1000 1063 q 961 919 1000 957 q 865 881 922 881 z "},"Ł":{"ha":681,"x_min":10,"x_max":643,"o":"m 311 172 l 643 172 l 596 0 l 74 0 l 118 315 l 64 282 l 10 392 l 140 472 l 208 963 l 422 963 l 374 617 l 539 719 l 594 610 l 351 460 l 311 172 z "},"M":{"ha":988,"x_min":-8,"x_max":961,"o":"m 890 0 l 683 0 l 721 382 q 775 792 736 556 l 557 103 l 353 103 l 311 789 q 263 376 297 578 l 200 0 l -8 0 l 190 963 l 450 963 l 481 290 l 683 963 l 961 963 l 890 0 z "},"Ḿ":{"ha":988,"x_min":-8,"x_max":961,"o":"m 890 0 l 683 0 l 721 382 q 775 792 736 556 l 557 103 l 353 103 l 311 789 q 263 376 297 578 l 200 0 l -8 0 l 190 963 l 450 963 l 481 290 l 683 963 l 961 963 l 890 0 m 715 1308 l 783 1154 l 472 1039 l 425 1139 l 715 1308 z "},"Ṁ":{"ha":988,"x_min":-8,"x_max":961,"o":"m 890 0 l 683 0 l 721 382 q 775 792 736 556 l 557 103 l 353 103 l 311 789 q 263 376 297 578 l 200 0 l -8 0 l 190 963 l 450 963 l 481 290 l 683 963 l 961 963 l 890 0 m 588 1056 q 508 1085 538 1056 q 478 1161 478 1114 q 517 1258 478 1219 q 614 1296 556 1296 q 693 1267 664 1296 q 722 1190 722 1238 q 683 1094 722 1132 q 588 1056 644 1056 z "},"Ɯ":{"ha":1131,"x_min":40,"x_max":1135,"o":"m 1135 963 l 1000 0 l 813 0 l 810 89 q 712 4 760 31 q 607 -22 664 -22 q 502 10 544 -22 q 442 97 460 42 q 221 -22 344 -22 q 88 35 135 -22 q 40 182 40 92 q 44 232 40 207 l 149 963 l 363 963 l 260 236 q 258 208 258 226 q 272 158 258 176 q 311 140 285 140 q 371 163 343 140 q 432 233 399 185 l 432 235 l 535 963 l 749 963 l 647 239 q 646 211 646 229 q 659 158 646 176 q 697 140 672 140 q 758 163 729 140 q 819 238 786 186 l 921 963 l 1135 963 z "},"N":{"ha":821,"x_min":26,"x_max":826,"o":"m 692 0 l 428 0 l 283 782 q 285 686 285 750 q 263 353 285 521 l 215 0 l 26 0 l 161 963 l 424 963 l 568 181 q 567 297 567 222 q 585 569 567 431 l 638 963 l 826 963 l 692 0 z "},"Ǌ":{"ha":1219,"x_min":26,"x_max":1229,"o":"m 692 0 l 428 0 l 283 782 q 285 686 285 750 q 263 353 285 521 l 215 0 l 26 0 l 161 963 l 424 963 l 568 181 q 567 297 567 222 q 585 569 567 431 l 638 963 l 826 963 l 692 0 m 1114 139 q 1050 -47 1097 25 q 938 -160 1003 -119 q 779 -231 872 -200 l 742 -78 q 856 8 824 -43 q 901 154 888 58 l 1015 963 l 1229 963 l 1114 139 z "},"Ń":{"ha":821,"x_min":26,"x_max":826,"o":"m 692 0 l 428 0 l 283 782 q 285 686 285 750 q 263 353 285 521 l 215 0 l 26 0 l 161 963 l 424 963 l 568 181 q 567 297 567 222 q 585 569 567 431 l 638 963 l 826 963 l 692 0 m 646 1308 l 714 1154 l 403 1039 l 356 1139 l 646 1308 z "},"Ň":{"ha":821,"x_min":26,"x_max":826,"o":"m 692 0 l 428 0 l 283 782 q 285 686 285 750 q 263 353 285 521 l 215 0 l 26 0 l 161 963 l 424 963 l 568 181 q 567 297 567 222 q 585 569 567 431 l 638 963 l 826 963 l 692 0 m 701 1304 l 772 1219 l 571 1042 l 446 1042 l 290 1225 l 374 1304 l 522 1188 l 701 1304 z "},"Ṋ":{"ha":821,"x_min":26,"x_max":826,"o":"m 692 0 l 428 0 l 283 782 q 285 686 285 750 q 263 353 285 521 l 215 0 l 26 0 l 161 963 l 424 963 l 568 181 q 567 297 567 222 q 585 569 567 431 l 638 963 l 826 963 l 692 0 m 149 -360 l 79 -275 l 282 -89 l 407 -89 l 561 -281 l 475 -360 l 329 -233 l 149 -360 z "},"Ņ":{"ha":821,"x_min":26,"x_max":826,"o":"m 692 0 l 428 0 l 283 782 q 285 686 285 750 q 263 353 285 521 l 215 0 l 26 0 l 161 963 l 424 963 l 568 181 q 567 297 567 222 q 585 569 567 431 l 638 963 l 826 963 l 692 0 m 349 -96 q 418 -122 392 -96 q 444 -187 444 -149 q 433 -244 444 -218 q 393 -321 422 -269 l 317 -447 l 215 -447 l 275 -283 q 239 -212 239 -258 q 270 -128 239 -161 q 349 -96 301 -96 z "},"Ṅ":{"ha":821,"x_min":26,"x_max":826,"o":"m 692 0 l 428 0 l 283 782 q 285 686 285 750 q 263 353 285 521 l 215 0 l 26 0 l 161 963 l 424 963 l 568 181 q 567 297 567 222 q 585 569 567 431 l 638 963 l 826 963 l 692 0 m 518 1056 q 438 1085 468 1056 q 408 1161 408 1114 q 447 1258 408 1219 q 544 1296 486 1296 q 624 1267 594 1296 q 653 1190 653 1238 q 614 1094 653 1132 q 518 1056 575 1056 z "},"Ṇ":{"ha":821,"x_min":26,"x_max":826,"o":"m 692 0 l 428 0 l 283 782 q 285 686 285 750 q 263 353 285 521 l 215 0 l 26 0 l 161 963 l 424 963 l 568 181 q 567 297 567 222 q 585 569 567 431 l 638 963 l 826 963 l 692 0 m 343 -86 q 423 -115 393 -86 q 453 -192 453 -144 q 414 -288 453 -250 q 317 -326 375 -326 q 238 -297 267 -326 q 208 -221 208 -268 q 247 -124 208 -162 q 343 -86 286 -86 z "},"Ǹ":{"ha":821,"x_min":26,"x_max":826,"o":"m 692 0 l 428 0 l 283 782 q 285 686 285 750 q 263 353 285 521 l 215 0 l 26 0 l 161 963 l 424 963 l 568 181 q 567 297 567 222 q 585 569 567 431 l 638 963 l 826 963 l 692 0 m 453 1306 l 706 1136 l 647 1040 l 364 1153 l 453 1306 z "},"Ŋ":{"ha":821,"x_min":26,"x_max":826,"o":"m 826 963 l 692 0 l 690 0 l 682 -58 q 588 -244 664 -181 q 397 -307 513 -307 q 222 -247 290 -307 l 308 -122 q 348 -142 332 -136 q 386 -147 364 -147 q 441 -126 419 -147 q 468 -67 463 -106 l 476 0 l 428 0 l 283 782 q 285 686 285 750 q 263 353 285 521 l 215 0 l 26 0 l 161 963 l 424 963 l 568 181 q 567 297 567 222 q 585 569 567 431 l 638 963 l 826 963 z "},"Ɲ":{"ha":821,"x_min":-229,"x_max":826,"o":"m 826 963 l 692 0 l 428 0 l 283 782 q 285 686 285 750 q 263 353 285 521 l 215 0 l 206 -65 q 119 -245 188 -183 q -56 -307 51 -307 q -229 -246 -157 -307 l -142 -129 q -103 -148 -121 -142 q -62 -154 -86 -154 q -8 -132 -29 -154 q 18 -67 13 -110 l 26 0 l 161 963 l 424 963 l 568 181 q 567 297 567 222 q 585 569 567 431 l 638 963 l 826 963 z "},"ǋ":{"ha":1172,"x_min":26,"x_max":1208,"o":"m 692 0 l 428 0 l 283 782 q 285 686 285 750 q 263 353 285 521 l 215 0 l 26 0 l 161 963 l 424 963 l 568 181 q 567 297 567 222 q 585 569 567 431 l 638 963 l 826 963 l 692 0 m 686 -156 q 770 -108 738 -133 q 823 -41 803 -83 q 853 69 843 1 l 946 738 l 1151 738 l 1058 74 q 998 -115 1042 -43 q 892 -229 954 -187 q 735 -307 829 -271 l 686 -156 m 1074 881 q 994 910 1024 881 q 964 986 964 939 q 1003 1083 964 1044 q 1100 1121 1042 1121 q 1179 1092 1150 1121 q 1208 1015 1208 1063 q 1169 919 1208 957 q 1074 881 1131 881 z "},"Ƞ":{"ha":810,"x_min":26,"x_max":790,"o":"m 592 986 q 739 929 688 986 q 790 779 790 872 q 788 732 790 749 l 646 -292 l 433 -292 l 572 713 q 575 744 575 735 q 506 822 575 822 q 428 801 467 822 q 343 736 389 779 l 239 0 l 26 0 l 161 963 l 347 963 l 350 879 q 466 959 407 932 q 592 986 525 986 z "},"Ñ":{"ha":821,"x_min":26,"x_max":826,"o":"m 692 0 l 428 0 l 283 782 q 285 686 285 750 q 263 353 285 521 l 215 0 l 26 0 l 161 963 l 424 963 l 568 181 q 567 297 567 222 q 585 569 567 431 l 638 963 l 826 963 l 692 0 m 592 1060 q 548 1069 567 1060 q 503 1097 529 1079 q 476 1115 490 1107 q 451 1122 463 1122 q 415 1108 431 1122 q 376 1060 399 1093 l 283 1115 q 365 1228 318 1185 q 463 1272 411 1272 q 509 1263 490 1272 q 553 1235 528 1253 q 603 1210 583 1210 q 638 1224 621 1210 q 675 1269 654 1238 l 769 1217 q 687 1103 733 1146 q 592 1060 640 1060 z "},"O":{"ha":867,"x_min":50,"x_max":849,"o":"m 518 986 q 763 889 676 986 q 849 610 849 792 q 800 307 849 451 q 647 69 751 163 q 381 -24 542 -24 q 136 73 222 -24 q 50 351 50 169 q 99 653 50 508 q 252 892 147 799 q 518 986 357 986 m 504 825 q 367 742 419 825 q 292 544 314 660 q 269 324 269 428 q 301 181 269 225 q 394 138 332 138 q 533 219 481 138 q 608 417 586 301 q 629 639 629 532 q 598 781 629 736 q 504 825 567 825 z "},"Ȣ":{"ha":813,"x_min":31,"x_max":806,"o":"m 775 744 q 624 547 756 606 q 763 340 763 489 q 710 153 763 235 q 566 24 658 71 q 357 -22 474 -22 q 181 15 256 -22 q 69 115 107 51 q 31 257 31 178 q 86 436 31 363 q 240 547 142 510 q 143 707 143 596 q 146 749 143 718 l 174 963 l 389 963 l 357 736 q 354 699 354 722 q 375 637 354 657 q 440 617 396 617 q 524 649 496 617 q 560 740 551 682 l 592 963 l 806 963 l 775 744 m 374 138 q 494 191 450 138 q 539 335 539 244 q 510 428 539 396 q 421 461 481 461 q 300 407 346 461 q 254 264 254 353 q 284 170 254 203 q 374 138 314 138 z "},"Ó":{"ha":867,"x_min":50,"x_max":849,"o":"m 518 986 q 763 889 676 986 q 849 610 849 792 q 800 307 849 451 q 647 69 751 163 q 381 -24 542 -24 q 136 73 222 -24 q 50 351 50 169 q 99 653 50 508 q 252 892 147 799 q 518 986 357 986 m 504 825 q 367 742 419 825 q 292 544 314 660 q 269 324 269 428 q 301 181 269 225 q 394 138 332 138 q 533 219 481 138 q 608 417 586 301 q 629 639 629 532 q 598 781 629 736 q 504 825 567 825 m 667 1308 l 735 1154 l 424 1039 l 376 1139 l 667 1308 z "},"Ŏ":{"ha":867,"x_min":50,"x_max":849,"o":"m 518 986 q 763 889 676 986 q 849 610 849 792 q 800 307 849 451 q 647 69 751 163 q 381 -24 542 -24 q 136 73 222 -24 q 50 351 50 169 q 99 653 50 508 q 252 892 147 799 q 518 986 357 986 m 504 825 q 367 742 419 825 q 292 544 314 660 q 269 324 269 428 q 301 181 269 225 q 394 138 332 138 q 533 219 481 138 q 608 417 586 301 q 629 639 629 532 q 598 781 629 736 q 504 825 567 825 m 531 1043 q 385 1108 433 1043 q 343 1265 336 1172 l 453 1282 q 478 1215 457 1240 q 540 1190 500 1190 q 613 1217 582 1190 q 660 1286 643 1243 l 772 1260 q 690 1104 753 1165 q 531 1043 626 1043 z "},"Ǒ":{"ha":867,"x_min":50,"x_max":849,"o":"m 518 986 q 763 889 676 986 q 849 610 849 792 q 800 307 849 451 q 647 69 751 163 q 381 -24 542 -24 q 136 73 222 -24 q 50 351 50 169 q 99 653 50 508 q 252 892 147 799 q 518 986 357 986 m 504 825 q 367 742 419 825 q 292 544 314 660 q 269 324 269 428 q 301 181 269 225 q 394 138 332 138 q 533 219 481 138 q 608 417 586 301 q 629 639 629 532 q 598 781 629 736 q 504 825 567 825 m 722 1304 l 793 1219 l 592 1042 l 467 1042 l 311 1225 l 394 1304 l 543 1188 l 722 1304 z "},"Ɵ":{"ha":867,"x_min":50,"x_max":849,"o":"m 518 986 q 763 889 676 986 q 849 610 849 792 q 800 307 849 451 q 647 69 751 163 q 381 -24 542 -24 q 136 73 222 -24 q 50 351 50 169 q 98 654 50 510 q 251 892 146 799 q 518 986 357 986 m 508 829 q 366 751 421 829 q 283 550 311 674 l 635 550 q 639 638 639 599 q 607 783 639 738 q 508 829 575 829 m 390 133 q 538 215 482 133 q 618 425 593 297 l 265 425 q 260 324 260 376 q 292 178 260 222 q 390 133 324 133 z "},"Ô":{"ha":867,"x_min":50,"x_max":849,"o":"m 518 986 q 763 889 676 986 q 849 610 849 792 q 800 307 849 451 q 647 69 751 163 q 381 -24 542 -24 q 136 73 222 -24 q 50 351 50 169 q 99 653 50 508 q 252 892 147 799 q 518 986 357 986 m 504 825 q 367 742 419 825 q 292 544 314 660 q 269 324 269 428 q 301 181 269 225 q 394 138 332 138 q 533 219 481 138 q 608 417 586 301 q 629 639 629 532 q 598 781 629 736 q 504 825 567 825 m 364 1050 l 293 1135 l 494 1313 l 619 1313 l 774 1129 l 693 1050 l 543 1168 l 364 1050 z "},"Ố":{"ha":867,"x_min":50,"x_max":968,"o":"m 867 1508 l 968 1400 l 740 1203 l 668 1271 l 867 1508 m 358 1003 l 288 1088 l 489 1265 l 614 1265 l 768 1082 l 688 1003 l 538 1121 l 358 1003 m 518 986 q 763 889 676 986 q 849 610 849 792 q 800 307 849 451 q 647 69 751 163 q 381 -24 542 -24 q 136 73 222 -24 q 50 351 50 169 q 99 653 50 508 q 252 892 147 799 q 518 986 357 986 m 504 825 q 367 742 419 825 q 292 544 314 660 q 269 324 269 428 q 301 181 269 225 q 394 138 332 138 q 533 219 481 138 q 608 417 586 301 q 629 639 629 532 q 598 781 629 736 q 504 825 567 825 z "},"Ộ":{"ha":867,"x_min":50,"x_max":849,"o":"m 518 986 q 763 889 676 986 q 849 610 849 792 q 800 307 849 451 q 647 69 751 163 q 381 -24 542 -24 q 136 73 222 -24 q 50 351 50 169 q 99 653 50 508 q 252 892 147 799 q 518 986 357 986 m 504 825 q 367 742 419 825 q 292 544 314 660 q 269 324 269 428 q 301 181 269 225 q 394 138 332 138 q 533 219 481 138 q 608 417 586 301 q 629 639 629 532 q 598 781 629 736 q 504 825 567 825 m 364 1050 l 293 1135 l 494 1313 l 619 1313 l 774 1129 l 693 1050 l 543 1168 l 364 1050 m 364 -86 q 444 -115 414 -86 q 474 -192 474 -144 q 435 -288 474 -250 q 338 -326 396 -326 q 258 -297 288 -326 q 229 -221 229 -268 q 268 -124 229 -162 q 364 -86 307 -86 z "},"Ồ":{"ha":867,"x_min":50,"x_max":849,"o":"m 296 1504 l 429 1264 l 344 1203 l 171 1408 l 296 1504 m 358 1003 l 288 1088 l 489 1265 l 614 1265 l 768 1082 l 688 1003 l 538 1121 l 358 1003 m 518 986 q 763 889 676 986 q 849 610 849 792 q 800 307 849 451 q 647 69 751 163 q 381 -24 542 -24 q 136 73 222 -24 q 50 351 50 169 q 99 653 50 508 q 252 892 147 799 q 518 986 357 986 m 504 825 q 367 742 419 825 q 292 544 314 660 q 269 324 269 428 q 301 181 269 225 q 394 138 332 138 q 533 219 481 138 q 608 417 586 301 q 629 639 629 532 q 598 781 629 736 q 504 825 567 825 z "},"Ổ":{"ha":867,"x_min":50,"x_max":944,"o":"m 518 986 q 763 889 676 986 q 849 610 849 792 q 800 307 849 451 q 647 69 751 163 q 381 -24 542 -24 q 136 73 222 -24 q 50 351 50 169 q 99 653 50 508 q 252 892 147 799 q 518 986 357 986 m 504 825 q 367 742 419 825 q 292 544 314 660 q 269 324 269 428 q 301 181 269 225 q 394 138 332 138 q 533 219 481 138 q 608 417 586 301 q 629 639 629 532 q 598 781 629 736 q 504 825 567 825 m 356 1003 l 285 1088 l 486 1265 l 611 1265 l 765 1082 l 685 1003 l 535 1121 l 356 1003 m 707 1308 q 780 1325 756 1311 q 804 1369 804 1339 q 761 1406 804 1406 q 688 1386 726 1406 l 664 1478 q 797 1511 721 1511 q 906 1476 867 1511 q 944 1382 944 1440 q 819 1244 944 1269 l 813 1185 l 693 1185 l 707 1308 z "},"Ỗ":{"ha":867,"x_min":50,"x_max":849,"o":"m 639 1303 q 595 1312 615 1303 q 551 1338 575 1321 q 526 1354 539 1347 q 501 1361 513 1361 q 465 1347 481 1361 q 426 1303 449 1333 l 335 1354 q 415 1462 369 1421 q 511 1503 461 1503 q 558 1493 539 1503 q 601 1467 578 1483 q 628 1449 617 1454 q 650 1443 639 1443 q 685 1456 669 1443 q 722 1500 701 1469 l 815 1450 q 733 1343 779 1383 q 639 1303 688 1303 m 357 1003 l 286 1088 l 488 1265 l 613 1265 l 767 1082 l 686 1003 l 536 1121 l 357 1003 m 518 986 q 763 889 676 986 q 849 610 849 792 q 800 307 849 451 q 647 69 751 163 q 381 -24 542 -24 q 136 73 222 -24 q 50 351 50 169 q 99 653 50 508 q 252 892 147 799 q 518 986 357 986 m 504 825 q 367 742 419 825 q 292 544 314 660 q 269 324 269 428 q 301 181 269 225 q 394 138 332 138 q 533 219 481 138 q 608 417 586 301 q 629 639 629 532 q 598 781 629 736 q 504 825 567 825 z "},"Ȍ":{"ha":867,"x_min":50,"x_max":849,"o":"m 518 986 q 763 889 676 986 q 849 610 849 792 q 800 307 849 451 q 647 69 751 163 q 381 -24 542 -24 q 136 73 222 -24 q 50 351 50 169 q 99 653 50 508 q 252 892 147 799 q 518 986 357 986 m 504 825 q 367 742 419 825 q 292 544 314 660 q 269 324 269 428 q 301 181 269 225 q 394 138 332 138 q 533 219 481 138 q 608 417 586 301 q 629 639 629 532 q 598 781 629 736 q 504 825 567 825 m 408 1365 l 494 1093 l 379 1044 l 257 1299 l 408 1365 m 628 1365 l 703 1093 l 589 1051 l 476 1303 l 628 1365 z "},"Ö":{"ha":867,"x_min":50,"x_max":849,"o":"m 518 986 q 763 889 676 986 q 849 610 849 792 q 800 307 849 451 q 647 69 751 163 q 381 -24 542 -24 q 136 73 222 -24 q 50 351 50 169 q 99 653 50 508 q 252 892 147 799 q 518 986 357 986 m 504 825 q 367 742 419 825 q 292 544 314 660 q 269 324 269 428 q 301 181 269 225 q 394 138 332 138 q 533 219 481 138 q 608 417 586 301 q 629 639 629 532 q 598 781 629 736 q 504 825 567 825 m 388 1068 q 317 1094 343 1068 q 292 1160 292 1119 q 326 1245 292 1211 q 410 1279 360 1279 q 480 1253 454 1279 q 506 1188 506 1228 q 472 1102 506 1136 q 388 1068 438 1068 m 679 1068 q 610 1094 636 1068 q 583 1160 583 1119 q 617 1245 583 1211 q 701 1279 651 1279 q 771 1253 744 1279 q 797 1188 797 1228 q 763 1102 797 1136 q 679 1068 729 1068 z "},"Ȫ":{"ha":867,"x_min":50,"x_max":849,"o":"m 518 986 q 763 889 676 986 q 849 610 849 792 q 800 307 849 451 q 647 69 751 163 q 381 -24 542 -24 q 136 73 222 -24 q 50 351 50 169 q 99 653 50 508 q 252 892 147 799 q 518 986 357 986 m 504 825 q 367 742 419 825 q 292 544 314 660 q 269 324 269 428 q 301 181 269 225 q 394 138 332 138 q 533 219 481 138 q 608 417 586 301 q 629 639 629 532 q 598 781 629 736 q 504 825 567 825 m 381 1036 q 310 1062 336 1036 q 285 1128 285 1088 q 319 1213 285 1179 q 403 1247 353 1247 q 473 1222 447 1247 q 499 1156 499 1196 q 465 1070 499 1104 q 381 1036 431 1036 m 672 1036 q 603 1062 629 1036 q 576 1128 576 1088 q 610 1213 576 1179 q 694 1247 644 1247 q 764 1222 738 1247 q 790 1156 790 1196 q 756 1070 790 1104 q 672 1036 722 1036 m 744 1303 l 364 1303 l 386 1450 l 767 1450 l 744 1303 z "},"Ȯ":{"ha":867,"x_min":50,"x_max":849,"o":"m 518 986 q 763 889 676 986 q 849 610 849 792 q 800 307 849 451 q 647 69 751 163 q 381 -24 542 -24 q 136 73 222 -24 q 50 351 50 169 q 99 653 50 508 q 252 892 147 799 q 518 986 357 986 m 504 825 q 367 742 419 825 q 292 544 314 660 q 269 324 269 428 q 301 181 269 225 q 394 138 332 138 q 533 219 481 138 q 608 417 586 301 q 629 639 629 532 q 598 781 629 736 q 504 825 567 825 m 539 1056 q 459 1085 489 1056 q 429 1161 429 1114 q 468 1258 429 1219 q 565 1296 507 1296 q 644 1267 615 1296 q 674 1190 674 1238 q 635 1094 674 1132 q 539 1056 596 1056 z "},"Ȱ":{"ha":867,"x_min":50,"x_max":849,"o":"m 518 986 q 763 889 676 986 q 849 610 849 792 q 800 307 849 451 q 647 69 751 163 q 381 -24 542 -24 q 136 73 222 -24 q 50 351 50 169 q 99 653 50 508 q 252 892 147 799 q 518 986 357 986 m 504 825 q 367 742 419 825 q 292 544 314 660 q 269 324 269 428 q 301 181 269 225 q 394 138 332 138 q 533 219 481 138 q 608 417 586 301 q 629 639 629 532 q 598 781 629 736 q 504 825 567 825 m 526 1024 q 447 1053 476 1024 q 417 1129 417 1082 q 456 1226 417 1188 q 553 1264 494 1264 q 632 1235 603 1264 q 661 1158 661 1206 q 622 1062 661 1100 q 526 1024 583 1024 m 751 1304 l 371 1304 l 393 1451 l 774 1451 l 751 1304 z "},"Ọ":{"ha":867,"x_min":50,"x_max":849,"o":"m 518 986 q 763 889 676 986 q 849 610 849 792 q 800 307 849 451 q 647 69 751 163 q 381 -24 542 -24 q 136 73 222 -24 q 50 351 50 169 q 99 653 50 508 q 252 892 147 799 q 518 986 357 986 m 504 825 q 367 742 419 825 q 292 544 314 660 q 269 324 269 428 q 301 181 269 225 q 394 138 332 138 q 533 219 481 138 q 608 417 586 301 q 629 639 629 532 q 598 781 629 736 q 504 825 567 825 m 364 -86 q 444 -115 414 -86 q 474 -192 474 -144 q 435 -288 474 -250 q 338 -326 396 -326 q 258 -297 288 -326 q 229 -221 229 -268 q 268 -124 229 -162 q 364 -86 307 -86 z "},"Ò":{"ha":867,"x_min":50,"x_max":849,"o":"m 518 986 q 763 889 676 986 q 849 610 849 792 q 800 307 849 451 q 647 69 751 163 q 381 -24 542 -24 q 136 73 222 -24 q 50 351 50 169 q 99 653 50 508 q 252 892 147 799 q 518 986 357 986 m 504 825 q 367 742 419 825 q 292 544 314 660 q 269 324 269 428 q 301 181 269 225 q 394 138 332 138 q 533 219 481 138 q 608 417 586 301 q 629 639 629 532 q 598 781 629 736 q 504 825 567 825 m 474 1306 l 726 1136 l 668 1040 l 385 1153 l 474 1306 z "},"Ỏ":{"ha":867,"x_min":50,"x_max":849,"o":"m 518 986 q 763 889 676 986 q 849 610 849 792 q 800 307 849 451 q 647 69 751 163 q 381 -24 542 -24 q 136 73 222 -24 q 50 351 50 169 q 99 653 50 508 q 252 892 147 799 q 518 986 357 986 m 504 825 q 367 742 419 825 q 292 544 314 660 q 269 324 269 428 q 301 181 269 225 q 394 138 332 138 q 533 219 481 138 q 608 417 586 301 q 629 639 629 532 q 598 781 629 736 q 504 825 567 825 m 486 1185 q 559 1201 535 1188 q 583 1246 583 1215 q 540 1282 583 1282 q 467 1263 506 1282 l 443 1354 q 576 1388 500 1388 q 685 1352 646 1388 q 724 1258 724 1317 q 599 1121 724 1146 l 592 1061 l 472 1061 l 486 1185 z "},"Ơ":{"ha":907,"x_min":50,"x_max":979,"o":"m 979 992 q 939 852 979 904 q 822 785 899 800 q 849 610 849 714 q 800 307 849 451 q 647 69 751 163 q 381 -24 542 -24 q 136 73 222 -24 q 50 351 50 169 q 99 653 50 508 q 252 892 147 799 q 518 986 357 986 q 768 882 683 986 q 824 915 807 888 q 840 990 840 942 q 835 1054 840 1031 l 969 1072 q 979 992 979 1036 m 394 138 q 533 219 481 138 q 608 417 586 301 q 629 639 629 532 q 598 781 629 736 q 504 825 567 825 q 367 742 419 825 q 292 544 314 660 q 269 324 269 428 q 301 181 269 225 q 394 138 332 138 z "},"Ớ":{"ha":907,"x_min":50,"x_max":979,"o":"m 735 1154 l 424 1039 l 376 1139 l 667 1308 l 735 1154 m 979 992 q 939 852 979 904 q 822 785 899 800 q 849 610 849 714 q 800 307 849 451 q 647 69 751 163 q 381 -24 542 -24 q 136 73 222 -24 q 50 351 50 169 q 99 653 50 508 q 252 892 147 799 q 518 986 357 986 q 768 882 683 986 q 824 915 807 888 q 840 990 840 942 q 835 1054 840 1031 l 969 1072 q 979 992 979 1036 m 394 138 q 533 219 481 138 q 608 417 586 301 q 629 639 629 532 q 598 781 629 736 q 504 825 567 825 q 367 742 419 825 q 292 544 314 660 q 269 324 269 428 q 301 181 269 225 q 394 138 332 138 z "},"Ợ":{"ha":907,"x_min":50,"x_max":979,"o":"m 979 992 q 939 852 979 904 q 822 785 899 800 q 849 610 849 714 q 800 307 849 451 q 647 69 751 163 q 381 -24 542 -24 q 136 73 222 -24 q 50 351 50 169 q 99 653 50 508 q 252 892 147 799 q 518 986 357 986 q 768 882 683 986 q 824 915 807 888 q 840 990 840 942 q 835 1054 840 1031 l 969 1072 q 979 992 979 1036 m 394 138 q 533 219 481 138 q 608 417 586 301 q 629 639 629 532 q 598 781 629 736 q 504 825 567 825 q 367 742 419 825 q 292 544 314 660 q 269 324 269 428 q 301 181 269 225 q 394 138 332 138 m 364 -86 q 444 -115 414 -86 q 474 -192 474 -144 q 435 -288 474 -250 q 338 -326 396 -326 q 258 -297 288 -326 q 229 -221 229 -268 q 268 -124 229 -162 q 364 -86 307 -86 z "},"Ờ":{"ha":907,"x_min":50,"x_max":979,"o":"m 726 1136 l 668 1040 l 385 1153 l 474 1306 l 726 1136 m 979 992 q 939 852 979 904 q 822 785 899 800 q 849 610 849 714 q 800 307 849 451 q 647 69 751 163 q 381 -24 542 -24 q 136 73 222 -24 q 50 351 50 169 q 99 653 50 508 q 252 892 147 799 q 518 986 357 986 q 768 882 683 986 q 824 915 807 888 q 840 990 840 942 q 835 1054 840 1031 l 969 1072 q 979 992 979 1036 m 394 138 q 533 219 481 138 q 608 417 586 301 q 629 639 629 532 q 598 781 629 736 q 504 825 567 825 q 367 742 419 825 q 292 544 314 660 q 269 324 269 428 q 301 181 269 225 q 394 138 332 138 z "},"Ở":{"ha":907,"x_min":50,"x_max":979,"o":"m 540 1282 q 467 1263 506 1282 l 443 1354 q 576 1388 500 1388 q 685 1352 646 1388 q 724 1258 724 1317 q 599 1121 724 1146 l 592 1061 l 472 1061 l 486 1185 q 559 1201 535 1188 q 583 1246 583 1215 q 540 1282 583 1282 m 979 992 q 939 852 979 904 q 822 785 899 800 q 849 610 849 714 q 800 307 849 451 q 647 69 751 163 q 381 -24 542 -24 q 136 73 222 -24 q 50 351 50 169 q 99 653 50 508 q 252 892 147 799 q 518 986 357 986 q 768 882 683 986 q 824 915 807 888 q 840 990 840 942 q 835 1054 840 1031 l 969 1072 q 979 992 979 1036 m 394 138 q 533 219 481 138 q 608 417 586 301 q 629 639 629 532 q 598 781 629 736 q 504 825 567 825 q 367 742 419 825 q 292 544 314 660 q 269 324 269 428 q 301 181 269 225 q 394 138 332 138 z "},"Ỡ":{"ha":907,"x_min":50,"x_max":979,"o":"m 472 1122 q 435 1108 451 1122 q 397 1060 419 1093 l 304 1115 q 385 1228 339 1185 q 483 1272 432 1272 q 531 1263 511 1272 q 574 1235 550 1253 q 624 1210 604 1210 q 658 1224 642 1210 q 696 1269 675 1238 l 790 1217 q 708 1103 754 1146 q 613 1060 661 1060 q 569 1069 588 1060 q 524 1097 550 1079 q 497 1115 511 1107 q 472 1122 483 1122 m 979 992 q 939 852 979 904 q 822 785 899 800 q 849 610 849 714 q 800 307 849 451 q 647 69 751 163 q 381 -24 542 -24 q 136 73 222 -24 q 50 351 50 169 q 99 653 50 508 q 252 892 147 799 q 518 986 357 986 q 768 882 683 986 q 824 915 807 888 q 840 990 840 942 q 835 1054 840 1031 l 969 1072 q 979 992 979 1036 m 394 138 q 533 219 481 138 q 608 417 586 301 q 629 639 629 532 q 598 781 629 736 q 504 825 567 825 q 367 742 419 825 q 292 544 314 660 q 269 324 269 428 q 301 181 269 225 q 394 138 332 138 z "},"Ő":{"ha":867,"x_min":50,"x_max":851,"o":"m 518 986 q 763 889 676 986 q 849 610 849 792 q 800 307 849 451 q 647 69 751 163 q 381 -24 542 -24 q 136 73 222 -24 q 50 351 50 169 q 99 653 50 508 q 252 892 147 799 q 518 986 357 986 m 504 825 q 367 742 419 825 q 292 544 314 660 q 269 324 269 428 q 301 181 269 225 q 394 138 332 138 q 533 219 481 138 q 608 417 586 301 q 629 639 629 532 q 598 781 629 736 q 504 825 567 825 m 507 1365 l 633 1297 l 457 1051 l 357 1096 l 507 1365 m 725 1365 l 851 1293 l 665 1044 l 567 1096 l 725 1365 z "},"Ƣ":{"ha":1200,"x_min":50,"x_max":1178,"o":"m 950 986 q 1118 933 1058 986 q 1178 783 1178 879 q 1174 736 1178 761 l 1029 -292 l 815 -292 l 961 746 q 963 769 963 754 q 903 833 963 833 q 857 826 878 833 q 811 806 836 819 q 849 610 849 725 q 800 307 849 451 q 647 69 751 163 q 381 -24 542 -24 q 136 73 222 -24 q 50 351 50 169 q 99 653 50 508 q 252 892 147 799 q 518 986 357 986 q 731 915 647 986 q 950 986 826 986 m 394 138 q 533 219 481 138 q 608 417 586 301 q 629 639 629 532 q 598 781 629 736 q 504 825 567 825 q 367 742 419 825 q 292 544 314 660 q 269 324 269 428 q 301 181 269 225 q 394 138 332 138 z "},"Ȏ":{"ha":867,"x_min":50,"x_max":849,"o":"m 518 986 q 763 889 676 986 q 849 610 849 792 q 800 307 849 451 q 647 69 751 163 q 381 -24 542 -24 q 136 73 222 -24 q 50 351 50 169 q 99 653 50 508 q 252 892 147 799 q 518 986 357 986 m 504 825 q 367 742 419 825 q 292 544 314 660 q 269 324 269 428 q 301 181 269 225 q 394 138 332 138 q 533 219 481 138 q 608 417 586 301 q 629 639 629 532 q 598 781 629 736 q 504 825 567 825 m 317 1086 q 405 1253 340 1189 q 565 1317 469 1317 q 711 1250 663 1317 q 754 1081 760 1183 l 639 1065 q 551 1171 631 1171 q 428 1060 467 1171 l 317 1086 z "},"Ō":{"ha":867,"x_min":50,"x_max":849,"o":"m 518 986 q 763 889 676 986 q 849 610 849 792 q 800 307 849 451 q 647 69 751 163 q 381 -24 542 -24 q 136 73 222 -24 q 50 351 50 169 q 99 653 50 508 q 252 892 147 799 q 518 986 357 986 m 504 825 q 367 742 419 825 q 292 544 314 660 q 269 324 269 428 q 301 181 269 225 q 394 138 332 138 q 533 219 481 138 q 608 417 586 301 q 629 639 629 532 q 598 781 629 736 q 504 825 567 825 m 722 1086 l 342 1086 l 364 1233 l 744 1233 l 722 1086 z "},"Ṓ":{"ha":867,"x_min":50,"x_max":849,"o":"m 518 986 q 763 889 676 986 q 849 610 849 792 q 800 307 849 451 q 647 69 751 163 q 381 -24 542 -24 q 136 73 222 -24 q 50 351 50 169 q 99 653 50 508 q 252 892 147 799 q 518 986 357 986 m 504 825 q 367 742 419 825 q 292 544 314 660 q 269 324 269 428 q 301 181 269 225 q 394 138 332 138 q 533 219 481 138 q 608 417 586 301 q 629 639 629 532 q 598 781 629 736 q 504 825 567 825 m 728 1056 l 347 1056 l 369 1203 l 750 1203 l 728 1056 m 679 1514 l 747 1360 l 436 1244 l 389 1344 l 679 1514 z "},"Ṑ":{"ha":867,"x_min":50,"x_max":849,"o":"m 518 986 q 763 889 676 986 q 849 610 849 792 q 800 307 849 451 q 647 69 751 163 q 381 -24 542 -24 q 136 73 222 -24 q 50 351 50 169 q 99 653 50 508 q 252 892 147 799 q 518 986 357 986 m 504 825 q 367 742 419 825 q 292 544 314 660 q 269 324 269 428 q 301 181 269 225 q 394 138 332 138 q 533 219 481 138 q 608 417 586 301 q 629 639 629 532 q 598 781 629 736 q 504 825 567 825 m 722 1056 l 342 1056 l 364 1203 l 744 1203 l 722 1056 m 492 1511 l 744 1342 l 686 1246 l 403 1358 l 492 1511 z "},"Ꞷ":{"ha":1106,"x_min":56,"x_max":1069,"o":"m 296 -22 q 116 49 176 -22 q 56 274 56 121 q 105 620 56 440 q 239 963 154 800 l 438 963 q 315 605 361 783 q 268 269 268 426 q 284 168 268 199 q 338 138 300 138 q 431 254 415 138 l 472 554 l 683 554 l 640 249 q 638 211 638 221 q 697 138 638 138 q 821 299 783 138 q 858 654 858 461 q 850 806 858 735 q 826 963 842 876 l 1031 963 q 1069 651 1069 813 q 986 167 1069 356 q 713 -22 903 -22 q 579 19 628 -22 q 521 146 531 61 q 429 19 488 60 q 296 -22 371 -22 z "},"Ǫ":{"ha":867,"x_min":50,"x_max":849,"o":"m 515 -3 q 356 -160 356 -71 q 413 -207 356 -207 q 488 -199 446 -207 l 458 -328 q 371 -337 421 -337 q 251 -298 297 -337 q 204 -192 204 -258 q 306 -18 204 -87 q 116 99 182 4 q 50 351 50 193 q 99 653 50 508 q 252 892 147 799 q 518 986 357 986 q 763 889 676 986 q 849 610 849 792 q 814 351 849 476 q 704 129 779 225 q 515 -3 629 33 m 504 825 q 367 742 419 825 q 292 544 314 660 q 269 324 269 428 q 301 181 269 225 q 394 138 332 138 q 533 219 481 138 q 608 417 586 301 q 629 639 629 532 q 598 781 629 736 q 504 825 567 825 z "},"Ǭ":{"ha":867,"x_min":50,"x_max":849,"o":"m 744 1233 l 722 1086 l 342 1086 l 364 1233 l 744 1233 m 515 -3 q 356 -160 356 -71 q 413 -207 356 -207 q 488 -199 446 -207 l 458 -328 q 371 -337 421 -337 q 251 -298 297 -337 q 204 -192 204 -258 q 306 -18 204 -87 q 116 99 182 4 q 50 351 50 193 q 99 653 50 508 q 252 892 147 799 q 518 986 357 986 q 763 889 676 986 q 849 610 849 792 q 814 351 849 476 q 704 129 779 225 q 515 -3 629 33 m 504 825 q 367 742 419 825 q 292 544 314 660 q 269 324 269 428 q 301 181 269 225 q 394 138 332 138 q 533 219 481 138 q 608 417 586 301 q 629 639 629 532 q 598 781 629 736 q 504 825 567 825 z "},"Ɔ":{"ha":719,"x_min":-32,"x_max":700,"o":"m 378 986 q 615 889 529 986 q 700 607 700 792 q 645 289 700 432 q 485 62 590 146 q 232 -22 379 -22 q -32 101 71 -22 l 79 219 q 154 165 119 183 q 235 146 189 146 q 373 217 318 146 q 454 395 428 288 q 481 614 481 503 q 447 774 481 725 q 351 824 414 824 q 266 807 307 824 q 181 758 225 790 l 92 882 q 226 960 157 933 q 378 986 294 986 z "},"Ø":{"ha":867,"x_min":50,"x_max":849,"o":"m 721 925 q 816 798 783 878 q 849 610 849 718 q 800 307 849 451 q 647 69 751 163 q 381 -24 542 -24 q 324 -19 351 -24 l 258 -186 l 104 -142 l 176 39 q 83 165 115 86 q 50 351 50 244 q 99 653 50 508 q 252 892 147 799 q 518 986 357 986 q 572 983 539 986 l 640 1149 l 793 1104 l 721 925 m 504 826 q 363 743 417 826 q 285 543 308 660 q 263 319 263 426 q 283 193 263 235 l 531 825 q 504 826 522 826 m 394 136 q 536 219 482 136 q 613 417 590 301 q 635 643 635 533 q 614 768 635 726 l 369 138 q 394 136 378 136 z "},"Ǿ":{"ha":867,"x_min":50,"x_max":849,"o":"m 721 925 q 816 798 783 878 q 849 610 849 718 q 800 307 849 451 q 647 69 751 163 q 381 -24 542 -24 q 324 -19 351 -24 l 258 -186 l 104 -142 l 176 39 q 83 165 115 86 q 50 351 50 244 q 99 653 50 508 q 252 892 147 799 q 518 986 357 986 q 572 983 539 986 l 640 1149 l 793 1104 l 721 925 m 504 826 q 363 743 417 826 q 285 543 308 660 q 263 319 263 426 q 283 193 263 235 l 531 825 q 504 826 522 826 m 394 136 q 536 219 482 136 q 613 417 590 301 q 635 643 635 533 q 614 768 635 726 l 369 138 q 394 136 378 136 m 656 1353 l 724 1199 l 413 1083 l 365 1183 l 656 1353 z "},"Õ":{"ha":867,"x_min":50,"x_max":849,"o":"m 518 986 q 763 889 676 986 q 849 610 849 792 q 800 307 849 451 q 647 69 751 163 q 381 -24 542 -24 q 136 73 222 -24 q 50 351 50 169 q 99 653 50 508 q 252 892 147 799 q 518 986 357 986 m 504 825 q 367 742 419 825 q 292 544 314 660 q 269 324 269 428 q 301 181 269 225 q 394 138 332 138 q 533 219 481 138 q 608 417 586 301 q 629 639 629 532 q 598 781 629 736 q 504 825 567 825 m 613 1060 q 569 1069 588 1060 q 524 1097 550 1079 q 497 1115 511 1107 q 472 1122 483 1122 q 435 1108 451 1122 q 397 1060 419 1093 l 304 1115 q 385 1228 339 1185 q 483 1272 432 1272 q 530 1263 511 1272 q 574 1235 549 1253 q 624 1210 604 1210 q 658 1224 642 1210 q 696 1269 675 1238 l 790 1217 q 708 1103 754 1146 q 613 1060 661 1060 z "},"Ṍ":{"ha":867,"x_min":50,"x_max":849,"o":"m 518 986 q 763 889 676 986 q 849 610 849 792 q 800 307 849 451 q 647 69 751 163 q 381 -24 542 -24 q 136 73 222 -24 q 50 351 50 169 q 99 653 50 508 q 252 892 147 799 q 518 986 357 986 m 504 825 q 367 742 419 825 q 292 544 314 660 q 269 324 269 428 q 301 181 269 225 q 394 138 332 138 q 533 219 481 138 q 608 417 586 301 q 629 639 629 532 q 598 781 629 736 q 504 825 567 825 m 607 1050 q 563 1060 582 1050 q 518 1088 544 1069 q 492 1105 506 1097 q 467 1113 478 1113 q 430 1098 446 1113 q 392 1050 414 1083 l 299 1106 q 380 1219 333 1175 q 478 1263 426 1263 q 524 1253 506 1263 q 568 1225 543 1243 q 618 1200 599 1200 q 653 1214 636 1200 q 690 1260 669 1228 l 785 1207 q 702 1093 749 1136 q 607 1050 656 1050 m 672 1556 l 740 1401 l 429 1286 l 382 1386 l 672 1556 z "},"Ȭ":{"ha":867,"x_min":50,"x_max":849,"o":"m 744 1307 l 364 1307 l 386 1454 l 767 1454 l 744 1307 m 606 1050 q 562 1060 581 1050 q 517 1088 543 1069 q 490 1105 504 1097 q 465 1113 476 1113 q 428 1098 444 1113 q 390 1050 413 1083 l 297 1106 q 378 1219 332 1175 q 476 1263 425 1263 q 524 1253 504 1263 q 567 1225 543 1243 q 617 1200 597 1200 q 651 1214 635 1200 q 689 1260 668 1228 l 783 1207 q 701 1093 747 1136 q 606 1050 654 1050 m 518 986 q 763 889 676 986 q 849 610 849 792 q 800 307 849 451 q 647 69 751 163 q 381 -24 542 -24 q 136 73 222 -24 q 50 351 50 169 q 99 653 50 508 q 252 892 147 799 q 518 986 357 986 m 504 825 q 367 742 419 825 q 292 544 314 660 q 269 324 269 428 q 301 181 269 225 q 394 138 332 138 q 533 219 481 138 q 608 417 586 301 q 629 639 629 532 q 598 781 629 736 q 504 825 567 825 z "},"Œ":{"ha":1119,"x_min":50,"x_max":1164,"o":"m 1119 806 l 774 806 q 818 601 818 721 l 818 565 l 1049 565 l 1028 413 l 800 413 q 685 158 765 258 l 1053 158 l 1028 0 l 485 0 q 360 -24 426 -24 q 132 74 214 -24 q 50 351 50 171 q 98 652 50 507 q 247 892 146 797 q 499 986 347 986 q 622 963 568 986 l 1164 963 l 1119 806 m 269 318 q 298 181 269 224 q 381 138 326 138 q 508 218 458 138 q 580 415 558 299 q 601 644 601 531 q 573 782 601 739 q 489 825 544 825 q 362 744 411 825 q 291 546 313 663 q 269 318 269 429 z "},"P":{"ha":742,"x_min":26,"x_max":763,"o":"m 432 963 q 676 895 590 963 q 763 697 763 828 q 719 511 763 596 q 587 375 676 426 q 364 324 497 324 l 285 324 l 240 0 l 26 0 l 161 963 l 432 963 m 364 482 q 502 542 461 482 q 543 692 543 603 q 511 780 543 753 q 414 807 479 807 l 353 807 l 307 482 l 364 482 z "},"Ṕ":{"ha":742,"x_min":26,"x_max":763,"o":"m 432 963 q 676 895 590 963 q 763 697 763 828 q 719 511 763 596 q 587 375 676 426 q 364 324 497 324 l 285 324 l 240 0 l 26 0 l 161 963 l 432 963 m 364 482 q 502 542 461 482 q 543 692 543 603 q 511 780 543 753 q 414 807 479 807 l 353 807 l 307 482 l 364 482 m 604 1308 l 672 1154 l 361 1039 l 314 1139 l 604 1308 z "},"Ṗ":{"ha":742,"x_min":26,"x_max":763,"o":"m 432 963 q 676 895 590 963 q 763 697 763 828 q 719 511 763 596 q 587 375 676 426 q 364 324 497 324 l 285 324 l 240 0 l 26 0 l 161 963 l 432 963 m 364 482 q 502 542 461 482 q 543 692 543 603 q 511 780 543 753 q 414 807 479 807 l 353 807 l 307 482 l 364 482 m 476 1056 q 397 1085 426 1056 q 367 1161 367 1114 q 406 1258 367 1219 q 503 1296 444 1296 q 582 1267 553 1296 q 611 1190 611 1238 q 572 1094 611 1132 q 476 1056 533 1056 z "},"Ƥ":{"ha":926,"x_min":60,"x_max":947,"o":"m 617 963 q 861 895 775 963 q 947 697 947 828 q 904 511 947 596 q 772 375 861 426 q 549 324 682 324 l 469 324 l 425 0 l 211 0 l 324 806 l 290 806 q 241 785 258 806 q 224 725 224 764 q 235 650 224 700 l 92 596 q 68 663 76 632 q 60 732 60 694 q 127 900 60 838 q 307 963 194 963 l 617 963 m 549 482 q 687 542 646 482 q 728 692 728 603 q 696 780 728 753 q 599 807 664 807 l 538 807 l 492 482 l 549 482 z "},"Þ":{"ha":744,"x_min":26,"x_max":743,"o":"m 413 810 q 658 742 574 810 q 743 538 743 674 q 701 351 743 436 q 570 214 660 267 q 343 161 481 161 l 263 161 l 240 0 l 26 0 l 161 963 l 375 963 l 354 810 l 413 810 m 344 318 q 483 380 443 318 q 524 535 524 442 q 492 626 524 599 q 396 654 461 654 l 332 654 l 285 318 l 344 318 z "},"Q":{"ha":865,"x_min":50,"x_max":849,"o":"m 849 610 q 784 277 849 429 q 583 58 719 125 q 722 32 665 56 q 828 -36 779 8 l 675 -199 q 554 -67 622 -114 q 381 -21 486 -21 q 135 74 221 -21 q 50 351 50 169 q 99 653 50 508 q 252 892 147 799 q 518 986 357 986 q 763 889 676 986 q 849 610 849 792 m 269 319 q 301 181 269 224 q 394 138 332 138 q 533 219 481 138 q 608 417 586 301 q 629 643 629 533 q 598 781 629 738 q 504 825 567 825 q 367 742 419 825 q 292 542 314 658 q 269 319 269 426 z "},"Ɋ":{"ha":853,"x_min":49,"x_max":903,"o":"m 903 -250 q 718 -307 824 -307 q 553 -254 613 -307 q 494 -100 494 -201 q 497 -53 494 -86 l 504 0 l 511 49 q 335 -22 436 -22 q 125 74 201 -22 q 50 339 49 169 q 101 658 49 510 q 248 897 153 807 q 467 986 343 986 q 569 963 526 986 q 644 894 611 939 l 665 963 l 851 963 l 718 0 l 708 -72 l 707 -89 q 760 -147 707 -147 q 803 -142 785 -147 q 850 -122 821 -136 l 903 -250 m 393 133 q 533 206 469 133 l 610 760 q 559 808 586 792 q 496 825 532 825 q 372 753 424 825 q 295 568 321 681 q 269 333 269 456 q 393 133 269 133 z "},"R":{"ha":768,"x_min":26,"x_max":764,"o":"m 764 711 q 567 411 764 503 l 722 0 l 496 0 l 369 371 l 292 371 l 240 0 l 26 0 l 161 963 l 433 963 q 681 897 599 963 q 764 711 764 832 m 313 522 l 383 522 q 506 575 468 522 q 544 703 544 628 q 514 783 544 758 q 419 808 483 808 l 353 808 l 313 522 z "},"Ŕ":{"ha":768,"x_min":26,"x_max":764,"o":"m 764 711 q 567 411 764 503 l 722 0 l 496 0 l 369 371 l 292 371 l 240 0 l 26 0 l 161 963 l 433 963 q 681 897 599 963 q 764 711 764 832 m 313 522 l 383 522 q 506 575 468 522 q 544 703 544 628 q 514 783 544 758 q 419 808 483 808 l 353 808 l 313 522 m 606 1308 l 674 1154 l 363 1039 l 315 1139 l 606 1308 z "},"Ř":{"ha":768,"x_min":26,"x_max":764,"o":"m 764 711 q 567 411 764 503 l 722 0 l 496 0 l 369 371 l 292 371 l 240 0 l 26 0 l 161 963 l 433 963 q 681 897 599 963 q 764 711 764 832 m 313 522 l 383 522 q 506 575 468 522 q 544 703 544 628 q 514 783 544 758 q 419 808 483 808 l 353 808 l 313 522 m 661 1304 l 732 1219 l 531 1042 l 406 1042 l 250 1225 l 333 1304 l 482 1188 l 661 1304 z "},"Ŗ":{"ha":768,"x_min":26,"x_max":764,"o":"m 764 711 q 567 411 764 503 l 722 0 l 496 0 l 369 371 l 292 371 l 240 0 l 26 0 l 161 963 l 433 963 q 681 897 599 963 q 764 711 764 832 m 313 522 l 383 522 q 506 575 468 522 q 544 703 544 628 q 514 783 544 758 q 419 808 483 808 l 353 808 l 313 522 m 340 -96 q 410 -122 383 -96 q 436 -187 436 -149 q 425 -244 436 -218 q 385 -321 414 -269 l 308 -447 l 207 -447 l 267 -283 q 231 -212 231 -258 q 262 -128 231 -161 q 340 -96 293 -96 z "},"Ȑ":{"ha":768,"x_min":26,"x_max":764,"o":"m 764 711 q 567 411 764 503 l 722 0 l 496 0 l 369 371 l 292 371 l 240 0 l 26 0 l 161 963 l 433 963 q 681 897 599 963 q 764 711 764 832 m 313 522 l 383 522 q 506 575 468 522 q 544 703 544 628 q 514 783 544 758 q 419 808 483 808 l 353 808 l 313 522 m 347 1365 l 433 1093 l 318 1044 l 196 1299 l 347 1365 m 567 1365 l 642 1093 l 528 1051 l 415 1303 l 567 1365 z "},"Ṛ":{"ha":768,"x_min":26,"x_max":764,"o":"m 764 711 q 567 411 764 503 l 722 0 l 496 0 l 369 371 l 292 371 l 240 0 l 26 0 l 161 963 l 433 963 q 681 897 599 963 q 764 711 764 832 m 313 522 l 383 522 q 506 575 468 522 q 544 703 544 628 q 514 783 544 758 q 419 808 483 808 l 353 808 l 313 522 m 335 -86 q 415 -115 385 -86 q 444 -192 444 -144 q 406 -288 444 -250 q 308 -326 367 -326 q 229 -297 258 -326 q 200 -221 200 -268 q 239 -124 200 -162 q 335 -86 278 -86 z "},"Ȓ":{"ha":768,"x_min":26,"x_max":764,"o":"m 764 711 q 567 411 764 503 l 722 0 l 496 0 l 369 371 l 292 371 l 240 0 l 26 0 l 161 963 l 433 963 q 681 897 599 963 q 764 711 764 832 m 313 522 l 383 522 q 506 575 468 522 q 544 703 544 628 q 514 783 544 758 q 419 808 483 808 l 353 808 l 313 522 m 256 1086 q 344 1253 279 1189 q 504 1317 408 1317 q 650 1250 601 1317 q 693 1081 699 1183 l 578 1065 q 490 1171 569 1171 q 367 1060 406 1171 l 256 1086 z "},"Ɍ":{"ha":782,"x_min":15,"x_max":778,"o":"m 778 711 q 581 411 778 503 l 736 0 l 510 0 l 383 371 l 306 371 l 254 0 l 40 0 l 93 372 l 15 372 l 36 522 l 114 522 l 175 963 l 447 963 q 695 897 613 963 q 778 711 778 832 m 367 808 l 326 522 l 397 522 q 520 575 482 522 q 558 703 558 628 q 528 783 558 758 q 433 808 497 808 l 367 808 z "},"Ɽ":{"ha":768,"x_min":17,"x_max":764,"o":"m 764 711 q 567 411 764 503 l 722 0 l 496 0 l 369 371 l 292 371 l 240 0 l 231 -72 l 229 -89 q 282 -147 229 -147 q 325 -142 307 -147 q 372 -122 343 -136 l 425 -250 q 240 -307 346 -307 q 76 -254 135 -307 q 17 -100 17 -201 q 19 -53 17 -86 l 26 0 l 161 963 l 433 963 q 681 897 599 963 q 764 711 764 832 m 313 522 l 383 522 q 506 575 468 522 q 544 703 544 628 q 514 783 544 758 q 419 808 483 808 l 353 808 l 313 522 z "},"S":{"ha":710,"x_min":-29,"x_max":732,"o":"m 440 986 q 732 861 622 986 l 621 749 q 539 806 581 788 q 447 825 497 825 q 348 793 385 825 q 311 711 311 761 q 342 642 311 669 q 460 579 372 615 q 619 476 567 536 q 671 314 671 415 q 626 146 671 222 q 496 23 582 69 q 289 -24 410 -24 q -29 115 90 -24 l 92 232 q 183 163 135 186 q 292 140 231 140 q 407 178 364 140 q 450 281 450 215 q 419 361 450 331 q 304 428 388 392 q 141 533 190 475 q 92 682 92 590 q 134 833 92 764 q 256 944 176 903 q 440 986 335 986 z "},"Ś":{"ha":710,"x_min":-29,"x_max":732,"o":"m 440 986 q 732 861 622 986 l 621 749 q 539 806 581 788 q 447 825 497 825 q 348 793 385 825 q 311 711 311 761 q 342 642 311 669 q 460 579 372 615 q 619 476 567 536 q 671 314 671 415 q 626 146 671 222 q 496 23 582 69 q 289 -24 410 -24 q -29 115 90 -24 l 92 232 q 183 163 135 186 q 292 140 231 140 q 407 178 364 140 q 450 281 450 215 q 419 361 450 331 q 304 428 388 392 q 141 533 190 475 q 92 682 92 590 q 134 833 92 764 q 256 944 176 903 q 440 986 335 986 m 596 1308 l 664 1154 l 353 1039 l 306 1139 l 596 1308 z "},"Ꞌ":{"ha":317,"x_min":99,"x_max":339,"o":"m 99 467 l 143 963 l 339 963 l 242 467 l 99 467 z "},"Š":{"ha":710,"x_min":-29,"x_max":732,"o":"m 440 986 q 732 861 622 986 l 621 749 q 539 806 581 788 q 447 825 497 825 q 348 793 385 825 q 311 711 311 761 q 342 642 311 669 q 460 579 372 615 q 619 476 567 536 q 671 314 671 415 q 626 146 671 222 q 496 23 582 69 q 289 -24 410 -24 q -29 115 90 -24 l 92 232 q 183 163 135 186 q 292 140 231 140 q 407 178 364 140 q 450 281 450 215 q 419 361 450 331 q 304 428 388 392 q 141 533 190 475 q 92 682 92 590 q 134 833 92 764 q 256 944 176 903 q 440 986 335 986 m 651 1304 l 722 1219 l 521 1042 l 396 1042 l 240 1225 l 324 1304 l 472 1188 l 651 1304 z "},"Ş":{"ha":710,"x_min":-29,"x_max":732,"o":"m 460 579 q 619 476 567 536 q 671 314 671 415 q 635 161 671 232 q 528 42 599 90 q 360 -19 458 -6 l 351 -71 q 436 -109 407 -78 q 465 -190 465 -140 q 444 -270 465 -231 q 377 -335 424 -310 q 258 -361 331 -361 q 119 -317 175 -361 l 178 -225 q 215 -241 197 -236 q 254 -246 232 -246 q 299 -233 282 -246 q 318 -197 317 -221 q 294 -164 318 -174 q 210 -154 269 -154 l 242 -22 q -29 115 75 -6 l 92 232 q 183 163 135 186 q 292 140 231 140 q 407 178 364 140 q 450 281 450 215 q 419 361 450 331 q 304 428 388 392 q 141 533 190 475 q 92 682 92 590 q 134 833 92 764 q 256 944 176 903 q 440 986 335 986 q 732 861 622 986 l 621 749 q 539 806 581 788 q 447 825 497 825 q 348 793 385 825 q 311 711 311 761 q 342 642 311 669 q 460 579 372 615 z "},"Ŝ":{"ha":710,"x_min":-29,"x_max":732,"o":"m 440 986 q 732 861 622 986 l 621 749 q 539 806 581 788 q 447 825 497 825 q 348 793 385 825 q 311 711 311 761 q 342 642 311 669 q 460 579 372 615 q 619 476 567 536 q 671 314 671 415 q 626 146 671 222 q 496 23 582 69 q 289 -24 410 -24 q -29 115 90 -24 l 92 232 q 183 163 135 186 q 292 140 231 140 q 407 178 364 140 q 450 281 450 215 q 419 361 450 331 q 304 428 388 392 q 141 533 190 475 q 92 682 92 590 q 134 833 92 764 q 256 944 176 903 q 440 986 335 986 m 293 1050 l 222 1135 l 424 1313 l 549 1313 l 703 1129 l 622 1050 l 472 1168 l 293 1050 z "},"Ș":{"ha":710,"x_min":-29,"x_max":732,"o":"m 440 986 q 732 861 622 986 l 621 749 q 539 806 581 788 q 447 825 497 825 q 348 793 385 825 q 311 711 311 761 q 342 642 311 669 q 460 579 372 615 q 619 476 567 536 q 671 314 671 415 q 626 146 671 222 q 496 23 582 69 q 289 -24 410 -24 q -29 115 90 -24 l 92 232 q 183 163 135 186 q 292 140 231 140 q 407 178 364 140 q 450 281 450 215 q 419 361 450 331 q 304 428 388 392 q 141 533 190 475 q 92 682 92 590 q 134 833 92 764 q 256 944 176 903 q 440 986 335 986 m 289 -96 q 358 -122 332 -96 q 385 -187 385 -149 q 374 -244 385 -218 q 333 -321 363 -269 l 257 -447 l 156 -447 l 215 -283 q 179 -212 179 -258 q 210 -128 179 -161 q 289 -96 242 -96 z "},"Ṡ":{"ha":710,"x_min":-29,"x_max":732,"o":"m 440 986 q 732 861 622 986 l 621 749 q 539 806 581 788 q 447 825 497 825 q 348 793 385 825 q 311 711 311 761 q 342 642 311 669 q 460 579 372 615 q 619 476 567 536 q 671 314 671 415 q 626 146 671 222 q 496 23 582 69 q 289 -24 410 -24 q -29 115 90 -24 l 92 232 q 183 163 135 186 q 292 140 231 140 q 407 178 364 140 q 450 281 450 215 q 419 361 450 331 q 304 428 388 392 q 141 533 190 475 q 92 682 92 590 q 134 833 92 764 q 256 944 176 903 q 440 986 335 986 m 468 1056 q 388 1085 418 1056 q 358 1161 358 1114 q 397 1258 358 1219 q 494 1296 436 1296 q 574 1267 544 1296 q 603 1190 603 1238 q 564 1094 603 1132 q 468 1056 525 1056 z "},"Ṣ":{"ha":710,"x_min":-29,"x_max":732,"o":"m 440 986 q 732 861 622 986 l 621 749 q 539 806 581 788 q 447 825 497 825 q 348 793 385 825 q 311 711 311 761 q 342 642 311 669 q 460 579 372 615 q 619 476 567 536 q 671 314 671 415 q 626 146 671 222 q 496 23 582 69 q 289 -24 410 -24 q -29 115 90 -24 l 92 232 q 183 163 135 186 q 292 140 231 140 q 407 178 364 140 q 450 281 450 215 q 419 361 450 331 q 304 428 388 392 q 141 533 190 475 q 92 682 92 590 q 134 833 92 764 q 256 944 176 903 q 440 986 335 986 m 283 -86 q 363 -115 333 -86 q 393 -192 393 -144 q 354 -288 393 -250 q 257 -326 315 -326 q 178 -297 207 -326 q 149 -221 149 -268 q 188 -124 149 -162 q 283 -86 226 -86 z "},"ẞ":{"ha":832,"x_min":26,"x_max":822,"o":"m 468 985 q 822 879 640 985 l 808 781 l 589 536 q 736 465 681 519 q 792 314 792 411 q 748 136 792 213 q 626 19 704 60 q 450 -22 549 -22 q 290 15 351 -22 l 371 154 q 439 142 399 142 q 533 187 499 142 q 568 306 568 232 q 527 401 568 369 q 394 439 486 433 l 410 556 l 622 797 q 465 825 543 825 q 378 793 410 825 q 338 693 347 761 l 240 0 l 26 0 l 122 688 q 230 908 143 832 q 468 985 317 985 z "},"Ə":{"ha":801,"x_min":32,"x_max":783,"o":"m 469 986 q 700 897 617 986 q 783 635 783 807 q 733 302 783 451 q 583 65 683 153 q 336 -22 482 -22 q 110 69 188 -22 q 32 322 32 160 q 65 561 32 447 l 567 560 q 572 647 572 604 q 538 783 572 742 q 438 825 504 825 q 333 803 381 825 q 236 744 285 782 l 153 865 q 303 956 226 926 q 469 986 379 986 m 344 136 q 467 198 418 136 q 544 407 517 260 l 238 406 q 229 304 229 336 q 258 176 229 217 q 344 136 288 136 z "},"T":{"ha":669,"x_min":68,"x_max":754,"o":"m 754 963 l 708 794 l 501 794 l 390 0 l 176 0 l 288 794 l 68 794 l 92 963 l 754 963 z "},"Ŧ":{"ha":669,"x_min":68,"x_max":754,"o":"m 708 794 l 501 794 l 467 542 l 606 542 l 588 417 l 449 417 l 390 0 l 176 0 l 235 417 l 94 417 l 113 542 l 253 542 l 288 794 l 68 794 l 92 963 l 754 963 l 708 794 z "},"Ť":{"ha":669,"x_min":68,"x_max":754,"o":"m 754 963 l 708 794 l 501 794 l 390 0 l 176 0 l 288 794 l 68 794 l 92 963 l 754 963 m 622 1304 l 693 1219 l 492 1042 l 367 1042 l 211 1225 l 294 1304 l 443 1188 l 622 1304 z "},"Ţ":{"ha":669,"x_min":68,"x_max":754,"o":"m 754 963 l 708 794 l 501 794 l 390 0 l 381 -68 q 465 -106 436 -75 q 493 -187 493 -137 q 472 -269 493 -229 q 405 -335 451 -308 q 285 -361 358 -361 q 206 -349 242 -361 q 147 -317 171 -336 l 207 -222 q 279 -246 242 -246 q 327 -233 308 -246 q 346 -196 346 -219 q 322 -164 346 -174 q 239 -154 297 -154 l 275 0 l 176 0 l 288 794 l 68 794 l 92 963 l 754 963 z "},"Ṱ":{"ha":669,"x_min":3,"x_max":754,"o":"m 754 963 l 708 794 l 501 794 l 390 0 l 176 0 l 288 794 l 68 794 l 92 963 l 754 963 m 72 -360 l 3 -275 l 206 -89 l 331 -89 l 485 -281 l 399 -360 l 253 -233 l 72 -360 z "},"Ț":{"ha":669,"x_min":68,"x_max":754,"o":"m 754 963 l 708 794 l 501 794 l 390 0 l 176 0 l 288 794 l 68 794 l 92 963 l 754 963 m 272 -96 q 342 -122 315 -96 q 368 -187 368 -149 q 357 -244 368 -218 q 317 -321 346 -269 l 240 -447 l 139 -447 l 199 -283 q 163 -212 163 -258 q 194 -128 163 -161 q 272 -96 225 -96 z "},"Ⱦ":{"ha":671,"x_min":69,"x_max":756,"o":"m 710 801 l 607 801 l 447 499 l 378 0 l 192 0 l 194 18 l 131 -103 l 72 -74 l 221 207 l 303 801 l 69 801 l 93 963 l 618 963 l 664 1049 l 722 1019 l 692 963 l 756 963 l 710 801 m 475 689 l 533 801 l 490 801 l 475 689 z "},"Ṫ":{"ha":669,"x_min":68,"x_max":754,"o":"m 754 963 l 708 794 l 501 794 l 390 0 l 176 0 l 288 794 l 68 794 l 92 963 l 754 963 m 439 1056 q 359 1085 389 1056 q 329 1161 329 1114 q 368 1258 329 1219 q 465 1296 407 1296 q 544 1267 515 1296 q 574 1190 574 1238 q 535 1094 574 1132 q 439 1056 496 1056 z "},"Ṭ":{"ha":669,"x_min":68,"x_max":754,"o":"m 754 963 l 708 794 l 501 794 l 390 0 l 176 0 l 288 794 l 68 794 l 92 963 l 754 963 m 267 -86 q 347 -115 317 -86 q 376 -192 376 -144 q 338 -288 376 -250 q 240 -326 299 -326 q 161 -297 190 -326 q 132 -221 132 -268 q 171 -124 132 -162 q 267 -86 210 -86 z "},"Ƭ":{"ha":743,"x_min":60,"x_max":826,"o":"m 781 794 l 575 794 l 463 0 l 249 0 l 361 794 l 289 794 q 224 724 224 794 q 235 650 224 700 l 92 596 q 68 663 76 632 q 60 732 60 694 q 126 900 60 838 q 303 963 193 963 l 826 963 l 781 794 z "},"Ṯ":{"ha":669,"x_min":65,"x_max":754,"o":"m 754 963 l 708 794 l 501 794 l 390 0 l 176 0 l 288 794 l 68 794 l 92 963 l 754 963 m 88 -115 l 468 -115 l 446 -262 l 65 -262 l 88 -115 z "},"Ƽ":{"ha":676,"x_min":-21,"x_max":679,"o":"m 247 -24 q -21 118 75 -24 l 106 218 q 256 135 165 135 q 385 208 344 135 q 426 374 426 281 q 336 483 426 483 q 282 475 308 483 q 222 449 256 467 l 82 450 l 154 963 l 679 963 l 635 811 l 326 811 l 296 593 q 432 628 361 628 q 581 565 525 628 q 636 385 636 501 q 594 185 636 278 q 464 34 551 92 q 247 -24 376 -24 z "},"Ƅ":{"ha":760,"x_min":47,"x_max":740,"o":"m 425 631 q 657 563 574 631 q 740 364 740 494 q 701 187 740 269 q 574 52 661 104 q 353 0 488 0 l 47 0 l 143 688 l 58 757 q 218 963 149 840 l 396 963 l 349 631 l 425 631 m 353 158 q 478 215 440 158 q 517 354 517 272 q 488 449 517 418 q 397 479 458 479 l 328 479 l 282 158 l 353 158 z "},"Ƨ":{"ha":693,"x_min":13,"x_max":725,"o":"m 456 985 q 651 923 578 985 q 725 754 725 861 q 649 551 725 625 q 413 422 572 478 q 273 347 313 390 q 233 238 233 304 q 260 167 233 192 q 339 142 288 142 q 558 232 444 142 l 650 111 q 306 -22 507 -22 q 91 47 169 -22 q 13 229 13 117 q 88 447 13 365 q 311 578 163 528 q 428 624 388 603 q 488 674 469 646 q 506 744 506 701 q 482 805 506 785 q 415 825 458 825 q 313 806 361 825 q 213 746 264 786 l 131 864 q 282 955 203 925 q 456 985 361 985 z "},"Ʈ":{"ha":669,"x_min":68,"x_max":754,"o":"m 381 -72 l 379 -89 q 432 -147 379 -147 q 475 -142 457 -147 q 522 -122 493 -136 l 575 -250 q 390 -307 496 -307 q 226 -254 285 -307 q 167 -100 167 -201 q 169 -53 167 -86 l 176 0 l 288 794 l 68 794 l 92 963 l 754 963 l 708 794 l 501 794 l 390 0 l 381 -72 z "},"U":{"ha":804,"x_min":50,"x_max":824,"o":"m 729 292 q 669 131 717 201 q 540 19 621 60 q 353 -22 460 -22 q 127 51 204 -22 q 50 243 50 124 q 54 299 50 269 l 147 963 l 361 963 l 267 286 q 264 247 264 258 q 367 140 264 140 q 515 292 492 140 l 608 963 l 824 963 l 729 292 z "},"Ú":{"ha":804,"x_min":50,"x_max":824,"o":"m 729 292 q 669 131 717 201 q 540 19 621 60 q 353 -22 460 -22 q 127 51 204 -22 q 50 243 50 124 q 54 299 50 269 l 147 963 l 361 963 l 267 286 q 264 247 264 258 q 367 140 264 140 q 515 292 492 140 l 608 963 l 824 963 l 729 292 m 633 1308 l 701 1154 l 390 1039 l 343 1139 l 633 1308 z "},"Ʉ":{"ha":849,"x_min":64,"x_max":893,"o":"m 875 696 l 807 696 l 750 292 q 690 131 738 201 q 561 19 642 60 q 374 -22 481 -22 q 148 51 225 -22 q 71 243 71 124 q 75 299 71 269 l 131 696 l 64 696 l 82 819 l 149 819 l 168 963 l 382 963 l 363 819 l 610 819 l 629 963 l 844 963 l 824 819 l 893 819 l 875 696 m 592 696 l 344 696 l 288 286 q 285 247 285 258 q 388 140 285 140 q 536 292 513 140 l 592 696 z "},"Ŭ":{"ha":804,"x_min":50,"x_max":824,"o":"m 729 292 q 669 131 717 201 q 540 19 621 60 q 353 -22 460 -22 q 127 51 204 -22 q 50 243 50 124 q 54 299 50 269 l 147 963 l 361 963 l 267 286 q 264 247 264 258 q 367 140 264 140 q 515 292 492 140 l 608 963 l 824 963 l 729 292 m 497 1043 q 351 1108 400 1043 q 310 1265 303 1172 l 419 1282 q 445 1215 424 1240 q 507 1190 467 1190 q 579 1217 549 1190 q 626 1286 610 1243 l 739 1260 q 656 1104 719 1165 q 497 1043 593 1043 z "},"Ǔ":{"ha":804,"x_min":50,"x_max":824,"o":"m 729 292 q 669 131 717 201 q 540 19 621 60 q 353 -22 460 -22 q 127 51 204 -22 q 50 243 50 124 q 54 299 50 269 l 147 963 l 361 963 l 267 286 q 264 247 264 258 q 367 140 264 140 q 515 292 492 140 l 608 963 l 824 963 l 729 292 m 689 1304 l 760 1219 l 558 1042 l 433 1042 l 278 1225 l 361 1304 l 510 1188 l 689 1304 z "},"Û":{"ha":804,"x_min":50,"x_max":824,"o":"m 729 292 q 669 131 717 201 q 540 19 621 60 q 353 -22 460 -22 q 127 51 204 -22 q 50 243 50 124 q 54 299 50 269 l 147 963 l 361 963 l 267 286 q 264 247 264 258 q 367 140 264 140 q 515 292 492 140 l 608 963 l 824 963 l 729 292 m 331 1050 l 260 1135 l 461 1313 l 586 1313 l 740 1129 l 660 1050 l 510 1168 l 331 1050 z "},"Ȕ":{"ha":804,"x_min":50,"x_max":824,"o":"m 729 292 q 669 131 717 201 q 540 19 621 60 q 353 -22 460 -22 q 127 51 204 -22 q 50 243 50 124 q 54 299 50 269 l 147 963 l 361 963 l 267 286 q 264 247 264 258 q 367 140 264 140 q 515 292 492 140 l 608 963 l 824 963 l 729 292 m 375 1365 l 461 1093 l 346 1044 l 224 1299 l 375 1365 m 594 1365 l 669 1093 l 556 1051 l 443 1303 l 594 1365 z "},"Ü":{"ha":804,"x_min":50,"x_max":824,"o":"m 729 292 q 669 131 717 201 q 540 19 621 60 q 353 -22 460 -22 q 127 51 204 -22 q 50 243 50 124 q 54 299 50 269 l 147 963 l 361 963 l 267 286 q 264 247 264 258 q 367 140 264 140 q 515 292 492 140 l 608 963 l 824 963 l 729 292 m 354 1068 q 284 1094 310 1068 q 258 1160 258 1119 q 292 1245 258 1211 q 376 1279 326 1279 q 447 1253 421 1279 q 472 1188 472 1228 q 438 1102 472 1136 q 354 1068 404 1068 m 646 1068 q 576 1094 603 1068 q 550 1160 550 1119 q 584 1245 550 1211 q 668 1279 618 1279 q 738 1253 711 1279 q 764 1188 764 1228 q 730 1102 764 1136 q 646 1068 696 1068 z "},"Ǘ":{"ha":804,"x_min":50,"x_max":824,"o":"m 729 292 q 669 131 717 201 q 540 19 621 60 q 353 -22 460 -22 q 127 51 204 -22 q 50 243 50 124 q 54 299 50 269 l 147 963 l 361 963 l 267 286 q 264 247 264 258 q 367 140 264 140 q 515 292 492 140 l 608 963 l 824 963 l 729 292 m 644 1511 l 746 1403 l 518 1206 l 446 1274 l 644 1511 m 343 1040 q 274 1065 300 1040 q 249 1132 249 1090 q 283 1217 249 1183 q 368 1251 318 1251 q 437 1226 411 1251 q 463 1158 463 1200 q 428 1074 463 1108 q 343 1040 393 1040 m 650 1040 q 581 1065 607 1040 q 556 1132 556 1090 q 590 1217 556 1183 q 674 1251 625 1251 q 742 1226 717 1251 q 768 1158 768 1200 q 734 1074 768 1108 q 650 1040 700 1040 z "},"Ǚ":{"ha":804,"x_min":50,"x_max":824,"o":"m 729 292 q 669 131 717 201 q 540 19 621 60 q 353 -22 460 -22 q 127 51 204 -22 q 50 243 50 124 q 54 299 50 269 l 147 963 l 361 963 l 267 286 q 264 247 264 258 q 367 140 264 140 q 515 292 492 140 l 608 963 l 824 963 l 729 292 m 711 1513 l 782 1428 l 581 1250 l 456 1250 l 300 1433 l 383 1513 l 532 1396 l 711 1513 m 343 1040 q 274 1066 300 1040 q 247 1132 247 1092 q 282 1217 247 1182 q 367 1251 317 1251 q 435 1226 410 1251 q 461 1158 461 1200 q 427 1074 461 1108 q 343 1040 393 1040 m 649 1040 q 580 1065 606 1040 q 554 1132 554 1090 q 589 1217 554 1183 q 674 1251 624 1251 q 742 1226 717 1251 q 768 1158 768 1200 q 733 1074 768 1108 q 649 1040 699 1040 z "},"Ǜ":{"ha":804,"x_min":50,"x_max":824,"o":"m 729 292 q 669 131 717 201 q 540 19 621 60 q 353 -22 460 -22 q 127 51 204 -22 q 50 243 50 124 q 54 299 50 269 l 147 963 l 361 963 l 267 286 q 264 247 264 258 q 367 140 264 140 q 515 292 492 140 l 608 963 l 824 963 l 729 292 m 461 1507 l 594 1267 l 510 1206 l 336 1411 l 461 1507 m 340 1040 q 272 1065 297 1040 q 246 1132 246 1090 q 281 1217 246 1183 q 365 1251 315 1251 q 434 1226 408 1251 q 460 1158 460 1200 q 425 1074 460 1108 q 340 1040 390 1040 m 647 1040 q 578 1065 604 1040 q 553 1132 553 1090 q 588 1217 553 1183 q 671 1251 622 1251 q 740 1226 714 1251 q 765 1158 765 1200 q 731 1074 765 1108 q 647 1040 697 1040 z "},"Ǖ":{"ha":804,"x_min":50,"x_max":824,"o":"m 729 292 q 669 131 717 201 q 540 19 621 60 q 353 -22 460 -22 q 127 51 204 -22 q 50 243 50 124 q 54 299 50 269 l 147 963 l 361 963 l 267 286 q 264 247 264 258 q 367 140 264 140 q 515 292 492 140 l 608 963 l 824 963 l 729 292 m 347 1036 q 277 1062 303 1036 q 251 1128 251 1088 q 285 1213 251 1179 q 369 1247 319 1247 q 440 1222 414 1247 q 465 1156 465 1196 q 431 1070 465 1104 q 347 1036 397 1036 m 639 1036 q 569 1062 596 1036 q 543 1128 543 1088 q 577 1213 543 1179 q 661 1247 611 1247 q 731 1222 704 1247 q 757 1156 757 1196 q 723 1070 757 1104 q 639 1036 689 1036 m 711 1303 l 331 1303 l 353 1450 l 733 1450 l 711 1303 z "},"Ụ":{"ha":804,"x_min":50,"x_max":824,"o":"m 729 292 q 669 131 717 201 q 540 19 621 60 q 353 -22 460 -22 q 127 51 204 -22 q 50 243 50 124 q 54 299 50 269 l 147 963 l 361 963 l 267 286 q 264 247 264 258 q 367 140 264 140 q 515 292 492 140 l 608 963 l 824 963 l 729 292 m 333 -86 q 413 -115 383 -86 q 443 -192 443 -144 q 404 -288 443 -250 q 307 -326 365 -326 q 228 -297 257 -326 q 199 -221 199 -268 q 238 -124 199 -162 q 333 -86 276 -86 z "},"Ù":{"ha":804,"x_min":50,"x_max":824,"o":"m 729 292 q 669 131 717 201 q 540 19 621 60 q 353 -22 460 -22 q 127 51 204 -22 q 50 243 50 124 q 54 299 50 269 l 147 963 l 361 963 l 267 286 q 264 247 264 258 q 367 140 264 140 q 515 292 492 140 l 608 963 l 824 963 l 729 292 m 440 1306 l 693 1136 l 635 1040 l 351 1153 l 440 1306 z "},"Ủ":{"ha":804,"x_min":50,"x_max":824,"o":"m 729 292 q 669 131 717 201 q 540 19 621 60 q 353 -22 460 -22 q 127 51 204 -22 q 50 243 50 124 q 54 299 50 269 l 147 963 l 361 963 l 267 286 q 264 247 264 258 q 367 140 264 140 q 515 292 492 140 l 608 963 l 824 963 l 729 292 m 453 1185 q 526 1201 501 1188 q 550 1246 550 1215 q 507 1282 550 1282 q 433 1263 472 1282 l 410 1354 q 543 1388 467 1388 q 651 1352 613 1388 q 690 1258 690 1317 q 565 1121 690 1146 l 558 1061 l 439 1061 l 453 1185 z "},"Ư":{"ha":904,"x_min":50,"x_max":1008,"o":"m 1008 992 q 953 836 1008 890 q 797 779 899 782 l 729 292 q 669 131 717 201 q 540 19 621 60 q 353 -22 460 -22 q 127 51 204 -22 q 50 243 50 124 q 54 299 50 269 l 147 963 l 361 963 l 267 286 q 264 247 264 258 q 367 140 264 140 q 515 292 492 140 l 608 963 l 824 963 l 813 886 q 856 920 843 894 q 869 990 869 946 q 864 1054 869 1031 l 999 1072 q 1008 992 1008 1036 z "},"Ứ":{"ha":904,"x_min":50,"x_max":1008,"o":"m 701 1154 l 390 1039 l 343 1139 l 633 1308 l 701 1154 m 1008 992 q 953 836 1008 890 q 797 779 899 782 l 729 292 q 669 131 717 201 q 540 19 621 60 q 353 -22 460 -22 q 127 51 204 -22 q 50 243 50 124 q 54 299 50 269 l 147 963 l 361 963 l 267 286 q 264 247 264 258 q 367 140 264 140 q 515 292 492 140 l 608 963 l 824 963 l 813 886 q 856 920 843 894 q 869 990 869 946 q 864 1054 869 1031 l 999 1072 q 1008 992 1008 1036 z "},"Ự":{"ha":904,"x_min":50,"x_max":1008,"o":"m 1008 992 q 953 836 1008 890 q 797 779 899 782 l 729 292 q 669 131 717 201 q 540 19 621 60 q 353 -22 460 -22 q 127 51 204 -22 q 50 243 50 124 q 54 299 50 269 l 147 963 l 361 963 l 267 286 q 264 247 264 258 q 367 140 264 140 q 515 292 492 140 l 608 963 l 824 963 l 813 886 q 856 920 843 894 q 869 990 869 946 q 864 1054 869 1031 l 999 1072 q 1008 992 1008 1036 m 333 -86 q 413 -115 383 -86 q 443 -192 443 -144 q 404 -288 443 -250 q 307 -326 365 -326 q 228 -297 257 -326 q 199 -221 199 -268 q 238 -124 199 -162 q 333 -86 276 -86 z "},"Ừ":{"ha":904,"x_min":50,"x_max":1008,"o":"m 693 1136 l 635 1040 l 351 1153 l 440 1306 l 693 1136 m 1008 992 q 953 836 1008 890 q 797 779 899 782 l 729 292 q 669 131 717 201 q 540 19 621 60 q 353 -22 460 -22 q 127 51 204 -22 q 50 243 50 124 q 54 299 50 269 l 147 963 l 361 963 l 267 286 q 264 247 264 258 q 367 140 264 140 q 515 292 492 140 l 608 963 l 824 963 l 813 886 q 856 920 843 894 q 869 990 869 946 q 864 1054 869 1031 l 999 1072 q 1008 992 1008 1036 z "},"Ử":{"ha":904,"x_min":50,"x_max":1008,"o":"m 507 1282 q 433 1263 472 1282 l 410 1354 q 543 1388 465 1388 q 651 1352 613 1388 q 690 1258 690 1317 q 565 1121 690 1146 l 558 1061 l 439 1061 l 453 1185 q 526 1201 501 1188 q 550 1246 550 1215 q 507 1282 550 1282 m 1008 992 q 953 836 1008 890 q 797 779 899 782 l 729 292 q 669 131 717 201 q 540 19 621 60 q 353 -22 460 -22 q 127 51 204 -22 q 50 243 50 124 q 54 299 50 269 l 147 963 l 361 963 l 267 286 q 264 247 264 258 q 367 140 264 140 q 515 292 492 140 l 608 963 l 824 963 l 813 886 q 856 920 843 894 q 869 990 869 946 q 864 1054 869 1031 l 999 1072 q 1008 992 1008 1036 z "},"Ữ":{"ha":904,"x_min":50,"x_max":1008,"o":"m 439 1122 q 402 1108 418 1122 q 364 1060 386 1093 l 271 1115 q 352 1228 306 1185 q 450 1272 399 1272 q 497 1263 478 1272 q 540 1235 517 1253 q 590 1210 571 1210 q 625 1224 608 1210 q 663 1269 642 1238 l 757 1217 q 674 1103 721 1146 q 579 1060 628 1060 q 535 1069 554 1060 q 490 1097 517 1079 q 464 1115 478 1107 q 439 1122 450 1122 m 1008 992 q 953 836 1008 890 q 797 779 899 782 l 729 292 q 669 131 717 201 q 540 19 621 60 q 353 -22 460 -22 q 127 51 204 -22 q 50 243 50 124 q 54 299 50 269 l 147 963 l 361 963 l 267 286 q 264 247 264 258 q 367 140 264 140 q 515 292 492 140 l 608 963 l 824 963 l 813 886 q 856 920 843 894 q 869 990 869 946 q 864 1054 869 1031 l 999 1072 q 1008 992 1008 1036 z "},"Ű":{"ha":804,"x_min":50,"x_max":824,"o":"m 729 292 q 669 131 717 201 q 540 19 621 60 q 353 -22 460 -22 q 127 51 204 -22 q 50 243 50 124 q 54 299 50 269 l 147 963 l 361 963 l 267 286 q 264 247 264 258 q 367 140 264 140 q 515 292 492 140 l 608 963 l 824 963 l 729 292 m 474 1365 l 600 1297 l 424 1051 l 324 1096 l 474 1365 m 692 1365 l 818 1293 l 632 1044 l 533 1096 l 692 1365 z "},"Ȗ":{"ha":804,"x_min":50,"x_max":824,"o":"m 729 292 q 669 131 717 201 q 540 19 621 60 q 353 -22 460 -22 q 127 51 204 -22 q 50 243 50 124 q 54 299 50 269 l 147 963 l 361 963 l 267 286 q 264 247 264 258 q 367 140 264 140 q 515 292 492 140 l 608 963 l 824 963 l 729 292 m 283 1086 q 372 1253 307 1189 q 532 1317 436 1317 q 678 1250 629 1317 q 721 1081 726 1183 l 606 1065 q 518 1171 597 1171 q 394 1060 433 1171 l 283 1086 z "},"Ū":{"ha":804,"x_min":50,"x_max":824,"o":"m 729 292 q 669 131 717 201 q 540 19 621 60 q 353 -22 460 -22 q 127 51 204 -22 q 50 243 50 124 q 54 299 50 269 l 147 963 l 361 963 l 267 286 q 264 247 264 258 q 367 140 264 140 q 515 292 492 140 l 608 963 l 824 963 l 729 292 m 689 1086 l 308 1086 l 331 1233 l 711 1233 l 689 1086 z "},"Ų":{"ha":804,"x_min":50,"x_max":824,"o":"m 824 963 l 729 292 q 653 109 714 188 q 490 -1 592 31 q 365 -78 399 -39 q 332 -157 332 -117 q 390 -207 332 -207 q 468 -197 429 -207 l 439 -328 q 351 -339 397 -339 q 226 -301 274 -339 q 178 -197 178 -262 q 213 -94 178 -139 q 310 -21 249 -50 q 116 61 182 -10 q 50 243 50 132 q 54 299 50 269 l 147 963 l 361 963 l 267 286 q 264 247 264 258 q 367 140 264 140 q 515 292 492 140 l 608 963 l 824 963 z "},"Ʊ":{"ha":867,"x_min":47,"x_max":879,"o":"m 379 -22 q 200 23 275 -22 q 86 149 125 68 q 47 338 47 231 q 282 807 47 661 l 135 807 l 156 963 l 464 963 l 443 813 q 310 610 353 749 q 267 321 267 471 q 298 182 267 226 q 393 138 329 138 q 528 207 475 138 q 604 382 581 276 q 628 599 628 488 q 610 726 628 678 q 551 815 592 775 l 572 963 l 879 963 l 857 804 l 711 804 q 806 692 774 758 q 839 532 839 626 q 783 256 839 382 q 624 53 728 129 q 379 -22 519 -22 z "},"Ů":{"ha":804,"x_min":50,"x_max":824,"o":"m 729 292 q 669 131 717 201 q 540 19 621 60 q 353 -22 460 -22 q 127 51 204 -22 q 50 243 50 124 q 54 299 50 269 l 147 963 l 361 963 l 267 286 q 264 247 264 258 q 367 140 264 140 q 515 292 492 140 l 608 963 l 824 963 l 729 292 m 539 1374 q 654 1329 613 1374 q 696 1215 696 1285 q 671 1117 696 1161 q 601 1046 646 1072 q 497 1019 556 1019 q 383 1063 425 1019 q 342 1176 342 1107 q 367 1274 342 1229 q 437 1347 392 1319 q 539 1374 482 1374 m 529 1268 q 478 1242 497 1268 q 460 1182 460 1217 q 472 1138 460 1153 q 507 1124 485 1124 q 558 1149 539 1124 q 576 1210 576 1175 q 529 1268 576 1268 z "},"Ũ":{"ha":804,"x_min":50,"x_max":824,"o":"m 729 292 q 669 131 717 201 q 540 19 621 60 q 353 -22 460 -22 q 127 51 204 -22 q 50 243 50 124 q 54 299 50 269 l 147 963 l 361 963 l 267 286 q 264 247 264 258 q 367 140 264 140 q 515 292 492 140 l 608 963 l 824 963 l 729 292 m 579 1060 q 535 1069 554 1060 q 490 1097 517 1079 q 464 1115 478 1107 q 439 1122 450 1122 q 402 1108 418 1122 q 364 1060 386 1093 l 271 1115 q 352 1228 306 1185 q 450 1272 399 1272 q 497 1263 478 1272 q 540 1235 515 1253 q 590 1210 571 1210 q 625 1224 608 1210 q 663 1269 642 1238 l 757 1217 q 674 1103 721 1146 q 579 1060 628 1060 z "},"Ṹ":{"ha":804,"x_min":50,"x_max":824,"o":"m 729 292 q 669 131 717 201 q 540 19 621 60 q 353 -22 460 -22 q 127 51 204 -22 q 50 243 50 124 q 54 299 50 269 l 147 963 l 361 963 l 267 286 q 264 247 264 258 q 367 140 264 140 q 515 292 492 140 l 608 963 l 824 963 l 729 292 m 574 1050 q 530 1060 549 1050 q 485 1088 511 1069 q 458 1105 472 1097 q 433 1113 444 1113 q 397 1098 413 1113 q 358 1050 381 1083 l 265 1106 q 347 1219 300 1175 q 444 1263 393 1263 q 491 1253 472 1263 q 535 1225 510 1243 q 585 1200 565 1200 q 619 1214 603 1200 q 657 1260 636 1228 l 751 1207 q 669 1093 715 1136 q 574 1050 622 1050 m 639 1556 l 707 1401 l 396 1286 l 349 1386 l 639 1556 z "},"V":{"ha":715,"x_min":69,"x_max":813,"o":"m 813 963 l 447 0 l 176 0 l 69 963 l 289 963 l 336 172 l 592 963 l 813 963 z "},"Ʋ":{"ha":797,"x_min":49,"x_max":799,"o":"m 628 986 q 755 943 711 986 q 799 814 799 900 q 794 758 799 788 l 742 381 q 606 83 715 189 q 329 -22 497 -22 q 123 49 197 -22 q 49 236 49 121 q 53 286 49 261 l 149 963 l 363 963 l 267 278 q 264 239 264 250 q 349 140 264 140 q 464 200 417 140 q 528 383 511 260 l 582 785 l 583 799 q 556 829 583 829 q 524 824 543 829 l 508 963 q 628 986 564 986 z "},"Ʌ":{"ha":740,"x_min":-67,"x_max":703,"o":"m 583 963 l 703 0 l 485 0 l 432 806 l 160 0 l -67 0 l 324 963 l 583 963 z "},"W":{"ha":1056,"x_min":97,"x_max":1125,"o":"m 1125 963 l 851 0 l 574 0 l 578 746 l 372 0 l 99 0 l 97 963 l 307 963 l 276 167 l 500 963 l 722 963 l 715 167 l 919 963 l 1125 963 z "},"Ẃ":{"ha":1056,"x_min":97,"x_max":1125,"o":"m 1125 963 l 851 0 l 574 0 l 578 746 l 372 0 l 99 0 l 97 963 l 307 963 l 276 167 l 500 963 l 722 963 l 715 167 l 919 963 l 1125 963 m 763 1308 l 831 1154 l 519 1039 l 472 1139 l 763 1308 z "},"Ŵ":{"ha":1056,"x_min":97,"x_max":1125,"o":"m 1125 963 l 851 0 l 574 0 l 578 746 l 372 0 l 99 0 l 97 963 l 307 963 l 276 167 l 500 963 l 722 963 l 715 167 l 919 963 l 1125 963 m 460 1050 l 389 1135 l 590 1313 l 715 1313 l 869 1129 l 789 1050 l 639 1168 l 460 1050 z "},"Ẅ":{"ha":1056,"x_min":97,"x_max":1125,"o":"m 1125 963 l 851 0 l 574 0 l 578 746 l 372 0 l 99 0 l 97 963 l 307 963 l 276 167 l 500 963 l 722 963 l 715 167 l 919 963 l 1125 963 m 483 1068 q 413 1094 439 1068 q 388 1160 388 1119 q 422 1245 388 1211 q 506 1279 456 1279 q 576 1253 550 1279 q 601 1188 601 1228 q 567 1102 601 1136 q 483 1068 533 1068 m 775 1068 q 706 1094 732 1068 q 679 1160 679 1119 q 713 1245 679 1211 q 797 1279 747 1279 q 867 1253 840 1279 q 893 1188 893 1228 q 859 1102 893 1136 q 775 1068 825 1068 z "},"Ẁ":{"ha":1056,"x_min":97,"x_max":1125,"o":"m 1125 963 l 851 0 l 574 0 l 578 746 l 372 0 l 99 0 l 97 963 l 307 963 l 276 167 l 500 963 l 722 963 l 715 167 l 919 963 l 1125 963 m 569 1306 l 822 1136 l 764 1040 l 481 1153 l 569 1306 z "},"Ⱳ":{"ha":1115,"x_min":97,"x_max":1246,"o":"m 372 0 l 578 746 l 574 0 l 849 0 l 1044 765 q 1071 815 1054 800 q 1113 831 1088 831 q 1169 811 1140 831 l 1246 931 q 1092 985 1179 985 q 944 938 1000 985 q 863 781 888 892 l 715 165 l 722 963 l 500 963 l 276 167 l 307 963 l 97 963 l 99 0 l 372 0 z "},"Ƿ":{"ha":743,"x_min":26,"x_max":774,"o":"m 564 986 q 715 924 657 986 q 774 754 774 863 q 723 560 774 640 q 588 424 672 479 q 378 319 503 369 l 279 282 l 240 0 l 26 0 l 161 963 l 375 963 l 368 910 q 564 986 451 986 m 351 463 q 550 735 550 563 q 472 829 550 829 q 349 774 408 829 l 301 439 l 351 463 z "},"X":{"ha":721,"x_min":-60,"x_max":790,"o":"m 790 963 l 504 518 l 676 0 l 449 0 l 360 382 l 172 0 l -60 0 l 249 511 l 93 963 l 319 963 l 390 636 l 560 963 l 790 963 z "},"Y":{"ha":736,"x_min":72,"x_max":832,"o":"m 832 963 l 475 361 l 424 0 l 210 0 l 260 361 l 72 963 l 297 963 l 392 529 l 603 963 l 832 963 z "},"Ý":{"ha":736,"x_min":72,"x_max":832,"o":"m 832 963 l 475 361 l 424 0 l 210 0 l 260 361 l 72 963 l 297 963 l 392 529 l 603 963 l 832 963 m 599 1308 l 667 1154 l 356 1039 l 308 1139 l 599 1308 z "},"Ŷ":{"ha":736,"x_min":72,"x_max":832,"o":"m 832 963 l 475 361 l 424 0 l 210 0 l 260 361 l 72 963 l 297 963 l 392 529 l 603 963 l 832 963 m 296 1050 l 225 1135 l 426 1313 l 551 1313 l 706 1129 l 625 1050 l 475 1168 l 296 1050 z "},"Ÿ":{"ha":736,"x_min":72,"x_max":832,"o":"m 832 963 l 475 361 l 424 0 l 210 0 l 260 361 l 72 963 l 297 963 l 392 529 l 603 963 l 832 963 m 319 1068 q 249 1094 275 1068 q 224 1160 224 1119 q 258 1245 224 1211 q 342 1279 292 1279 q 412 1253 386 1279 q 438 1188 438 1228 q 403 1102 438 1136 q 319 1068 369 1068 m 611 1068 q 542 1094 568 1068 q 515 1160 515 1119 q 549 1245 515 1211 q 633 1279 583 1279 q 703 1253 676 1279 q 729 1188 729 1228 q 695 1102 729 1136 q 611 1068 661 1068 z "},"Ỵ":{"ha":736,"x_min":72,"x_max":832,"o":"m 832 963 l 475 361 l 424 0 l 210 0 l 260 361 l 72 963 l 297 963 l 392 529 l 603 963 l 832 963 m 300 -86 q 380 -115 350 -86 q 410 -192 410 -144 q 371 -288 410 -250 q 274 -326 332 -326 q 194 -297 224 -326 q 165 -221 165 -268 q 204 -124 165 -162 q 300 -86 243 -86 z "},"Ỳ":{"ha":736,"x_min":72,"x_max":832,"o":"m 832 963 l 475 361 l 424 0 l 210 0 l 260 361 l 72 963 l 297 963 l 392 529 l 603 963 l 832 963 m 406 1306 l 658 1136 l 600 1040 l 317 1153 l 406 1306 z "},"Ƴ":{"ha":774,"x_min":72,"x_max":904,"o":"m 260 361 l 72 963 l 299 963 l 390 529 l 518 808 q 612 945 560 904 q 750 986 664 986 q 904 931 836 986 l 828 811 q 799 826 811 821 q 771 831 788 831 q 731 817 747 831 q 694 769 714 804 l 475 363 l 424 0 l 210 0 l 260 361 z "},"Ỷ":{"ha":736,"x_min":72,"x_max":832,"o":"m 832 963 l 475 361 l 424 0 l 210 0 l 260 361 l 72 963 l 297 963 l 392 529 l 603 963 l 832 963 m 418 1185 q 491 1201 467 1188 q 515 1246 515 1215 q 472 1282 515 1282 q 399 1263 438 1282 l 375 1354 q 508 1388 432 1388 q 617 1352 578 1388 q 656 1258 656 1317 q 531 1121 656 1146 l 524 1061 l 404 1061 l 418 1185 z "},"Ȳ":{"ha":736,"x_min":72,"x_max":832,"o":"m 832 963 l 475 361 l 424 0 l 210 0 l 260 361 l 72 963 l 297 963 l 392 529 l 603 963 l 832 963 m 654 1086 l 274 1086 l 296 1233 l 676 1233 l 654 1086 z "},"Ʀ":{"ha":769,"x_min":26,"x_max":744,"o":"m 744 556 q 697 376 744 453 q 546 250 650 299 l 703 -160 l 476 -160 l 350 210 l 269 211 l 240 0 l 26 0 l 161 963 l 375 963 l 353 803 l 413 803 q 662 740 579 803 q 744 556 744 676 m 292 363 l 363 363 q 487 416 449 363 q 525 544 525 469 q 494 624 525 599 q 399 649 463 649 l 331 649 l 292 363 z "},"Ɏ":{"ha":738,"x_min":40,"x_max":833,"o":"m 768 851 l 817 851 l 799 728 l 694 728 l 476 361 l 425 0 l 211 0 l 263 361 l 147 728 l 40 728 l 58 851 l 108 851 l 74 963 l 282 963 l 310 851 l 565 851 l 622 963 l 833 963 l 768 851 m 392 513 l 501 728 l 339 728 l 392 513 z "},"Ỹ":{"ha":736,"x_min":72,"x_max":832,"o":"m 832 963 l 475 361 l 424 0 l 210 0 l 260 361 l 72 963 l 297 963 l 392 529 l 603 963 l 832 963 m 544 1060 q 501 1069 519 1060 q 456 1097 482 1079 q 429 1115 443 1107 q 404 1122 415 1122 q 367 1108 383 1122 q 329 1060 351 1093 l 236 1115 q 317 1228 271 1185 q 415 1272 364 1272 q 462 1263 443 1272 q 506 1235 481 1253 q 556 1210 536 1210 q 590 1224 574 1210 q 628 1269 607 1238 l 722 1217 q 640 1103 686 1146 q 544 1060 593 1060 z "},"Z":{"ha":672,"x_min":-33,"x_max":718,"o":"m -33 0 l -10 163 l 454 793 l 114 793 l 139 963 l 718 963 l 693 797 l 231 174 l 617 174 l 569 0 l -33 0 z "},"Ź":{"ha":672,"x_min":-33,"x_max":718,"o":"m -33 0 l -10 163 l 454 793 l 114 793 l 139 963 l 718 963 l 693 797 l 231 174 l 617 174 l 569 0 l -33 0 m 572 1308 l 640 1154 l 329 1039 l 282 1139 l 572 1308 z "},"Ž":{"ha":672,"x_min":-33,"x_max":718,"o":"m -33 0 l -10 163 l 454 793 l 114 793 l 139 963 l 718 963 l 693 797 l 231 174 l 617 174 l 569 0 l -33 0 m 628 1304 l 699 1219 l 497 1042 l 372 1042 l 217 1225 l 300 1304 l 449 1188 l 628 1304 z "},"Ż":{"ha":672,"x_min":-33,"x_max":718,"o":"m -33 0 l -10 163 l 454 793 l 114 793 l 139 963 l 718 963 l 693 797 l 231 174 l 617 174 l 569 0 l -33 0 m 444 1056 q 365 1085 394 1056 q 335 1161 335 1114 q 374 1258 335 1219 q 471 1296 413 1296 q 550 1267 521 1296 q 579 1190 579 1238 q 540 1094 579 1132 q 444 1056 501 1056 z "},"Ẓ":{"ha":672,"x_min":-33,"x_max":718,"o":"m -33 0 l -10 163 l 454 793 l 114 793 l 139 963 l 718 963 l 693 797 l 231 174 l 617 174 l 569 0 l -33 0 m 251 -86 q 331 -115 301 -86 q 361 -192 361 -144 q 322 -288 361 -250 q 225 -326 283 -326 q 146 -297 175 -326 q 117 -221 117 -268 q 156 -124 117 -162 q 251 -86 194 -86 z "},"Ȥ":{"ha":661,"x_min":-33,"x_max":718,"o":"m 693 797 l 233 174 l 603 174 l 578 0 l 568 -65 q 476 -245 549 -183 q 294 -307 403 -307 q 119 -247 188 -307 l 203 -126 q 244 -147 226 -140 q 285 -153 261 -153 q 339 -131 318 -153 q 365 -67 360 -108 l 374 0 l -33 0 l -10 163 l 454 793 l 114 793 l 139 963 l 718 963 l 693 797 z "},"Ƶ":{"ha":672,"x_min":-33,"x_max":718,"o":"m 718 963 l 693 797 l 504 549 l 600 549 l 581 411 l 399 411 l 218 174 l 617 174 l 569 0 l -33 0 l -10 163 l 179 411 l 76 411 l 96 549 l 283 549 l 469 793 l 114 793 l 139 963 l 718 963 z "},"ʙ":{"ha":675,"x_min":22,"x_max":650,"o":"m 650 583 q 608 466 650 511 q 481 404 565 421 q 632 257 632 386 q 541 65 632 131 q 297 0 450 0 l 22 0 l 124 729 q 386 760 264 760 q 580 713 510 760 q 650 583 650 667 m 343 447 q 419 477 392 447 q 446 561 446 507 q 428 610 446 594 q 371 625 410 625 q 310 619 349 625 l 286 447 l 343 447 m 299 139 q 390 171 354 139 q 426 268 426 203 q 405 319 426 304 q 339 335 383 335 l 271 335 l 243 139 l 299 139 z "},"ɢ":{"ha":703,"x_min":33,"x_max":682,"o":"m 433 761 q 576 734 517 761 q 682 660 636 707 l 571 551 q 506 596 538 582 q 432 610 474 610 q 292 509 338 610 q 246 267 246 408 q 269 160 246 192 q 340 129 293 129 q 429 149 383 129 l 449 292 l 367 292 l 368 431 l 657 431 l 607 65 q 476 2 549 25 q 321 -21 403 -21 q 106 53 178 -21 q 33 271 33 126 q 84 526 33 414 q 226 699 135 638 q 433 761 317 761 z "},"ʛ":{"ha":701,"x_min":33,"x_max":929,"o":"m 763 1053 q 929 999 858 1053 l 854 874 q 776 897 815 897 q 727 876 744 897 q 704 814 710 856 l 682 660 l 582 564 q 507 599 542 588 q 432 610 472 610 q 292 509 338 610 q 246 267 246 408 q 269 160 246 192 q 340 129 293 129 q 429 149 382 129 l 447 292 l 367 292 l 368 431 l 657 431 l 607 65 q 476 2 549 25 q 321 -21 403 -21 q 106 53 178 -21 q 33 271 33 126 q 84 526 33 414 q 222 699 135 638 q 418 761 310 761 q 515 744 471 761 l 529 839 q 603 998 544 943 q 763 1053 663 1053 z "},"ʜ":{"ha":724,"x_min":22,"x_max":703,"o":"m 394 0 l 436 297 l 269 297 l 228 0 l 22 0 l 125 738 l 331 738 l 290 451 l 457 451 l 497 738 l 703 738 l 600 0 l 394 0 z "},"ɪ":{"ha":413,"x_min":-35,"x_max":449,"o":"m 428 590 l 340 590 l 278 147 l 365 147 l 346 0 l -35 0 l -15 147 l 72 147 l 133 590 l 47 590 l 68 738 l 449 738 l 428 590 z "},"ʟ":{"ha":557,"x_min":22,"x_max":522,"o":"m 331 738 l 251 163 l 522 163 l 476 0 l 22 0 l 125 738 l 331 738 z "},"ɴ":{"ha":726,"x_min":22,"x_max":704,"o":"m 601 0 l 358 0 l 247 553 l 247 493 q 229 217 247 349 l 199 0 l 22 0 l 125 738 l 367 738 l 479 185 l 478 261 q 492 474 478 371 l 529 738 l 704 738 l 601 0 z "},"ɶ":{"ha":947,"x_min":35,"x_max":978,"o":"m 654 592 q 689 444 689 525 l 886 444 l 867 303 l 671 303 q 592 146 649 215 l 892 146 l 871 0 l 432 0 q 310 -24 378 -24 q 108 55 181 -24 q 35 276 35 133 q 75 509 35 399 q 201 690 115 619 q 418 761 288 761 q 536 738 489 761 l 978 738 l 936 592 l 654 592 m 328 132 q 422 190 386 132 q 473 328 458 247 q 488 483 488 408 q 467 576 488 547 q 404 606 446 606 q 310 548 346 606 q 259 410 274 490 q 244 254 244 329 q 265 161 244 190 q 328 132 286 132 z "},"ʀ":{"ha":671,"x_min":22,"x_max":626,"o":"m 626 525 q 482 293 626 363 l 604 0 l 399 0 l 307 257 l 254 257 l 218 0 l 22 0 l 125 738 l 356 738 q 626 525 626 738 m 272 396 l 318 396 q 399 428 372 396 q 426 518 426 461 q 406 576 426 558 q 343 593 386 593 l 300 593 l 272 396 z "},"ʁ":{"ha":671,"x_min":22,"x_max":707,"o":"m 504 439 q 592 274 592 388 q 505 69 592 138 q 267 0 418 0 l 22 0 l 125 738 l 321 738 l 285 479 l 342 479 l 501 738 l 707 738 l 504 439 m 275 144 q 361 174 331 144 q 392 265 392 204 q 371 322 392 304 q 308 339 350 339 l 265 339 l 239 144 l 275 144 z "},"ʏ":{"ha":638,"x_min":46,"x_max":697,"o":"m 697 738 l 408 268 l 369 0 l 164 0 l 203 267 l 46 738 l 261 738 l 324 413 l 479 738 l 697 738 z "},"a":{"ha":725,"x_min":32,"x_max":701,"o":"m 433 761 q 701 689 569 761 l 632 207 q 629 171 629 179 q 636 138 629 150 q 663 117 643 125 l 600 -19 q 499 14 540 -14 q 443 93 457 42 q 354 7 403 38 q 243 -24 306 -24 q 88 51 143 -24 q 32 251 32 125 q 73 494 32 378 q 204 686 114 611 q 433 761 294 761 m 422 611 q 321 557 361 611 q 261 419 281 503 q 242 249 242 336 q 259 158 242 185 q 311 132 276 132 q 372 157 343 132 q 432 228 400 182 l 485 600 q 422 611 451 611 z "},"á":{"ha":725,"x_min":32,"x_max":701,"o":"m 433 761 q 701 689 569 761 l 632 207 q 629 171 629 179 q 636 138 629 150 q 663 117 643 125 l 600 -19 q 499 14 540 -14 q 443 93 457 42 q 354 7 403 38 q 243 -24 306 -24 q 88 51 143 -24 q 32 251 32 125 q 73 494 32 378 q 204 686 114 611 q 433 761 294 761 m 422 611 q 321 557 361 611 q 261 419 281 503 q 242 249 242 336 q 259 158 242 185 q 311 132 276 132 q 372 157 343 132 q 432 228 400 182 l 485 600 q 422 611 451 611 m 590 1150 l 658 996 l 346 867 l 296 969 l 590 1150 z "},"ă":{"ha":725,"x_min":32,"x_max":703,"o":"m 433 761 q 701 689 569 761 l 632 207 q 629 171 629 179 q 636 138 629 150 q 663 117 643 125 l 600 -19 q 499 14 540 -14 q 443 93 457 42 q 354 7 403 38 q 243 -24 306 -24 q 88 51 143 -24 q 32 251 32 125 q 73 494 32 378 q 204 686 114 611 q 433 761 294 761 m 422 611 q 321 557 361 611 q 261 419 281 503 q 242 249 242 336 q 259 158 242 185 q 311 132 276 132 q 372 157 343 132 q 432 228 400 182 l 485 600 q 422 611 451 611 m 463 881 q 315 947 364 881 q 274 1115 267 1014 l 386 1132 q 472 1026 393 1026 q 545 1056 514 1026 q 594 1136 576 1085 l 703 1111 q 619 944 682 1008 q 463 881 557 881 z "},"ắ":{"ha":725,"x_min":32,"x_max":715,"o":"m 614 1360 l 715 1251 l 488 1054 l 415 1122 l 614 1360 m 464 833 q 318 898 367 833 q 276 1056 269 963 l 386 1072 q 412 1006 390 1031 q 474 981 433 981 q 546 1007 515 981 q 593 1076 576 1033 l 706 1050 q 623 894 686 956 q 464 833 560 833 m 433 761 q 701 689 569 761 l 632 207 q 629 171 629 179 q 636 138 629 150 q 663 117 643 125 l 600 -19 q 499 14 540 -14 q 443 93 457 42 q 354 7 403 38 q 243 -24 306 -24 q 88 51 143 -24 q 32 251 32 125 q 73 494 32 378 q 204 686 114 611 q 433 761 294 761 m 422 611 q 321 557 361 611 q 261 419 281 503 q 242 249 242 336 q 259 158 242 185 q 311 132 276 132 q 372 157 343 132 q 432 228 400 182 l 485 600 q 422 611 451 611 z "},"ặ":{"ha":725,"x_min":32,"x_max":703,"o":"m 433 761 q 701 689 569 761 l 632 207 q 629 171 629 179 q 636 138 629 150 q 663 117 643 125 l 600 -19 q 499 14 540 -14 q 443 93 457 42 q 354 7 403 38 q 243 -24 306 -24 q 88 51 143 -24 q 32 251 32 125 q 73 494 32 378 q 204 686 114 611 q 433 761 294 761 m 422 611 q 321 557 361 611 q 261 419 281 503 q 242 249 242 336 q 259 158 242 185 q 311 132 276 132 q 372 157 343 132 q 432 228 400 182 l 485 600 q 422 611 451 611 m 463 881 q 315 947 364 881 q 274 1115 267 1014 l 386 1132 q 472 1026 393 1026 q 545 1056 514 1026 q 594 1136 576 1085 l 703 1111 q 619 944 682 1008 q 463 881 557 881 m 325 -86 q 405 -115 375 -86 q 435 -192 435 -144 q 396 -288 435 -250 q 299 -326 357 -326 q 219 -297 249 -326 q 190 -221 190 -268 q 229 -124 190 -162 q 325 -86 268 -86 z "},"ằ":{"ha":725,"x_min":32,"x_max":706,"o":"m 426 1356 l 560 1115 l 475 1054 l 301 1260 l 426 1356 m 464 833 q 318 898 367 833 q 276 1056 269 963 l 386 1072 q 412 1006 390 1031 q 474 981 433 981 q 546 1007 515 981 q 593 1076 576 1033 l 706 1050 q 623 894 686 956 q 464 833 560 833 m 433 761 q 701 689 569 761 l 632 207 q 629 171 629 179 q 636 138 629 150 q 663 117 643 125 l 600 -19 q 499 14 540 -14 q 443 93 457 42 q 354 7 403 38 q 243 -24 306 -24 q 88 51 143 -24 q 32 251 32 125 q 73 494 32 378 q 204 686 114 611 q 433 761 294 761 m 422 611 q 321 557 361 611 q 261 419 281 503 q 242 249 242 336 q 259 158 242 185 q 311 132 276 132 q 372 157 343 132 q 432 228 400 182 l 485 600 q 422 611 451 611 z "},"ẳ":{"ha":725,"x_min":32,"x_max":707,"o":"m 433 761 q 701 689 569 761 l 632 207 q 629 171 629 179 q 636 138 629 150 q 663 117 643 125 l 600 -19 q 499 14 540 -14 q 443 93 457 42 q 354 7 403 38 q 243 -24 306 -24 q 88 51 143 -24 q 32 251 32 125 q 73 494 32 378 q 204 686 114 611 q 433 761 294 761 m 422 611 q 321 557 361 611 q 261 419 281 503 q 242 249 242 336 q 259 158 242 185 q 311 132 276 132 q 372 157 343 132 q 432 228 400 182 l 485 600 q 422 611 451 611 m 465 833 q 319 898 368 833 q 278 1056 271 963 l 388 1072 q 413 1006 392 1031 q 475 981 435 981 q 547 1007 517 981 q 594 1076 578 1033 l 707 1050 q 624 894 688 956 q 465 833 561 833 m 444 1190 q 517 1208 494 1194 q 540 1253 540 1222 q 499 1289 540 1289 q 424 1269 467 1289 l 400 1361 q 533 1394 463 1394 q 642 1359 603 1394 q 681 1265 681 1324 q 648 1173 681 1207 q 557 1128 615 1139 l 546 1054 l 426 1054 l 444 1190 z "},"ẵ":{"ha":725,"x_min":32,"x_max":749,"o":"m 572 1108 q 528 1117 549 1108 q 485 1143 508 1126 q 459 1160 472 1153 q 435 1167 446 1167 q 398 1153 414 1167 q 360 1108 382 1139 l 268 1160 q 349 1267 303 1226 q 444 1308 394 1308 q 492 1299 472 1308 q 535 1272 511 1289 q 561 1254 550 1260 q 583 1249 572 1249 q 619 1262 603 1249 q 656 1306 635 1275 l 749 1256 q 667 1149 713 1189 q 572 1108 621 1108 m 464 833 q 318 898 367 833 q 276 1056 269 963 l 386 1072 q 412 1006 390 1031 q 474 981 433 981 q 546 1007 515 981 q 593 1076 576 1033 l 706 1050 q 623 894 686 956 q 464 833 560 833 m 433 761 q 701 689 569 761 l 632 207 q 629 171 629 179 q 636 138 629 150 q 663 117 643 125 l 600 -19 q 499 14 540 -14 q 443 93 457 42 q 354 7 403 38 q 243 -24 306 -24 q 88 51 143 -24 q 32 251 32 125 q 73 494 32 378 q 204 686 114 611 q 433 761 294 761 m 422 611 q 321 557 361 611 q 261 419 281 503 q 242 249 242 336 q 259 158 242 185 q 311 132 276 132 q 372 157 343 132 q 432 228 400 182 l 485 600 q 422 611 451 611 z "},"ǎ":{"ha":725,"x_min":32,"x_max":724,"o":"m 433 761 q 701 689 569 761 l 632 207 q 629 171 629 179 q 636 138 629 150 q 663 117 643 125 l 600 -19 q 499 14 540 -14 q 443 93 457 42 q 354 7 403 38 q 243 -24 306 -24 q 88 51 143 -24 q 32 251 32 125 q 73 494 32 378 q 204 686 114 611 q 433 761 294 761 m 422 611 q 321 557 361 611 q 261 419 281 503 q 242 249 242 336 q 259 158 242 185 q 311 132 276 132 q 372 157 343 132 q 432 228 400 182 l 485 600 q 422 611 451 611 m 656 1122 l 724 1038 l 522 851 l 397 851 l 247 1038 l 325 1122 l 471 997 l 656 1122 z "},"â":{"ha":725,"x_min":32,"x_max":714,"o":"m 433 761 q 701 689 569 761 l 632 207 q 629 171 629 179 q 636 138 629 150 q 663 117 643 125 l 600 -19 q 499 14 540 -14 q 443 93 457 42 q 354 7 403 38 q 243 -24 306 -24 q 88 51 143 -24 q 32 251 32 125 q 73 494 32 378 q 204 686 114 611 q 433 761 294 761 m 422 611 q 321 557 361 611 q 261 419 281 503 q 242 249 242 336 q 259 158 242 185 q 311 132 276 132 q 372 157 343 132 q 432 228 400 182 l 485 600 q 422 611 451 611 m 301 865 l 233 950 l 435 1138 l 560 1138 l 714 944 l 628 865 l 482 992 l 301 865 z "},"ấ":{"ha":725,"x_min":32,"x_max":899,"o":"m 797 1319 l 899 1211 l 671 1014 l 599 1082 l 797 1319 m 289 814 l 218 899 l 419 1076 l 544 1076 l 699 893 l 618 814 l 468 932 l 289 814 m 433 761 q 701 689 569 761 l 632 207 q 629 171 629 179 q 636 138 629 150 q 663 117 643 125 l 600 -19 q 499 14 540 -14 q 443 93 457 42 q 354 7 403 38 q 243 -24 306 -24 q 88 51 143 -24 q 32 251 32 125 q 73 494 32 378 q 204 686 114 611 q 433 761 294 761 m 422 611 q 321 557 361 611 q 261 419 281 503 q 242 249 242 336 q 259 158 242 185 q 311 132 276 132 q 372 157 343 132 q 432 228 400 182 l 485 600 q 422 611 451 611 z "},"ậ":{"ha":725,"x_min":32,"x_max":714,"o":"m 433 761 q 701 689 569 761 l 632 207 q 629 171 629 179 q 636 138 629 150 q 663 117 643 125 l 600 -19 q 499 14 540 -14 q 443 93 457 42 q 354 7 403 38 q 243 -24 306 -24 q 88 51 143 -24 q 32 251 32 125 q 73 494 32 378 q 204 686 114 611 q 433 761 294 761 m 422 611 q 321 557 361 611 q 261 419 281 503 q 242 249 242 336 q 259 158 242 185 q 311 132 276 132 q 372 157 343 132 q 432 228 400 182 l 485 600 q 422 611 451 611 m 301 865 l 233 950 l 435 1138 l 560 1138 l 714 944 l 628 865 l 482 992 l 301 865 m 325 -86 q 405 -115 375 -86 q 435 -192 435 -144 q 396 -288 435 -250 q 299 -326 357 -326 q 219 -297 249 -326 q 190 -221 190 -268 q 229 -124 190 -162 q 325 -86 268 -86 z "},"ầ":{"ha":725,"x_min":32,"x_max":701,"o":"m 225 1315 l 358 1075 l 274 1014 l 100 1219 l 225 1315 m 288 814 l 217 899 l 418 1076 l 543 1076 l 697 893 l 617 814 l 467 932 l 288 814 m 433 761 q 701 689 569 761 l 632 207 q 629 171 629 179 q 636 138 629 150 q 663 117 643 125 l 600 -19 q 499 14 540 -14 q 443 93 457 42 q 354 7 403 38 q 243 -24 306 -24 q 88 51 143 -24 q 32 251 32 125 q 73 494 32 378 q 204 686 114 611 q 433 761 294 761 m 422 611 q 321 557 361 611 q 261 419 281 503 q 242 249 242 336 q 259 158 242 185 q 311 132 276 132 q 372 157 343 132 q 432 228 400 182 l 485 600 q 422 611 451 611 z "},"ẩ":{"ha":725,"x_min":32,"x_max":871,"o":"m 433 761 q 701 689 569 761 l 632 207 q 629 171 629 179 q 636 138 629 150 q 663 117 643 125 l 600 -19 q 499 14 540 -14 q 443 93 457 42 q 354 7 403 38 q 243 -24 306 -24 q 88 51 143 -24 q 32 251 32 125 q 73 494 32 378 q 204 686 114 611 q 433 761 294 761 m 422 611 q 321 557 361 611 q 261 419 281 503 q 242 249 242 336 q 259 158 242 185 q 311 132 276 132 q 372 157 343 132 q 432 228 400 182 l 485 600 q 422 611 451 611 m 286 814 l 215 899 l 417 1076 l 542 1076 l 696 893 l 615 814 l 465 932 l 286 814 m 635 1178 q 708 1196 685 1182 q 731 1240 731 1210 q 689 1276 731 1276 q 614 1257 657 1276 l 590 1349 q 724 1382 653 1382 q 832 1347 793 1382 q 871 1253 871 1311 q 838 1160 871 1194 q 747 1115 806 1126 l 736 1042 l 617 1042 l 635 1178 z "},"ẫ":{"ha":725,"x_min":32,"x_max":749,"o":"m 572 1108 q 528 1117 549 1108 q 485 1143 508 1126 q 459 1160 472 1153 q 435 1167 446 1167 q 398 1153 414 1167 q 360 1108 382 1139 l 268 1160 q 349 1267 303 1226 q 444 1308 394 1308 q 492 1299 472 1308 q 535 1272 511 1289 q 561 1254 550 1260 q 583 1249 572 1249 q 619 1262 603 1249 q 656 1306 635 1275 l 749 1256 q 667 1149 713 1189 q 572 1108 621 1108 m 289 807 l 218 892 l 419 1069 l 544 1069 l 699 886 l 618 807 l 468 925 l 289 807 m 433 761 q 701 689 569 761 l 632 207 q 629 171 629 179 q 636 138 629 150 q 663 117 643 125 l 600 -19 q 499 14 540 -14 q 443 93 457 42 q 354 7 403 38 q 243 -24 306 -24 q 88 51 143 -24 q 32 251 32 125 q 73 494 32 378 q 204 686 114 611 q 433 761 294 761 m 422 611 q 321 557 361 611 q 261 419 281 503 q 242 249 242 336 q 259 158 242 185 q 311 132 276 132 q 372 157 343 132 q 432 228 400 182 l 485 600 q 422 611 451 611 z "},"ȁ":{"ha":725,"x_min":32,"x_max":701,"o":"m 433 761 q 701 689 569 761 l 632 207 q 629 171 629 179 q 636 138 629 150 q 663 117 643 125 l 600 -19 q 499 14 540 -14 q 443 93 457 42 q 354 7 403 38 q 243 -24 306 -24 q 88 51 143 -24 q 32 251 32 125 q 73 494 32 378 q 204 686 114 611 q 433 761 294 761 m 422 611 q 321 557 361 611 q 261 419 281 503 q 242 249 242 336 q 259 158 242 185 q 311 132 276 132 q 372 157 343 132 q 432 228 400 182 l 485 600 q 422 611 451 611 m 346 1190 l 432 918 l 317 869 l 194 1124 l 346 1190 m 565 1190 l 640 918 l 526 876 l 414 1128 l 565 1190 z "},"ä":{"ha":725,"x_min":32,"x_max":733,"o":"m 433 761 q 701 689 569 761 l 632 207 q 629 171 629 179 q 636 138 629 150 q 663 117 643 125 l 600 -19 q 499 14 540 -14 q 443 93 457 42 q 354 7 403 38 q 243 -24 306 -24 q 88 51 143 -24 q 32 251 32 125 q 73 494 32 378 q 204 686 114 611 q 433 761 294 761 m 422 611 q 321 557 361 611 q 261 419 281 503 q 242 249 242 336 q 259 158 242 185 q 311 132 276 132 q 372 157 343 132 q 432 228 400 182 l 485 600 q 422 611 451 611 m 324 893 q 253 919 279 893 q 228 985 228 944 q 262 1070 228 1036 q 346 1104 296 1104 q 416 1078 390 1104 q 442 1013 442 1053 q 408 927 442 961 q 324 893 374 893 m 615 893 q 546 919 572 893 q 519 985 519 944 q 553 1070 519 1036 q 638 1104 588 1104 q 707 1078 681 1104 q 733 1013 733 1053 q 699 927 733 961 q 615 893 665 893 z "},"ǟ":{"ha":725,"x_min":32,"x_max":724,"o":"m 433 761 q 701 689 569 761 l 632 207 q 629 171 629 179 q 636 138 629 150 q 663 117 643 125 l 600 -19 q 499 14 540 -14 q 443 93 457 42 q 354 7 403 38 q 243 -24 306 -24 q 88 51 143 -24 q 32 251 32 125 q 73 494 32 378 q 204 686 114 611 q 433 761 294 761 m 422 611 q 321 557 361 611 q 261 419 281 503 q 242 249 242 336 q 259 158 242 185 q 311 132 276 132 q 372 157 343 132 q 432 228 400 182 l 485 600 q 422 611 451 611 m 314 840 q 244 866 269 840 q 218 932 218 892 q 252 1017 218 983 q 336 1051 286 1051 q 406 1026 381 1051 q 432 960 432 1000 q 398 874 432 908 q 314 840 364 840 m 606 840 q 536 866 563 840 q 510 932 510 892 q 544 1017 510 983 q 628 1051 578 1051 q 697 1026 671 1051 q 724 960 724 1000 q 690 874 724 908 q 606 840 656 840 m 679 1113 l 299 1113 l 321 1260 l 701 1260 l 679 1113 z "},"ȧ":{"ha":725,"x_min":32,"x_max":701,"o":"m 433 761 q 701 689 569 761 l 632 207 q 629 171 629 179 q 636 138 629 150 q 663 117 643 125 l 600 -19 q 499 14 540 -14 q 443 93 457 42 q 354 7 403 38 q 243 -24 306 -24 q 88 51 143 -24 q 32 251 32 125 q 73 494 32 378 q 204 686 114 611 q 433 761 294 761 m 422 611 q 321 557 361 611 q 261 419 281 503 q 242 249 242 336 q 259 158 242 185 q 311 132 276 132 q 372 157 343 132 q 432 228 400 182 l 485 600 q 422 611 451 611 m 468 881 q 388 910 418 881 q 358 986 358 939 q 397 1083 358 1044 q 494 1121 436 1121 q 574 1092 544 1121 q 603 1015 603 1063 q 564 919 603 957 q 468 881 525 881 z "},"ạ":{"ha":725,"x_min":32,"x_max":701,"o":"m 433 761 q 701 689 569 761 l 632 207 q 629 171 629 179 q 636 138 629 150 q 663 117 643 125 l 600 -19 q 499 14 540 -14 q 443 93 457 42 q 354 7 403 38 q 243 -24 306 -24 q 88 51 143 -24 q 32 251 32 125 q 73 494 32 378 q 204 686 114 611 q 433 761 294 761 m 422 611 q 321 557 361 611 q 261 419 281 503 q 242 249 242 336 q 259 158 242 185 q 311 132 276 132 q 372 157 343 132 q 432 228 400 182 l 485 600 q 422 611 451 611 m 325 -86 q 405 -115 375 -86 q 435 -192 435 -144 q 396 -288 435 -250 q 299 -326 357 -326 q 219 -297 249 -326 q 190 -221 190 -268 q 229 -124 190 -162 q 325 -86 268 -86 z "},"ǡ":{"ha":725,"x_min":32,"x_max":704,"o":"m 433 761 q 701 689 569 761 l 632 207 q 629 171 629 179 q 636 138 629 150 q 663 117 643 125 l 600 -19 q 499 14 540 -14 q 443 93 457 42 q 354 7 403 38 q 243 -24 306 -24 q 88 51 143 -24 q 32 251 32 125 q 73 494 32 378 q 204 686 114 611 q 433 761 294 761 m 422 611 q 321 557 361 611 q 261 419 281 503 q 242 249 242 336 q 259 158 242 185 q 311 132 276 132 q 372 157 343 132 q 432 228 400 182 l 485 600 q 422 611 451 611 m 458 826 q 378 856 408 826 q 349 932 349 885 q 388 1028 349 990 q 485 1067 426 1067 q 564 1038 535 1067 q 593 961 593 1008 q 554 865 593 903 q 458 826 515 826 m 682 1114 l 301 1114 l 324 1261 l 704 1261 l 682 1114 z "},"à":{"ha":725,"x_min":32,"x_max":701,"o":"m 433 761 q 701 689 569 761 l 632 207 q 629 171 629 179 q 636 138 629 150 q 663 117 643 125 l 600 -19 q 499 14 540 -14 q 443 93 457 42 q 354 7 403 38 q 243 -24 306 -24 q 88 51 143 -24 q 32 251 32 125 q 73 494 32 378 q 204 686 114 611 q 433 761 294 761 m 422 611 q 321 557 361 611 q 261 419 281 503 q 242 249 242 336 q 259 158 242 185 q 311 132 276 132 q 372 157 343 132 q 432 228 400 182 l 485 600 q 422 611 451 611 m 413 1149 l 665 967 l 604 869 l 322 996 l 413 1149 z "},"ả":{"ha":725,"x_min":32,"x_max":701,"o":"m 433 761 q 701 689 569 761 l 632 207 q 629 171 629 179 q 636 138 629 150 q 663 117 643 125 l 600 -19 q 499 14 540 -14 q 443 93 457 42 q 354 7 403 38 q 243 -24 306 -24 q 88 51 143 -24 q 32 251 32 125 q 73 494 32 378 q 204 686 114 611 q 433 761 294 761 m 422 611 q 321 557 361 611 q 261 419 281 503 q 242 249 242 336 q 259 158 242 185 q 311 132 276 132 q 372 157 343 132 q 432 228 400 182 l 485 600 q 422 611 451 611 m 417 978 q 490 996 467 982 q 513 1040 513 1010 q 471 1076 513 1076 q 396 1057 439 1076 l 372 1149 q 506 1182 435 1182 q 614 1147 575 1182 q 653 1053 653 1111 q 620 960 653 994 q 529 915 588 926 l 518 842 l 399 842 l 417 978 z "},"ȃ":{"ha":725,"x_min":32,"x_max":701,"o":"m 433 761 q 701 689 569 761 l 632 207 q 629 171 629 179 q 636 138 629 150 q 663 117 643 125 l 600 -19 q 499 14 540 -14 q 443 93 457 42 q 354 7 403 38 q 243 -24 306 -24 q 88 51 143 -24 q 32 251 32 125 q 73 494 32 378 q 204 686 114 611 q 433 761 294 761 m 422 611 q 321 557 361 611 q 261 419 281 503 q 242 249 242 336 q 259 158 242 185 q 311 132 276 132 q 372 157 343 132 q 432 228 400 182 l 485 600 q 422 611 451 611 m 243 861 q 331 1028 267 964 q 492 1092 396 1092 q 638 1025 589 1092 q 681 856 686 958 l 565 840 q 478 946 557 946 q 354 835 393 946 l 243 861 z "},"ɑ":{"ha":725,"x_min":32,"x_max":708,"o":"m 632 207 q 629 171 629 179 q 636 138 629 150 q 663 117 643 125 l 600 -19 q 500 14 542 -14 q 443 93 458 42 q 355 6 403 36 q 244 -24 307 -24 q 87 50 142 -24 q 32 251 32 124 q 72 498 32 381 q 189 688 113 615 q 368 760 265 760 q 464 738 425 760 q 528 668 503 717 l 561 738 l 708 738 l 632 207 m 475 539 q 390 611 450 611 q 310 558 344 611 q 259 422 276 506 q 242 250 242 339 q 260 159 242 186 q 313 132 278 132 q 373 157 344 132 q 432 228 401 182 l 475 539 z "},"ɒ":{"ha":725,"x_min":17,"x_max":693,"o":"m 481 761 q 638 688 583 761 q 693 486 693 614 q 653 240 693 357 q 536 50 613 122 q 357 -22 460 -22 q 261 -1 300 -22 q 197 69 222 21 l 164 0 l 17 0 l 93 531 q 96 567 96 558 q 89 600 96 588 q 63 621 82 613 l 125 757 q 225 724 183 751 q 282 644 267 696 q 370 731 322 701 q 481 761 418 761 m 335 126 q 415 179 381 126 q 466 315 449 232 q 483 488 483 399 q 465 578 483 551 q 413 606 447 606 q 352 581 381 606 q 293 510 324 556 l 250 199 q 335 126 275 126 z "},"ā":{"ha":725,"x_min":32,"x_max":701,"o":"m 433 761 q 701 689 569 761 l 632 207 q 629 171 629 179 q 636 138 629 150 q 663 117 643 125 l 600 -19 q 499 14 540 -14 q 443 93 457 42 q 354 7 403 38 q 243 -24 306 -24 q 88 51 143 -24 q 32 251 32 125 q 73 494 32 378 q 204 686 114 611 q 433 761 294 761 m 422 611 q 321 557 361 611 q 261 419 281 503 q 242 249 242 336 q 259 158 242 185 q 311 132 276 132 q 372 157 343 132 q 432 228 400 182 l 485 600 q 422 611 451 611 m 658 911 l 278 911 l 300 1058 l 681 1058 l 658 911 z "},"ą":{"ha":725,"x_min":32,"x_max":701,"o":"m 632 207 q 629 171 629 179 q 636 138 629 150 q 663 117 643 125 l 601 -18 l 601 -19 q 433 -179 433 -89 q 490 -226 433 -226 q 565 -218 524 -226 l 536 -347 q 449 -357 499 -357 q 328 -317 375 -357 q 282 -211 282 -278 q 332 -81 282 -139 q 490 19 382 -24 q 443 93 454 49 q 354 7 403 38 q 243 -24 306 -24 q 88 51 143 -24 q 32 251 32 125 q 73 494 32 378 q 204 686 114 611 q 433 761 294 761 q 701 689 569 761 l 632 207 m 485 600 q 422 611 451 611 q 321 557 361 611 q 261 419 281 503 q 242 249 242 336 q 259 158 242 185 q 311 132 276 132 q 372 157 343 132 q 432 228 400 182 l 485 600 z "},"å":{"ha":725,"x_min":32,"x_max":701,"o":"m 433 761 q 701 689 569 761 l 632 207 q 629 171 629 179 q 636 138 629 150 q 663 117 643 125 l 600 -19 q 499 14 540 -14 q 443 93 457 42 q 354 7 403 38 q 243 -24 306 -24 q 88 51 143 -24 q 32 251 32 125 q 73 494 32 378 q 204 686 114 611 q 433 761 294 761 m 422 611 q 321 557 361 611 q 261 419 281 503 q 242 249 242 336 q 259 158 242 185 q 311 132 276 132 q 372 157 343 132 q 432 228 400 182 l 485 600 q 422 611 451 611 m 504 1199 q 619 1154 578 1199 q 661 1040 661 1110 q 636 942 661 986 q 566 871 611 897 q 463 844 521 844 q 349 888 390 844 q 307 1001 307 932 q 332 1099 307 1054 q 402 1172 357 1144 q 504 1199 447 1199 m 494 1093 q 444 1067 463 1093 q 425 1007 425 1042 q 438 963 425 978 q 472 949 450 949 q 523 974 504 949 q 542 1035 542 1000 q 494 1093 542 1093 z "},"ǻ":{"ha":725,"x_min":32,"x_max":701,"o":"m 433 761 q 701 689 569 761 l 632 207 q 629 171 629 179 q 636 138 629 150 q 663 117 643 125 l 600 -19 q 499 14 540 -14 q 443 93 457 42 q 354 7 403 38 q 243 -24 306 -24 q 88 51 143 -24 q 32 251 32 125 q 73 494 32 378 q 204 686 114 611 q 433 761 294 761 m 422 611 q 321 557 361 611 q 261 419 281 503 q 242 249 242 336 q 259 158 242 185 q 311 132 276 132 q 372 157 343 132 q 432 228 400 182 l 485 600 q 422 611 451 611 m 497 1158 q 613 1114 571 1158 q 654 1000 654 1069 q 629 901 654 946 q 559 831 604 857 q 456 804 514 804 q 342 848 383 804 q 300 961 300 892 q 325 1059 300 1014 q 395 1131 350 1104 q 497 1158 440 1158 m 488 1053 q 437 1027 456 1053 q 418 967 418 1001 q 431 923 418 938 q 465 908 443 908 q 516 934 497 908 q 535 994 535 960 q 488 1053 535 1053 m 614 1433 l 682 1279 l 371 1164 l 324 1264 l 614 1433 z "},"ⱥ":{"ha":725,"x_min":32,"x_max":701,"o":"m 632 207 q 629 171 629 179 q 636 138 629 150 q 663 117 643 125 l 600 -19 q 499 14 540 -14 q 443 93 457 42 q 355 7 403 38 q 244 -24 307 -24 l 214 -103 l 147 -83 l 174 -12 q 68 79 104 10 q 32 251 32 149 q 73 494 32 378 q 204 686 114 611 q 433 761 294 761 q 468 760 457 761 l 496 833 l 563 815 l 538 750 q 701 689 624 733 l 632 207 m 235 244 q 244 171 235 196 l 414 619 q 279 499 324 613 q 235 244 235 386 m 494 606 l 485 610 l 300 124 l 308 124 q 377 151 343 124 q 439 225 411 178 l 494 606 z "},"ã":{"ha":725,"x_min":32,"x_max":724,"o":"m 433 761 q 701 689 569 761 l 632 207 q 629 171 629 179 q 636 138 629 150 q 663 117 643 125 l 600 -19 q 499 14 540 -14 q 443 93 457 42 q 354 7 403 38 q 243 -24 306 -24 q 88 51 143 -24 q 32 251 32 125 q 73 494 32 378 q 204 686 114 611 q 433 761 294 761 m 422 611 q 321 557 361 611 q 261 419 281 503 q 242 249 242 336 q 259 158 242 185 q 311 132 276 132 q 372 157 343 132 q 432 228 400 182 l 485 600 q 422 611 451 611 m 546 885 q 502 894 521 885 q 457 922 483 904 q 431 940 444 932 q 406 947 417 947 q 369 933 385 947 q 331 885 353 918 l 238 940 q 319 1053 272 1010 q 417 1097 365 1097 q 463 1088 444 1097 q 507 1060 482 1078 q 557 1035 538 1035 q 592 1049 575 1035 q 629 1094 608 1063 l 724 1042 q 641 928 688 971 q 546 885 594 885 z "},"ɐ":{"ha":678,"x_min":46,"x_max":669,"o":"m 256 233 q 253 201 253 208 q 273 147 253 163 q 343 132 293 132 q 510 165 417 132 l 550 31 q 424 -9 490 4 q 294 -22 357 -22 q 108 28 171 -22 q 46 176 46 78 q 50 226 46 200 l 92 531 q 94 568 94 558 q 88 600 94 588 q 63 621 81 613 l 124 757 q 219 727 181 750 q 274 660 257 704 q 479 760 353 760 q 618 706 567 760 q 669 564 669 653 q 574 353 669 425 q 325 282 479 282 l 263 282 l 256 233 m 404 610 q 297 542 343 610 l 278 399 l 319 399 q 425 435 388 399 q 463 540 463 471 q 404 610 463 610 z "},"æ":{"ha":1056,"x_min":8,"x_max":1047,"o":"m 371 760 q 489 737 443 760 q 565 668 535 714 q 669 736 608 711 q 803 761 731 761 q 982 705 917 761 q 1047 564 1047 649 q 927 356 1047 422 q 614 269 807 290 q 642 164 615 196 q 725 132 669 132 q 806 148 767 132 q 894 199 844 164 l 967 75 q 696 -24 842 -24 q 454 93 524 -24 q 342 4 400 31 q 215 -22 283 -22 q 64 31 119 -22 q 8 174 8 85 q 89 367 8 290 q 361 444 169 444 l 431 444 q 456 522 440 485 q 417 583 450 561 q 336 604 385 604 q 160 569 260 604 l 131 708 q 371 760 257 760 m 782 619 q 679 556 718 619 q 625 399 640 493 q 791 452 738 410 q 844 556 844 494 q 782 619 844 619 m 363 324 q 262 292 297 324 q 226 199 226 261 q 288 126 226 126 q 350 149 321 126 q 414 215 379 171 q 411 271 411 246 l 413 324 l 363 324 z "},"ǽ":{"ha":1056,"x_min":8,"x_max":1047,"o":"m 371 760 q 489 737 443 760 q 565 668 535 714 q 669 736 608 711 q 803 761 731 761 q 982 705 917 761 q 1047 564 1047 649 q 927 356 1047 422 q 614 269 807 290 q 642 164 615 196 q 725 132 669 132 q 806 148 767 132 q 894 199 844 164 l 967 75 q 696 -24 842 -24 q 454 93 524 -24 q 342 4 400 31 q 215 -22 283 -22 q 64 31 119 -22 q 8 174 8 85 q 89 367 8 290 q 361 444 169 444 l 431 444 q 456 522 440 485 q 417 583 450 561 q 336 604 385 604 q 160 569 260 604 l 131 708 q 371 760 257 760 m 782 619 q 679 556 718 619 q 625 399 640 493 q 791 452 738 410 q 844 556 844 494 q 782 619 844 619 m 363 324 q 262 292 297 324 q 226 199 226 261 q 288 126 226 126 q 350 149 321 126 q 414 215 379 171 q 411 271 411 246 l 413 324 l 363 324 m 728 1150 l 796 996 l 483 867 l 433 969 l 728 1150 z "},"ǣ":{"ha":1056,"x_min":8,"x_max":1047,"o":"m 371 760 q 489 737 443 760 q 565 668 535 714 q 669 736 608 711 q 803 761 731 761 q 982 705 917 761 q 1047 564 1047 649 q 927 356 1047 422 q 614 269 807 290 q 642 164 615 196 q 725 132 669 132 q 806 148 767 132 q 894 199 844 164 l 967 75 q 696 -24 842 -24 q 454 93 524 -24 q 342 4 400 31 q 215 -22 283 -22 q 64 31 119 -22 q 8 174 8 85 q 89 367 8 290 q 361 444 169 444 l 431 444 q 456 522 440 485 q 417 583 450 561 q 336 604 385 604 q 160 569 260 604 l 131 708 q 371 760 257 760 m 782 619 q 679 556 718 619 q 625 399 640 493 q 791 452 738 410 q 844 556 844 494 q 782 619 844 619 m 363 324 q 262 292 297 324 q 226 199 226 261 q 288 126 226 126 q 350 149 321 126 q 414 215 379 171 q 411 271 411 246 l 413 324 l 363 324 m 796 911 l 415 911 l 438 1058 l 818 1058 l 796 911 z "},"b":{"ha":738,"x_min":26,"x_max":706,"o":"m 506 761 q 653 692 600 761 q 706 494 706 622 q 610 126 706 275 q 300 -24 515 -24 q 26 36 167 -24 l 165 1031 l 374 1053 l 321 675 q 406 738 358 715 q 506 761 454 761 m 422 606 q 300 525 363 606 l 247 144 q 325 131 289 131 q 422 185 383 131 q 477 323 460 240 q 494 488 494 406 q 476 579 494 553 q 422 606 457 606 z "},"ḃ":{"ha":738,"x_min":26,"x_max":706,"o":"m 506 761 q 653 692 600 761 q 706 494 706 622 q 610 126 706 275 q 300 -24 515 -24 q 26 36 167 -24 l 165 1031 l 374 1053 l 321 675 q 406 738 358 715 q 506 761 454 761 m 422 606 q 300 525 363 606 l 247 144 q 325 131 289 131 q 422 185 383 131 q 477 323 460 240 q 494 488 494 406 q 476 579 494 553 q 422 606 457 606 m 517 1124 q 437 1153 467 1124 q 407 1229 407 1182 q 446 1326 407 1288 q 543 1364 485 1364 q 622 1335 593 1364 q 651 1258 651 1306 q 613 1162 651 1200 q 517 1124 574 1124 z "},"ḅ":{"ha":738,"x_min":26,"x_max":706,"o":"m 506 761 q 653 692 600 761 q 706 494 706 622 q 610 126 706 275 q 300 -24 515 -24 q 26 36 167 -24 l 165 1031 l 374 1053 l 321 675 q 406 738 358 715 q 506 761 454 761 m 422 606 q 300 525 363 606 l 247 144 q 325 131 289 131 q 422 185 383 131 q 477 323 460 240 q 494 488 494 406 q 476 579 494 553 q 422 606 457 606 m 294 -86 q 374 -115 344 -86 q 404 -192 404 -144 q 365 -288 404 -250 q 268 -326 326 -326 q 189 -297 218 -326 q 160 -221 160 -268 q 199 -124 160 -162 q 294 -86 238 -86 z "},"ꞵ":{"ha":753,"x_min":-22,"x_max":715,"o":"m 128 765 q 235 977 147 901 q 456 1053 324 1053 q 645 988 575 1053 q 715 819 715 922 q 665 656 715 729 q 504 560 615 583 q 651 499 590 553 q 711 338 711 446 q 677 173 711 256 q 570 34 643 90 q 389 -22 497 -22 q 224 36 289 -22 l 181 -283 l -22 -308 l 128 765 m 350 138 q 467 201 429 138 q 506 343 506 264 q 376 481 506 481 l 333 481 l 367 624 l 394 624 q 483 681 453 624 q 513 810 513 739 q 440 904 513 904 q 326 761 347 904 l 244 175 q 350 138 286 138 z "},"ɓ":{"ha":738,"x_min":26,"x_max":706,"o":"m 506 761 q 653 692 601 761 q 706 494 706 622 q 610 126 706 275 q 300 -24 515 -24 q 26 36 167 -24 l 124 736 l 136 821 q 224 989 151 925 q 418 1053 297 1053 q 600 1006 515 1053 l 526 874 q 429 897 479 897 q 367 875 389 897 q 339 803 346 853 l 331 736 l 322 675 q 406 738 358 715 q 506 761 454 761 m 325 131 q 422 185 383 131 q 477 323 460 240 q 494 488 494 406 q 476 579 494 553 q 422 606 457 606 q 300 525 363 606 l 247 144 q 325 131 289 131 z "},"ʭ":{"ha":467,"x_min":-8,"x_max":481,"o":"m 449 554 l 326 554 l 342 676 l 210 676 l 192 554 l 69 554 l 101 781 l 481 781 l 449 554 m 371 -1 l 249 -1 l 264 121 l 132 121 l 114 -1 l -8 -1 l 24 225 l 403 225 l 371 -1 z "},"ʘ":{"ha":999,"x_min":53,"x_max":979,"o":"m 586 986 q 794 938 706 986 q 931 799 883 889 q 979 585 979 708 q 912 269 979 407 q 724 54 844 131 q 446 -22 603 -22 q 238 26 326 -22 q 101 165 149 75 q 53 381 53 256 q 121 696 53 558 q 310 910 189 833 q 586 986 431 986 m 574 839 q 397 778 469 839 q 290 611 325 717 q 254 372 254 506 q 308 185 254 246 q 460 124 361 124 q 635 184 564 124 q 742 349 707 244 q 778 588 778 454 q 724 776 778 714 q 574 839 669 839 m 508 369 q 438 395 464 369 q 411 463 411 421 q 446 548 411 514 q 532 582 481 582 q 601 556 576 582 q 626 489 626 531 q 592 404 626 439 q 508 369 558 369 z "},"ʬ":{"ha":589,"x_min":44,"x_max":624,"o":"m 624 926 l 497 556 l 367 556 l 363 826 l 279 556 l 150 556 l 122 926 l 218 926 l 228 640 l 318 926 l 438 926 l 443 639 l 531 926 l 624 926 m 546 371 l 419 0 l 289 0 l 285 271 l 201 0 l 72 0 l 44 371 l 140 371 l 150 85 l 240 371 l 360 371 l 365 83 l 453 371 l 546 371 z "},"ƀ":{"ha":751,"x_min":39,"x_max":718,"o":"m 518 761 q 665 692 613 761 q 718 494 718 622 q 623 126 718 275 q 313 -24 528 -24 q 39 36 179 -24 l 150 831 l 76 831 l 96 956 l 167 956 l 178 1031 l 386 1053 l 372 956 l 543 956 l 508 831 l 356 831 l 333 675 q 419 738 371 715 q 518 761 467 761 m 338 131 q 434 185 396 131 q 490 323 472 240 q 507 488 507 406 q 488 579 507 553 q 435 606 469 606 q 313 525 375 606 l 260 144 q 338 131 301 131 z "},"ƃ":{"ha":739,"x_min":26,"x_max":704,"o":"m 506 744 q 653 675 601 744 q 704 476 704 606 q 666 233 704 346 q 538 49 628 121 q 300 -24 447 -24 q 26 36 167 -24 l 165 1031 l 642 1031 l 596 879 l 349 879 l 318 660 q 406 722 357 700 q 506 744 454 744 m 325 131 q 420 185 382 131 q 476 317 458 239 q 494 468 494 394 q 476 563 494 536 q 422 590 457 590 q 359 568 392 590 q 297 508 326 546 l 247 144 q 325 131 289 131 z "},"c":{"ha":597,"x_min":35,"x_max":638,"o":"m 419 761 q 638 668 551 761 l 536 553 q 481 589 507 578 q 424 600 454 600 q 291 501 332 600 q 250 275 250 401 q 275 172 250 201 q 347 142 300 142 q 408 153 379 142 q 475 189 436 164 l 550 61 q 317 -24 443 -24 q 110 58 185 -24 q 35 281 35 139 q 78 512 35 401 q 208 692 121 622 q 419 761 294 761 z "},"ć":{"ha":597,"x_min":35,"x_max":638,"o":"m 419 761 q 638 668 551 761 l 536 553 q 481 589 507 578 q 424 600 454 600 q 291 501 332 600 q 250 275 250 401 q 275 172 250 201 q 347 142 300 142 q 408 153 379 142 q 475 189 436 164 l 550 61 q 317 -24 443 -24 q 110 58 185 -24 q 35 281 35 139 q 78 512 35 401 q 208 692 121 622 q 419 761 294 761 m 560 1150 l 628 996 l 315 867 l 265 969 l 560 1150 z "},"č":{"ha":597,"x_min":35,"x_max":693,"o":"m 419 761 q 638 668 551 761 l 536 553 q 481 589 507 578 q 424 600 454 600 q 291 501 332 600 q 250 275 250 401 q 275 172 250 201 q 347 142 300 142 q 408 153 379 142 q 475 189 436 164 l 550 61 q 317 -24 443 -24 q 110 58 185 -24 q 35 281 35 139 q 78 512 35 401 q 208 692 121 622 q 419 761 294 761 m 625 1122 l 693 1038 l 492 851 l 367 851 l 217 1038 l 294 1122 l 440 997 l 625 1122 z "},"ç":{"ha":597,"x_min":35,"x_max":638,"o":"m 550 61 q 350 -22 457 -12 l 343 -71 q 428 -109 399 -78 q 457 -190 457 -140 q 436 -270 457 -231 q 369 -335 415 -310 q 250 -361 322 -361 q 111 -317 167 -361 l 169 -225 q 206 -241 189 -236 q 246 -246 224 -246 q 291 -233 274 -246 q 310 -197 308 -221 q 285 -164 310 -174 q 201 -154 261 -154 l 236 -14 q 88 86 140 10 q 35 281 35 163 q 78 512 35 401 q 208 692 121 622 q 419 761 294 761 q 638 668 551 761 l 536 553 q 481 589 507 578 q 424 600 454 600 q 291 501 332 600 q 250 275 250 401 q 275 172 250 201 q 347 142 300 142 q 408 153 379 142 q 475 189 436 164 l 550 61 z "},"ĉ":{"ha":597,"x_min":35,"x_max":683,"o":"m 419 761 q 638 668 551 761 l 536 553 q 481 589 507 578 q 424 600 454 600 q 291 501 332 600 q 250 275 250 401 q 275 172 250 201 q 347 142 300 142 q 408 153 379 142 q 475 189 436 164 l 550 61 q 317 -24 443 -24 q 110 58 185 -24 q 35 281 35 139 q 78 512 35 401 q 208 692 121 622 q 419 761 294 761 m 271 865 l 203 950 l 404 1138 l 529 1138 l 683 944 l 597 865 l 451 992 l 271 865 z "},"ɕ":{"ha":633,"x_min":35,"x_max":638,"o":"m 451 349 q 557 310 517 349 q 597 203 597 272 q 522 37 597 96 q 333 -22 447 -22 q 244 -12 283 -22 l 189 -115 l 99 -74 l 154 28 q 65 130 96 64 q 35 285 35 196 q 78 513 35 404 q 208 692 121 622 q 419 761 294 761 q 638 668 551 761 l 536 553 q 481 589 507 578 q 424 600 454 600 q 291 501 332 600 q 250 275 250 401 q 256 201 250 225 q 343 314 296 279 q 451 349 390 349 m 374 129 q 433 148 411 129 q 457 201 456 167 q 425 236 457 236 q 376 213 400 236 q 325 135 353 189 q 374 129 346 129 z "},"ċ":{"ha":597,"x_min":35,"x_max":638,"o":"m 419 761 q 638 668 551 761 l 536 553 q 481 589 507 578 q 424 600 454 600 q 291 501 332 600 q 250 275 250 401 q 275 172 250 201 q 347 142 300 142 q 408 153 379 142 q 475 189 436 164 l 550 61 q 317 -24 443 -24 q 110 58 185 -24 q 35 281 35 139 q 78 512 35 401 q 208 692 121 622 q 419 761 294 761 m 438 881 q 358 910 388 881 q 328 986 328 939 q 367 1083 328 1044 q 464 1121 406 1121 q 543 1092 514 1121 q 572 1015 572 1063 q 533 919 572 957 q 438 881 494 881 z "},"ƈ":{"ha":597,"x_min":35,"x_max":883,"o":"m 717 1053 q 883 999 813 1053 l 808 874 q 731 897 768 897 q 681 876 699 897 q 657 808 664 854 l 638 668 l 546 563 q 424 600 485 600 q 291 501 332 600 q 250 275 250 401 q 275 172 250 201 q 347 142 300 142 q 408 153 379 142 q 475 189 436 164 l 550 61 q 317 -24 443 -24 q 110 58 185 -24 q 35 281 35 139 q 77 510 35 400 q 201 691 119 621 q 394 761 283 761 q 469 749 433 761 l 482 839 q 557 998 497 943 q 717 1053 617 1053 z "},"ʗ":{"ha":618,"x_min":22,"x_max":658,"o":"m 446 761 q 564 738 513 761 q 658 669 615 715 l 558 554 q 505 589 531 578 q 449 600 479 600 q 330 517 378 600 q 259 310 282 435 q 236 57 236 186 q 260 -99 236 -56 q 332 -142 285 -142 q 392 -131 364 -142 q 457 -94 419 -119 l 532 -222 q 301 -307 425 -307 q 96 -214 168 -307 q 22 58 24 -121 q 72 412 22 251 q 218 667 122 572 q 446 761 314 761 z "},"ȼ":{"ha":597,"x_min":35,"x_max":638,"o":"m 347 142 q 408 153 379 142 q 475 189 436 164 l 550 61 q 317 -24 443 -24 q 264 -19 289 -24 l 232 -103 l 165 -83 l 196 -1 q 76 103 118 31 q 35 281 35 176 q 78 512 35 401 q 208 692 121 622 q 419 761 294 761 q 485 756 457 761 l 514 833 l 581 815 l 550 733 q 638 668 597 711 l 536 553 q 493 583 514 571 l 325 143 q 347 142 332 142 m 250 275 q 267 185 250 217 l 425 600 l 424 600 q 291 501 332 600 q 250 275 250 401 z "},"d":{"ha":742,"x_min":32,"x_max":761,"o":"m 761 1031 l 617 0 l 435 0 l 438 99 q 351 8 400 40 q 239 -24 303 -24 q 85 49 139 -24 q 32 254 32 122 q 68 492 32 375 q 178 685 104 608 q 360 761 253 761 q 508 689 454 761 l 558 1051 l 761 1031 m 403 607 q 313 550 349 607 q 260 411 276 493 q 244 253 244 329 q 263 158 244 186 q 313 131 281 131 q 381 163 349 131 q 447 251 414 194 l 489 553 q 451 594 471 581 q 403 607 431 607 z "},"ð":{"ha":733,"x_min":31,"x_max":693,"o":"m 526 926 q 653 756 614 851 q 693 535 693 661 q 649 254 693 381 q 517 53 604 128 q 306 -22 429 -22 q 106 53 181 -22 q 31 261 31 128 q 68 451 31 357 q 176 605 106 544 q 338 665 246 665 q 494 597 433 665 q 467 719 488 669 q 403 813 447 768 l 322 735 l 206 797 l 294 883 q 185 915 244 901 l 240 1051 q 413 996 324 1035 l 524 1104 l 615 1015 l 526 926 m 322 131 q 433 215 399 131 q 483 457 467 299 q 382 517 449 517 q 272 434 306 517 q 238 251 238 351 q 322 131 238 131 z "},"ȸ":{"ha":1081,"x_min":33,"x_max":1049,"o":"m 864 760 q 1001 688 953 760 q 1049 485 1049 617 q 1010 238 1049 354 q 901 49 972 121 q 738 -22 831 -22 q 594 83 643 -22 l 571 0 l 411 0 l 411 89 q 233 -22 339 -22 q 85 53 138 -22 q 33 260 33 128 q 72 503 33 388 q 183 689 111 618 q 346 760 254 760 q 426 737 390 760 q 481 672 461 714 l 531 1031 l 740 1053 l 688 668 q 767 735 722 711 q 864 760 811 760 m 310 132 q 418 224 367 132 l 463 542 q 385 607 433 607 q 309 555 340 607 q 262 424 278 503 q 246 267 246 346 q 263 163 246 193 q 310 132 279 132 m 700 131 q 774 185 743 131 q 821 319 806 239 q 836 478 836 400 q 820 577 836 549 q 774 606 804 606 q 668 531 721 606 l 624 210 q 656 149 639 168 q 700 131 674 131 z "},"ď":{"ha":851,"x_min":32,"x_max":978,"o":"m 761 1031 l 617 0 l 435 0 l 438 99 q 351 8 400 40 q 239 -24 303 -24 q 85 49 139 -24 q 32 254 32 122 q 68 492 32 375 q 178 685 104 608 q 360 761 253 761 q 508 689 454 761 l 558 1051 l 761 1031 m 403 607 q 313 550 349 607 q 260 411 276 493 q 244 253 244 329 q 263 158 244 186 q 313 131 281 131 q 381 163 349 131 q 447 251 414 194 l 489 553 q 451 594 471 581 q 403 607 431 607 m 828 1049 l 978 1029 l 876 736 l 772 747 l 828 1049 z "},"ḓ":{"ha":742,"x_min":32,"x_max":761,"o":"m 761 1031 l 617 0 l 435 0 l 438 99 q 351 8 400 40 q 239 -24 303 -24 q 85 49 139 -24 q 32 254 32 122 q 68 492 32 375 q 178 685 104 608 q 360 761 253 761 q 508 689 454 761 l 558 1051 l 761 1031 m 403 607 q 313 550 349 607 q 260 411 276 493 q 244 253 244 329 q 263 158 244 186 q 313 131 281 131 q 381 163 349 131 q 447 251 414 194 l 489 553 q 451 594 471 581 q 403 607 431 607 m 117 -360 l 47 -275 l 250 -89 l 375 -89 l 529 -281 l 443 -360 l 297 -233 l 117 -360 z "},"đ":{"ha":756,"x_min":32,"x_max":825,"o":"m 825 954 l 807 829 l 733 829 l 617 0 l 435 0 l 438 99 q 351 8 400 40 q 239 -24 303 -24 q 85 49 139 -24 q 32 254 32 122 q 68 492 32 375 q 178 685 104 608 q 360 761 253 761 q 508 689 454 761 l 528 829 l 372 829 l 375 954 l 544 954 l 558 1051 l 761 1031 l 750 954 l 825 954 m 489 553 q 451 594 471 581 q 403 607 431 607 q 313 550 349 607 q 260 411 276 493 q 244 253 244 329 q 263 158 244 186 q 313 131 281 131 q 381 163 349 131 q 447 251 414 194 l 489 553 z "},"ȡ":{"ha":988,"x_min":32,"x_max":969,"o":"m 833 336 q 931 299 893 336 q 969 197 969 261 q 895 35 969 92 q 707 -22 821 -22 q 642 -18 672 -22 l 590 -115 l 500 -74 l 547 10 q 454 117 481 44 q 239 -24 365 -24 q 85 49 139 -24 q 32 254 32 122 q 68 492 32 375 q 178 685 104 608 q 363 761 253 761 q 508 689 454 761 l 558 1051 l 761 1031 l 647 219 q 646 186 644 196 q 727 301 683 265 q 833 336 771 336 m 489 553 q 451 594 471 581 q 403 607 431 607 q 313 550 349 607 q 260 411 276 493 q 244 253 244 329 q 263 158 244 186 q 314 131 281 131 q 381 163 349 131 q 447 253 413 194 l 489 553 m 749 129 q 808 147 786 129 q 831 193 831 164 q 804 224 831 224 q 765 204 783 224 q 721 131 747 185 q 749 129 729 129 z "},"ḋ":{"ha":742,"x_min":32,"x_max":761,"o":"m 761 1031 l 617 0 l 435 0 l 438 99 q 351 8 400 40 q 239 -24 303 -24 q 85 49 139 -24 q 32 254 32 122 q 68 492 32 375 q 178 685 104 608 q 360 761 253 761 q 508 689 454 761 l 558 1051 l 761 1031 m 403 607 q 313 550 349 607 q 260 411 276 493 q 244 253 244 329 q 263 158 244 186 q 313 131 281 131 q 381 163 349 131 q 447 251 414 194 l 489 553 q 451 594 471 581 q 403 607 431 607 m 472 1124 q 392 1153 422 1124 q 363 1229 363 1182 q 401 1326 363 1288 q 499 1364 440 1364 q 578 1335 549 1364 q 607 1258 607 1306 q 568 1162 607 1200 q 472 1124 529 1124 z "},"ḍ":{"ha":742,"x_min":32,"x_max":761,"o":"m 761 1031 l 617 0 l 435 0 l 438 99 q 351 8 400 40 q 239 -24 303 -24 q 85 49 139 -24 q 32 254 32 122 q 68 492 32 375 q 178 685 104 608 q 360 761 253 761 q 508 689 454 761 l 558 1051 l 761 1031 m 403 607 q 313 550 349 607 q 260 411 276 493 q 244 253 244 329 q 263 158 244 186 q 313 131 281 131 q 381 163 349 131 q 447 251 414 194 l 489 553 q 451 594 471 581 q 403 607 431 607 m 311 -86 q 391 -115 361 -86 q 421 -192 421 -144 q 382 -288 421 -250 q 285 -326 343 -326 q 206 -297 235 -326 q 176 -221 176 -268 q 215 -124 176 -162 q 311 -86 254 -86 z "},"ƍ":{"ha":726,"x_min":18,"x_max":693,"o":"m 260 -308 q 18 -208 103 -308 l 124 -108 q 184 -151 153 -137 q 256 -164 215 -164 q 326 -141 303 -164 q 349 -82 349 -118 q 328 -31 349 -53 q 246 19 307 -10 q 88 141 138 74 q 38 314 38 208 q 76 514 38 411 q 200 688 115 617 q 415 760 285 760 q 565 722 501 760 q 660 619 628 685 q 693 472 693 554 q 638 241 693 338 q 447 83 582 144 q 544 -81 544 15 q 513 -191 544 -139 q 416 -276 481 -243 q 260 -308 351 -308 m 347 142 q 454 287 426 207 q 482 478 482 367 q 461 573 482 540 q 399 606 440 606 q 285 515 322 606 q 249 307 249 425 q 270 212 249 249 q 347 142 292 175 z "},"ʤ":{"ha":1268,"x_min":32,"x_max":1257,"o":"m 1238 593 l 968 290 q 1143 223 1083 282 q 1203 60 1203 164 q 1153 -133 1203 -50 q 1017 -262 1104 -217 q 822 -307 931 -307 q 544 -164 638 -307 l 667 -64 q 741 -127 706 -108 q 825 -146 776 -146 q 947 -92 901 -146 q 992 56 992 -37 q 959 144 992 118 q 860 169 926 169 l 742 169 l 743 171 l 760 293 l 1013 581 l 699 581 l 617 0 l 435 0 l 438 99 q 351 8 400 40 q 239 -24 303 -24 q 85 49 139 -24 q 32 254 32 122 q 68 492 32 375 q 178 685 104 608 q 360 761 253 761 q 508 689 454 761 l 558 1051 l 761 1031 l 719 738 l 1257 738 l 1238 593 m 489 553 q 451 594 471 581 q 403 607 431 607 q 313 550 349 607 q 260 411 276 493 q 244 253 244 329 q 263 158 244 186 q 313 131 281 131 q 381 163 349 131 q 447 251 414 194 l 489 553 z "},"ɗ":{"ha":740,"x_min":32,"x_max":958,"o":"m 792 1053 q 958 999 885 1053 l 881 874 q 804 897 842 897 q 756 877 774 897 q 732 815 739 857 l 721 738 l 719 738 l 617 0 l 435 0 l 438 99 q 351 8 400 40 q 239 -24 303 -24 q 85 49 139 -24 q 32 254 32 122 q 68 492 32 375 q 178 685 104 608 q 363 761 253 761 q 508 689 454 761 l 514 738 l 515 738 l 525 813 q 609 988 540 922 q 792 1053 678 1053 m 489 553 q 452 594 472 581 q 403 607 432 607 q 313 550 349 607 q 260 411 276 493 q 244 253 244 329 q 263 158 244 186 q 314 131 281 131 q 381 163 349 131 q 446 251 414 194 l 489 553 z "},"ḏ":{"ha":742,"x_min":32,"x_max":761,"o":"m 761 1031 l 617 0 l 435 0 l 438 99 q 351 8 400 40 q 239 -24 303 -24 q 85 49 139 -24 q 32 254 32 122 q 68 492 32 375 q 178 685 104 608 q 360 761 253 761 q 508 689 454 761 l 558 1051 l 761 1031 m 403 607 q 313 550 349 607 q 260 411 276 493 q 244 253 244 329 q 263 158 244 186 q 313 131 281 131 q 381 163 349 131 q 447 251 414 194 l 489 553 q 451 594 471 581 q 403 607 431 607 m 132 -115 l 513 -115 l 490 -262 l 110 -262 l 132 -115 z "},"ɖ":{"ha":746,"x_min":32,"x_max":806,"o":"m 806 -250 q 619 -307 728 -307 q 459 -253 517 -307 q 401 -100 401 -200 q 404 -53 401 -86 l 411 0 l 424 85 q 347 6 393 36 q 239 -24 300 -24 q 85 49 139 -24 q 32 254 32 122 q 68 492 32 375 q 178 685 104 608 q 363 761 253 761 q 508 689 454 761 l 558 1051 l 761 1031 l 617 0 l 607 -76 q 606 -94 606 -83 q 663 -153 606 -153 q 706 -147 688 -153 q 750 -128 725 -140 l 806 -250 m 314 131 q 381 163 349 131 q 446 251 414 194 l 489 553 q 452 594 472 581 q 403 607 432 607 q 313 550 349 607 q 260 411 276 493 q 244 253 244 329 q 263 158 244 186 q 314 131 281 131 z "},"ƌ":{"ha":742,"x_min":32,"x_max":761,"o":"m 617 0 l 435 0 l 438 99 q 239 -24 357 -24 q 85 49 138 -24 q 32 254 32 121 q 68 483 32 371 q 178 670 104 596 q 358 744 251 744 q 506 672 451 744 l 533 879 l 274 879 l 294 1031 l 761 1031 l 617 0 m 486 536 q 449 577 469 564 q 400 590 429 590 q 312 535 347 590 q 260 402 276 481 q 243 253 243 324 q 261 158 243 186 q 313 131 279 131 q 380 163 347 131 q 446 251 413 194 l 486 536 z "},"ǳ":{"ha":1311,"x_min":32,"x_max":1335,"o":"m 761 1031 l 617 0 l 435 0 l 438 99 q 351 8 400 40 q 239 -24 303 -24 q 85 49 139 -24 q 32 254 32 122 q 68 492 32 375 q 178 685 104 608 q 360 761 253 761 q 508 689 454 761 l 558 1051 l 761 1031 m 403 607 q 313 550 349 607 q 260 411 276 493 q 244 253 244 329 q 263 158 244 186 q 313 131 281 131 q 381 163 349 131 q 447 251 414 194 l 489 553 q 451 594 471 581 q 403 607 431 607 m 1335 738 l 1314 589 l 974 160 l 1264 160 l 1221 0 l 704 0 l 725 149 l 1067 579 l 810 579 l 833 738 l 1335 738 z "},"ʣ":{"ha":1222,"x_min":32,"x_max":1246,"o":"m 1225 589 l 881 160 l 1174 160 l 1132 0 l 435 0 l 438 99 q 351 8 400 40 q 239 -24 303 -24 q 85 49 139 -24 q 32 254 32 122 q 68 492 32 375 q 178 685 104 608 q 360 761 253 761 q 508 689 454 761 l 558 1051 l 761 1031 l 719 738 l 1246 738 l 1225 589 m 489 553 q 451 594 471 581 q 403 607 431 607 q 313 550 349 607 q 260 411 276 493 q 244 253 244 329 q 263 158 244 186 q 313 131 281 131 q 381 163 349 131 q 447 251 414 194 l 489 553 m 638 147 l 979 579 l 697 579 l 638 147 z "},"ǆ":{"ha":1311,"x_min":32,"x_max":1364,"o":"m 761 1031 l 617 0 l 435 0 l 438 99 q 351 8 400 40 q 239 -24 303 -24 q 85 49 139 -24 q 32 254 32 122 q 68 492 32 375 q 178 685 104 608 q 360 761 253 761 q 508 689 454 761 l 558 1051 l 761 1031 m 403 607 q 313 550 349 607 q 260 411 276 493 q 244 253 244 329 q 263 158 244 186 q 313 131 281 131 q 381 163 349 131 q 447 251 414 194 l 489 553 q 451 594 471 581 q 403 607 431 607 m 1335 738 l 1314 589 l 974 160 l 1264 160 l 1221 0 l 704 0 l 725 149 l 1067 579 l 810 579 l 833 738 l 1335 738 m 1296 1122 l 1364 1038 l 1163 851 l 1038 851 l 888 1038 l 965 1122 l 1111 997 l 1296 1122 z "},"ʥ":{"ha":1336,"x_min":32,"x_max":1340,"o":"m 1194 361 q 1301 324 1261 361 q 1340 219 1340 286 q 1263 53 1340 107 q 1058 0 1186 -1 l 1064 17 l 1054 0 l 1049 0 q 1027 -108 1036 -47 q 1017 -179 1018 -169 l 901 -175 q 933 0 914 -83 l 435 0 l 438 99 q 351 8 400 40 q 239 -24 303 -24 q 85 49 139 -24 q 32 254 32 122 q 68 492 32 375 q 178 685 104 608 q 360 761 253 761 q 508 689 454 761 l 558 1051 l 761 1031 l 719 738 l 1244 738 l 1225 600 l 869 160 l 978 160 q 1071 315 1018 268 q 1194 361 1124 361 m 489 553 q 451 594 471 581 q 403 607 431 607 q 313 550 349 607 q 260 411 276 493 q 244 253 244 329 q 263 158 244 186 q 313 131 281 131 q 381 163 349 131 q 447 251 414 194 l 489 553 m 697 579 l 638 153 l 982 579 l 697 579 m 1104 160 q 1178 174 1153 160 q 1203 219 1203 188 q 1174 250 1203 250 q 1093 160 1124 250 l 1104 160 z "},"e":{"ha":681,"x_min":33,"x_max":672,"o":"m 428 761 q 607 705 542 761 q 672 564 672 649 q 552 356 672 422 q 240 268 432 289 l 240 265 q 269 163 240 194 q 350 132 297 132 q 431 148 392 132 q 519 199 469 164 l 592 75 q 321 -24 467 -24 q 108 53 183 -24 q 33 271 33 131 q 75 506 33 394 q 206 690 117 618 q 428 761 294 761 m 251 397 q 417 451 364 407 q 469 557 469 494 q 455 602 469 585 q 408 619 440 619 q 306 556 344 619 q 251 397 268 493 z "},"é":{"ha":681,"x_min":33,"x_max":672,"o":"m 428 761 q 607 705 542 761 q 672 564 672 649 q 552 356 672 422 q 240 268 432 289 l 240 265 q 269 163 240 194 q 350 132 297 132 q 431 148 392 132 q 519 199 469 164 l 592 75 q 321 -24 467 -24 q 108 53 183 -24 q 33 271 33 131 q 75 506 33 394 q 206 690 117 618 q 428 761 294 761 m 251 397 q 417 451 364 407 q 469 557 469 494 q 455 602 469 585 q 408 619 440 619 q 306 556 344 619 q 251 397 268 493 m 560 1150 l 628 996 l 315 867 l 265 969 l 560 1150 z "},"ĕ":{"ha":681,"x_min":33,"x_max":672,"o":"m 428 761 q 607 705 542 761 q 672 564 672 649 q 552 356 672 422 q 240 268 432 289 l 240 265 q 269 163 240 194 q 350 132 297 132 q 431 148 392 132 q 519 199 469 164 l 592 75 q 321 -24 467 -24 q 108 53 183 -24 q 33 271 33 131 q 75 506 33 394 q 206 690 117 618 q 428 761 294 761 m 251 397 q 417 451 364 407 q 469 557 469 494 q 455 602 469 585 q 408 619 440 619 q 306 556 344 619 q 251 397 268 493 m 432 881 q 285 947 333 881 q 243 1115 236 1014 l 356 1132 q 442 1026 363 1026 q 515 1056 483 1026 q 564 1136 546 1085 l 672 1111 q 589 944 651 1008 q 432 881 526 881 z "},"ě":{"ha":681,"x_min":33,"x_max":693,"o":"m 428 761 q 607 705 542 761 q 672 564 672 649 q 552 356 672 422 q 240 268 432 289 l 240 265 q 269 163 240 194 q 350 132 297 132 q 431 148 392 132 q 519 199 469 164 l 592 75 q 321 -24 467 -24 q 108 53 183 -24 q 33 271 33 131 q 75 506 33 394 q 206 690 117 618 q 428 761 294 761 m 251 397 q 417 451 364 407 q 469 557 469 494 q 455 602 469 585 q 408 619 440 619 q 306 556 344 619 q 251 397 268 493 m 625 1122 l 693 1038 l 492 851 l 367 851 l 217 1038 l 294 1122 l 440 997 l 625 1122 z "},"ȩ":{"ha":681,"x_min":33,"x_max":672,"o":"m 428 761 q 607 705 542 761 q 672 564 672 649 q 552 356 672 422 q 240 268 432 289 l 240 265 q 269 163 240 194 q 350 132 297 132 q 431 148 392 132 q 519 199 469 164 l 592 75 q 369 -21 485 -8 l 363 -71 q 447 -109 418 -78 q 476 -190 476 -140 q 456 -270 476 -231 q 388 -335 435 -310 q 269 -361 342 -361 q 131 -317 186 -361 l 189 -225 q 226 -241 208 -236 q 265 -246 243 -246 q 310 -233 293 -246 q 329 -197 328 -221 q 305 -164 329 -174 q 221 -154 281 -154 l 254 -18 q 90 74 147 0 q 33 271 33 149 q 75 506 33 394 q 206 690 117 618 q 428 761 294 761 m 251 397 q 417 451 364 407 q 469 557 469 494 q 455 602 469 585 q 408 619 440 619 q 306 556 344 619 q 251 397 268 493 z "},"ê":{"ha":681,"x_min":33,"x_max":683,"o":"m 428 761 q 607 705 542 761 q 672 564 672 649 q 552 356 672 422 q 240 268 432 289 l 240 265 q 269 163 240 194 q 350 132 297 132 q 431 148 392 132 q 519 199 469 164 l 592 75 q 321 -24 467 -24 q 108 53 183 -24 q 33 271 33 131 q 75 506 33 394 q 206 690 117 618 q 428 761 294 761 m 251 397 q 417 451 364 407 q 469 557 469 494 q 455 602 469 585 q 408 619 440 619 q 306 556 344 619 q 251 397 268 493 m 271 865 l 203 950 l 404 1138 l 529 1138 l 683 944 l 597 865 l 451 992 l 271 865 z "},"ế":{"ha":681,"x_min":33,"x_max":868,"o":"m 868 1211 l 640 1014 l 568 1082 l 767 1319 l 868 1211 m 438 932 l 258 814 l 188 899 l 389 1076 l 514 1076 l 668 893 l 588 814 l 438 932 m 428 761 q 607 705 542 761 q 672 564 672 649 q 552 356 672 422 q 240 268 432 289 l 240 265 q 269 163 240 194 q 350 132 297 132 q 431 148 392 132 q 519 199 469 164 l 592 75 q 321 -24 467 -24 q 108 53 183 -24 q 33 271 33 131 q 75 506 33 394 q 206 690 117 618 q 428 761 294 761 m 251 397 q 417 451 364 407 q 469 557 469 494 q 455 602 469 585 q 408 619 440 619 q 306 556 344 619 q 251 397 268 493 z "},"ệ":{"ha":681,"x_min":33,"x_max":683,"o":"m 428 761 q 607 705 542 761 q 672 564 672 649 q 552 356 672 422 q 240 268 432 289 l 240 265 q 269 163 240 194 q 350 132 297 132 q 431 148 392 132 q 519 199 469 164 l 592 75 q 321 -24 467 -24 q 108 53 183 -24 q 33 271 33 131 q 75 506 33 394 q 206 690 117 618 q 428 761 294 761 m 251 397 q 417 451 364 407 q 469 557 469 494 q 455 602 469 585 q 408 619 440 619 q 306 556 344 619 q 251 397 268 493 m 271 865 l 203 950 l 404 1138 l 529 1138 l 683 944 l 597 865 l 451 992 l 271 865 m 300 -86 q 380 -115 350 -86 q 410 -192 410 -144 q 371 -288 410 -250 q 274 -326 332 -326 q 194 -297 224 -326 q 165 -221 165 -268 q 204 -124 165 -162 q 300 -86 243 -86 z "},"ề":{"ha":681,"x_min":33,"x_max":672,"o":"m 328 1075 l 243 1014 l 69 1219 l 194 1315 l 328 1075 m 257 814 l 186 899 l 388 1076 l 513 1076 l 667 893 l 586 814 l 436 932 l 257 814 m 428 761 q 607 705 542 761 q 672 564 672 649 q 552 356 672 422 q 240 268 432 289 l 240 265 q 269 163 240 194 q 350 132 297 132 q 431 148 392 132 q 519 199 469 164 l 592 75 q 321 -24 467 -24 q 108 53 183 -24 q 33 271 33 131 q 75 506 33 394 q 206 690 117 618 q 428 761 294 761 m 251 397 q 417 451 364 407 q 469 557 469 494 q 455 602 469 585 q 408 619 440 619 q 306 556 344 619 q 251 397 268 493 z "},"ể":{"ha":681,"x_min":33,"x_max":840,"o":"m 428 761 q 607 705 542 761 q 672 564 672 649 q 552 356 672 422 q 240 268 432 289 l 240 265 q 269 163 240 194 q 350 132 297 132 q 431 148 392 132 q 519 199 469 164 l 592 75 q 321 -24 467 -24 q 108 53 183 -24 q 33 271 33 131 q 75 506 33 394 q 206 690 117 618 q 428 761 294 761 m 251 397 q 417 451 364 407 q 469 557 469 494 q 455 602 469 585 q 408 619 440 619 q 306 556 344 619 q 251 397 268 493 m 256 814 l 185 899 l 386 1076 l 511 1076 l 665 893 l 585 814 l 435 932 l 256 814 m 604 1178 q 677 1196 654 1182 q 700 1240 700 1210 q 658 1276 700 1276 q 583 1257 626 1276 l 560 1349 q 693 1382 622 1382 q 801 1347 763 1382 q 840 1253 840 1311 q 808 1160 840 1194 q 717 1115 775 1126 l 706 1042 l 586 1042 l 604 1178 z "},"ễ":{"ha":681,"x_min":33,"x_max":718,"o":"m 404 1167 q 367 1153 383 1167 q 329 1108 351 1139 l 238 1160 q 318 1267 272 1226 q 414 1308 364 1308 q 461 1299 442 1308 q 504 1272 481 1289 q 531 1254 519 1260 q 553 1249 542 1249 q 588 1262 572 1249 q 625 1306 604 1275 l 718 1256 q 636 1149 682 1189 q 542 1108 590 1108 q 498 1117 518 1108 q 454 1143 478 1126 q 428 1160 442 1153 q 404 1167 415 1167 m 438 925 l 258 807 l 188 892 l 389 1069 l 514 1069 l 668 886 l 588 807 l 438 925 m 428 761 q 607 705 542 761 q 672 564 672 649 q 552 356 672 422 q 240 268 432 289 l 240 265 q 269 163 240 194 q 350 132 297 132 q 431 148 392 132 q 519 199 469 164 l 592 75 q 321 -24 467 -24 q 108 53 183 -24 q 33 271 33 131 q 75 506 33 394 q 206 690 117 618 q 428 761 294 761 m 251 397 q 417 451 364 407 q 469 557 469 494 q 455 602 469 585 q 408 619 440 619 q 306 556 344 619 q 251 397 268 493 z "},"ȅ":{"ha":681,"x_min":33,"x_max":672,"o":"m 428 761 q 607 705 542 761 q 672 564 672 649 q 552 356 672 422 q 240 268 432 289 l 240 265 q 269 163 240 194 q 350 132 297 132 q 431 148 392 132 q 519 199 469 164 l 592 75 q 321 -24 467 -24 q 108 53 183 -24 q 33 271 33 131 q 75 506 33 394 q 206 690 117 618 q 428 761 294 761 m 251 397 q 417 451 364 407 q 469 557 469 494 q 455 602 469 585 q 408 619 440 619 q 306 556 344 619 q 251 397 268 493 m 315 1190 l 401 918 l 286 869 l 164 1124 l 315 1190 m 535 1190 l 610 918 l 496 876 l 383 1128 l 535 1190 z "},"ë":{"ha":681,"x_min":33,"x_max":703,"o":"m 428 761 q 607 705 542 761 q 672 564 672 649 q 552 356 672 422 q 240 268 432 289 l 240 265 q 269 163 240 194 q 350 132 297 132 q 431 148 392 132 q 519 199 469 164 l 592 75 q 321 -24 467 -24 q 108 53 183 -24 q 33 271 33 131 q 75 506 33 394 q 206 690 117 618 q 428 761 294 761 m 251 397 q 417 451 364 407 q 469 557 469 494 q 455 602 469 585 q 408 619 440 619 q 306 556 344 619 q 251 397 268 493 m 293 893 q 223 919 249 893 q 197 985 197 944 q 231 1070 197 1036 q 315 1104 265 1104 q 385 1078 360 1104 q 411 1013 411 1053 q 377 927 411 961 q 293 893 343 893 m 585 893 q 515 919 542 893 q 489 985 489 944 q 523 1070 489 1036 q 607 1104 557 1104 q 676 1078 650 1104 q 703 1013 703 1053 q 669 927 703 961 q 585 893 635 893 z "},"ė":{"ha":681,"x_min":33,"x_max":672,"o":"m 428 761 q 607 705 542 761 q 672 564 672 649 q 552 356 672 422 q 240 268 432 289 l 240 265 q 269 163 240 194 q 350 132 297 132 q 431 148 392 132 q 519 199 469 164 l 592 75 q 321 -24 467 -24 q 108 53 183 -24 q 33 271 33 131 q 75 506 33 394 q 206 690 117 618 q 428 761 294 761 m 251 397 q 417 451 364 407 q 469 557 469 494 q 455 602 469 585 q 408 619 440 619 q 306 556 344 619 q 251 397 268 493 m 438 881 q 358 910 388 881 q 328 986 328 939 q 367 1083 328 1044 q 464 1121 406 1121 q 543 1092 514 1121 q 572 1015 572 1063 q 533 919 572 957 q 438 881 494 881 z "},"ẹ":{"ha":681,"x_min":33,"x_max":672,"o":"m 428 761 q 607 705 542 761 q 672 564 672 649 q 552 356 672 422 q 240 268 432 289 l 240 265 q 269 163 240 194 q 350 132 297 132 q 431 148 392 132 q 519 199 469 164 l 592 75 q 321 -24 467 -24 q 108 53 183 -24 q 33 271 33 131 q 75 506 33 394 q 206 690 117 618 q 428 761 294 761 m 251 397 q 417 451 364 407 q 469 557 469 494 q 455 602 469 585 q 408 619 440 619 q 306 556 344 619 q 251 397 268 493 m 300 -86 q 380 -115 350 -86 q 410 -192 410 -144 q 371 -288 410 -250 q 274 -326 332 -326 q 194 -297 224 -326 q 165 -221 165 -268 q 204 -124 165 -162 q 300 -86 243 -86 z "},"è":{"ha":681,"x_min":33,"x_max":672,"o":"m 428 761 q 607 705 542 761 q 672 564 672 649 q 552 356 672 422 q 240 268 432 289 l 240 265 q 269 163 240 194 q 350 132 297 132 q 431 148 392 132 q 519 199 469 164 l 592 75 q 321 -24 467 -24 q 108 53 183 -24 q 33 271 33 131 q 75 506 33 394 q 206 690 117 618 q 428 761 294 761 m 251 397 q 417 451 364 407 q 469 557 469 494 q 455 602 469 585 q 408 619 440 619 q 306 556 344 619 q 251 397 268 493 m 382 1149 l 635 967 l 574 869 l 292 996 l 382 1149 z "},"ẻ":{"ha":681,"x_min":33,"x_max":672,"o":"m 428 761 q 607 705 542 761 q 672 564 672 649 q 552 356 672 422 q 240 268 432 289 l 240 265 q 269 163 240 194 q 350 132 297 132 q 431 148 392 132 q 519 199 469 164 l 592 75 q 321 -24 467 -24 q 108 53 183 -24 q 33 271 33 131 q 75 506 33 394 q 206 690 117 618 q 428 761 294 761 m 251 397 q 417 451 364 407 q 469 557 469 494 q 455 602 469 585 q 408 619 440 619 q 306 556 344 619 q 251 397 268 493 m 386 978 q 459 996 436 982 q 482 1040 482 1010 q 440 1076 482 1076 q 365 1057 408 1076 l 342 1149 q 475 1182 404 1182 q 583 1147 544 1182 q 622 1053 622 1111 q 590 960 622 994 q 499 915 557 926 l 488 842 l 368 842 l 386 978 z "},"ȇ":{"ha":681,"x_min":33,"x_max":672,"o":"m 428 761 q 607 705 542 761 q 672 564 672 649 q 552 356 672 422 q 240 268 432 289 l 240 265 q 269 163 240 194 q 350 132 297 132 q 431 148 392 132 q 519 199 469 164 l 592 75 q 321 -24 467 -24 q 108 53 183 -24 q 33 271 33 131 q 75 506 33 394 q 206 690 117 618 q 428 761 294 761 m 251 397 q 417 451 364 407 q 469 557 469 494 q 455 602 469 585 q 408 619 440 619 q 306 556 344 619 q 251 397 268 493 m 213 861 q 301 1028 236 964 q 461 1092 365 1092 q 607 1025 558 1092 q 650 856 656 958 l 535 840 q 447 946 526 946 q 324 835 363 946 l 213 861 z "},"ē":{"ha":681,"x_min":33,"x_max":672,"o":"m 428 761 q 607 705 542 761 q 672 564 672 649 q 552 356 672 422 q 240 268 432 289 l 240 265 q 269 163 240 194 q 350 132 297 132 q 431 148 392 132 q 519 199 469 164 l 592 75 q 321 -24 467 -24 q 108 53 183 -24 q 33 271 33 131 q 75 506 33 394 q 206 690 117 618 q 428 761 294 761 m 251 397 q 417 451 364 407 q 469 557 469 494 q 455 602 469 585 q 408 619 440 619 q 306 556 344 619 q 251 397 268 493 m 628 911 l 247 911 l 269 1058 l 650 1058 l 628 911 z "},"ę":{"ha":681,"x_min":33,"x_max":672,"o":"m 428 761 q 607 705 542 761 q 672 564 672 649 q 552 356 672 422 q 240 268 432 289 l 240 265 q 269 163 240 194 q 350 132 297 132 q 431 148 392 132 q 519 199 469 164 l 592 75 q 449 -4 522 21 q 322 -144 322 -64 q 381 -194 322 -194 q 458 -185 419 -194 l 429 -315 q 342 -326 388 -326 q 216 -288 264 -326 q 168 -185 168 -250 q 275 -21 168 -83 q 97 67 160 -8 q 33 271 33 143 q 75 506 33 394 q 206 690 117 618 q 428 761 294 761 m 251 397 q 417 451 364 407 q 469 557 469 494 q 455 602 469 585 q 408 619 440 619 q 306 556 344 619 q 251 397 268 493 z "},"ɛ":{"ha":619,"x_min":18,"x_max":619,"o":"m 286 -22 q 92 35 167 -22 q 18 193 18 93 q 73 329 18 275 q 231 393 128 383 q 94 543 94 426 q 128 655 94 606 q 226 733 163 704 q 376 761 290 761 q 619 668 528 761 l 524 568 q 463 603 493 592 q 394 614 432 614 q 322 590 347 614 q 296 525 296 565 q 318 468 296 489 q 385 447 340 447 l 457 447 l 417 311 l 353 311 q 259 283 289 311 q 229 208 229 256 q 253 149 229 169 q 326 128 278 128 q 403 142 367 128 q 488 186 440 156 l 558 69 q 437 1 507 25 q 286 -22 367 -22 z "},"ʚ":{"ha":722,"x_min":18,"x_max":686,"o":"m 290 -22 q 93 34 168 -22 q 18 190 18 90 q 72 328 18 274 q 231 393 126 383 q 100 536 100 428 q 136 649 100 597 q 239 731 172 700 q 396 761 306 761 q 610 679 535 761 q 686 456 686 597 q 583 106 686 235 q 290 -22 481 -22 m 313 128 q 444 226 403 128 q 486 457 486 324 q 462 577 486 540 q 389 614 438 614 q 323 589 346 614 q 300 522 300 564 q 378 447 300 447 l 408 447 l 368 311 l 346 311 q 256 282 285 311 q 228 206 228 253 q 249 148 228 168 q 313 128 271 128 z "},"ɜ":{"ha":621,"x_min":-24,"x_max":583,"o":"m 346 761 q 517 711 450 761 q 583 578 583 661 q 536 458 583 507 q 397 392 489 408 q 520 340 479 382 q 561 229 561 299 q 526 107 561 164 q 419 14 492 50 q 236 -22 346 -22 q -24 68 78 -22 l 78 185 q 231 128 153 128 q 320 158 290 128 q 350 238 350 189 q 325 294 350 276 q 250 311 300 311 l 153 311 l 188 447 l 253 447 q 342 475 311 447 q 372 547 372 503 q 300 614 372 614 q 228 602 261 614 q 151 565 194 590 l 75 676 q 346 761 197 761 z "},"ɞ":{"ha":715,"x_min":35,"x_max":678,"o":"m 325 -22 q 108 54 182 -22 q 35 274 35 131 q 83 528 35 418 q 222 700 132 639 q 431 761 311 761 q 608 710 539 761 q 678 575 678 660 q 632 458 678 506 q 499 392 586 410 q 616 340 576 382 q 656 232 656 299 q 622 108 656 165 q 513 14 588 50 q 325 -22 439 -22 m 333 128 q 422 159 393 128 q 450 240 450 190 q 426 294 450 278 q 353 311 401 311 l 315 311 l 353 447 l 364 447 q 442 475 414 447 q 471 549 471 503 q 404 614 471 614 q 278 509 321 614 q 235 265 235 404 q 258 160 235 192 q 333 128 281 128 z "},"ɝ":{"ha":950,"x_min":-24,"x_max":985,"o":"m 985 476 q 824 428 911 428 q 694 471 738 428 q 649 586 651 514 l 647 604 l 583 567 q 532 454 579 500 q 397 392 485 408 q 520 340 479 382 q 561 229 561 299 q 526 107 561 164 q 419 14 492 50 q 236 -22 346 -22 q -24 68 78 -22 l 78 185 q 231 128 153 128 q 320 158 290 128 q 350 238 350 189 q 325 294 350 276 q 250 311 300 311 l 153 311 l 188 447 l 253 447 q 342 475 311 447 q 372 547 372 503 q 300 614 372 614 q 228 602 261 614 q 151 565 194 590 l 75 676 q 346 761 197 761 q 467 740 414 761 q 550 678 519 718 l 657 738 l 826 738 l 813 640 q 864 572 804 572 q 903 577 886 572 q 942 592 919 582 l 985 476 z "},"ɘ":{"ha":686,"x_min":8,"x_max":649,"o":"m 360 761 q 579 675 510 761 q 649 450 649 589 q 602 203 649 310 q 467 37 556 96 q 258 -22 379 -22 q 8 79 103 -22 l 107 190 q 178 146 144 160 q 258 132 213 132 q 419 268 374 132 q 152 333 247 279 q 57 503 57 388 q 94 634 57 575 q 201 727 132 693 q 360 761 269 761 m 267 508 q 307 429 267 457 q 443 396 347 401 q 446 469 446 443 q 424 581 446 543 q 353 619 401 619 q 290 590 313 619 q 267 508 267 560 z "},"ʃ":{"ha":353,"x_min":-236,"x_max":568,"o":"m 401 1053 q 568 999 494 1053 l 490 874 q 414 897 451 897 q 366 877 383 897 q 342 815 349 857 l 331 738 l 228 0 l 226 0 l 218 -61 q 126 -245 200 -183 q -62 -307 51 -307 q -236 -246 -164 -307 l -151 -126 q -110 -147 -128 -140 q -69 -153 -93 -153 q -15 -133 -36 -153 q 11 -75 6 -112 l 21 0 l 22 0 l 125 738 l 135 813 q 219 988 150 922 q 401 1053 288 1053 z "},"ʆ":{"ha":435,"x_min":-161,"x_max":650,"o":"m 483 1053 q 650 999 576 1053 l 572 874 q 496 897 533 897 q 448 877 465 897 q 424 815 431 857 l 413 738 l 308 -4 l 307 -12 q 419 -62 365 -31 l 374 -149 q 283 -112 329 -126 q 11 -306 219 -306 q -116 -264 -71 -306 q -161 -151 -161 -222 q -105 -19 -161 -68 q 39 29 -49 29 q 108 25 85 29 l 207 738 l 217 813 q 301 988 232 922 q 483 1053 369 1053 m 6 -194 q 63 -166 42 -194 q 94 -75 83 -137 q 39 -71 69 -71 q -20 -92 1 -71 q -42 -146 -42 -112 q -29 -182 -42 -169 q 6 -194 -17 -194 z "},"ƪ":{"ha":524,"x_min":25,"x_max":585,"o":"m 585 -250 q 399 -307 507 -307 q 238 -253 296 -307 q 181 -100 181 -200 q 183 -53 181 -86 l 190 0 l 275 607 q 190 589 235 589 q 72 644 119 589 q 25 786 25 699 q 59 925 25 864 q 153 1019 93 986 q 292 1053 214 1053 q 451 996 393 1053 q 510 835 510 939 q 506 781 510 810 l 396 0 l 386 -76 q 385 -94 385 -83 q 442 -153 385 -153 q 485 -147 467 -153 q 529 -128 504 -140 l 585 -250 m 250 735 q 294 742 269 735 l 307 832 q 310 860 310 851 q 271 906 310 906 q 219 872 236 906 q 203 788 203 838 q 250 735 203 735 z "},"ʅ":{"ha":628,"x_min":33,"x_max":593,"o":"m 593 35 q 407 -22 515 -22 q 247 31 304 -22 q 189 185 189 85 q 192 232 189 199 l 199 285 l 222 454 l 232 531 q 233 549 233 538 q 176 607 233 607 q 133 601 151 607 q 89 582 114 594 l 33 704 q 219 761 111 761 q 380 708 322 761 q 438 554 438 654 q 435 507 438 540 l 428 454 l 404 283 l 394 208 q 393 190 393 201 q 450 132 393 132 q 494 138 475 132 q 538 157 513 144 l 593 35 z "},"ɇ":{"ha":681,"x_min":33,"x_max":672,"o":"m 511 751 q 630 683 588 733 q 672 564 672 632 q 333 282 672 342 l 282 146 q 350 132 308 132 q 431 148 392 132 q 519 199 469 164 l 592 75 q 321 -24 467 -24 q 222 -11 267 -24 l 188 -103 l 121 -83 l 158 15 q 65 115 97 50 q 33 269 33 179 q 75 506 33 394 q 206 690 117 618 q 428 761 294 761 l 442 761 l 469 833 l 535 815 l 511 751 m 392 628 q 290 550 328 617 q 236 388 251 483 q 303 397 281 393 l 392 628 m 385 419 q 486 558 486 461 q 460 617 486 600 l 385 419 m 256 271 q 226 268 246 271 l 226 265 q 232 210 226 232 l 256 271 z "},"ẽ":{"ha":681,"x_min":33,"x_max":693,"o":"m 428 761 q 607 705 542 761 q 672 564 672 649 q 552 356 672 422 q 240 268 432 289 l 240 265 q 269 163 240 194 q 350 132 297 132 q 431 148 392 132 q 519 199 469 164 l 592 75 q 321 -24 467 -24 q 108 53 183 -24 q 33 271 33 131 q 75 506 33 394 q 206 690 117 618 q 428 761 294 761 m 251 397 q 417 451 364 407 q 469 557 469 494 q 455 602 469 585 q 408 619 440 619 q 306 556 344 619 q 251 397 268 493 m 515 885 q 472 894 490 885 q 426 922 453 904 q 400 940 414 932 q 375 947 386 947 q 338 933 354 947 q 300 885 322 918 l 207 940 q 288 1053 242 1010 q 386 1097 335 1097 q 433 1088 414 1097 q 476 1060 451 1078 q 526 1035 507 1035 q 561 1049 544 1035 q 599 1094 578 1063 l 693 1042 q 610 928 657 971 q 515 885 564 885 z "},"ǝ":{"ha":681,"x_min":8,"x_max":647,"o":"m 360 761 q 572 684 497 761 q 647 467 647 607 q 606 231 647 343 q 475 48 564 119 q 253 -24 386 -24 q 74 33 139 -24 q 8 174 8 89 q 128 382 8 315 q 440 469 249 449 l 440 472 q 412 574 440 543 q 331 606 383 606 q 250 590 289 606 q 161 539 211 574 l 89 663 q 360 761 214 761 m 272 118 q 374 181 336 118 q 429 340 413 244 q 264 287 317 331 q 211 181 211 243 q 226 135 211 153 q 272 118 240 118 z "},"ə":{"ha":681,"x_min":8,"x_max":647,"o":"m 360 761 q 572 684 497 761 q 647 467 647 607 q 606 231 647 343 q 475 48 564 119 q 253 -24 386 -24 q 74 33 139 -24 q 8 174 8 89 q 128 382 8 315 q 440 469 249 449 l 440 472 q 412 574 440 543 q 331 606 383 606 q 250 590 289 606 q 161 539 211 574 l 89 663 q 360 761 214 761 m 272 118 q 374 181 336 118 q 429 340 413 244 q 264 287 317 331 q 211 181 211 243 q 226 135 211 153 q 272 118 240 118 z "},"ɚ":{"ha":1021,"x_min":8,"x_max":1057,"o":"m 1057 476 q 896 428 983 428 q 767 471 810 428 q 721 586 724 514 l 719 604 l 638 556 q 647 463 647 517 q 603 228 646 339 q 473 47 561 117 q 253 -24 385 -24 q 74 33 139 -24 q 8 174 8 89 q 128 382 8 315 q 440 469 249 449 l 440 472 q 412 574 440 543 q 331 606 383 606 q 250 590 289 606 q 161 539 211 574 l 89 663 q 360 761 214 761 q 592 661 517 761 l 729 738 l 899 738 l 885 640 q 936 572 876 572 q 975 577 958 572 q 1014 592 992 582 l 1057 476 m 272 118 q 374 181 336 118 q 429 340 413 244 q 264 287 317 331 q 211 181 211 243 q 226 135 211 153 q 272 118 240 118 z "},"ʒ":{"ha":632,"x_min":-92,"x_max":621,"o":"m 601 593 l 332 290 q 507 223 447 282 q 567 60 567 164 q 517 -133 567 -50 q 381 -262 468 -217 q 186 -307 294 -307 q -92 -164 1 -307 l 31 -64 q 105 -127 69 -108 q 189 -146 140 -146 q 310 -92 265 -146 q 356 56 356 -37 q 323 144 356 118 q 224 169 290 169 l 106 169 l 107 171 l 124 293 l 376 581 l 61 581 l 83 738 l 621 738 l 601 593 z "},"ǯ":{"ha":632,"x_min":-92,"x_max":632,"o":"m 601 593 l 332 290 q 507 223 447 282 q 567 60 567 164 q 517 -133 567 -50 q 381 -262 468 -217 q 186 -307 294 -307 q -92 -164 1 -307 l 31 -64 q 105 -127 69 -108 q 189 -146 140 -146 q 310 -92 265 -146 q 356 56 356 -37 q 323 144 356 118 q 224 169 290 169 l 106 169 l 107 171 l 124 293 l 376 581 l 61 581 l 83 738 l 621 738 l 601 593 m 564 1122 l 632 1038 l 431 851 l 306 851 l 156 1038 l 233 1122 l 379 997 l 564 1122 z "},"ʓ":{"ha":632,"x_min":-94,"x_max":622,"o":"m 603 593 l 335 299 q 507 232 447 292 q 567 65 567 172 q 499 -153 567 -62 q 311 -282 431 -244 l 335 -364 l 226 -401 l 203 -304 q 143 -307 164 -307 q -31 -258 33 -307 q -94 -119 -94 -208 q -42 19 -94 -32 q 85 71 10 71 q 195 28 156 71 q 263 -121 235 -15 q 356 63 356 -72 q 323 151 356 125 q 219 178 290 178 l 107 178 l 124 296 l 379 581 l 61 581 l 83 738 l 622 738 l 603 593 m 47 -92 q 69 -133 47 -119 q 144 -146 92 -146 l 161 -146 q 131 -62 146 -85 q 90 -40 117 -40 q 59 -55 71 -40 q 47 -92 47 -69 z "},"ƹ":{"ha":636,"x_min":-33,"x_max":651,"o":"m 628 581 l 301 581 l 486 289 l 469 169 l 467 171 l 468 169 l 354 169 q 226 121 272 169 q 181 -17 181 72 q 210 -113 181 -81 q 296 -146 240 -146 q 388 -126 346 -146 q 483 -61 431 -106 l 576 -169 q 265 -307 453 -307 q 47 -231 126 -307 q -33 -28 -33 -154 q 54 199 -33 113 q 293 294 142 286 l 93 593 l 114 738 l 651 738 l 628 581 z "},"ƺ":{"ha":628,"x_min":-35,"x_max":613,"o":"m 139 -307 q 12 -226 58 -274 q -35 -118 -35 -178 q 25 12 -35 -33 q 204 86 85 57 q 333 133 296 108 q 369 206 369 157 q 349 251 369 238 q 282 264 329 264 l 119 264 l 138 381 l 358 588 l 54 588 l 75 738 l 613 738 l 593 600 l 354 386 l 381 386 q 527 340 474 386 q 581 211 581 294 q 507 40 581 100 q 303 -51 433 -21 q 206 -78 239 -67 q 163 -102 174 -90 q 151 -131 151 -114 q 163 -162 151 -147 q 200 -193 175 -176 l 139 -307 z "},"f":{"ha":443,"x_min":-107,"x_max":633,"o":"m 463 899 q 397 874 419 899 q 365 796 374 849 l 357 738 l 514 738 l 469 590 l 338 590 l 267 74 q 206 -115 250 -43 q 100 -229 163 -187 q -57 -307 38 -271 l -107 -156 q -23 -108 -56 -133 q 30 -41 10 -83 q 60 69 50 1 l 132 590 l 36 590 l 57 738 l 153 738 l 163 808 q 251 985 178 918 q 444 1053 324 1053 q 633 993 551 1053 l 560 869 q 463 899 513 899 z "},"ḟ":{"ha":443,"x_min":-107,"x_max":633,"o":"m 463 899 q 397 874 419 899 q 365 796 374 849 l 357 738 l 514 738 l 469 590 l 338 590 l 267 74 q 206 -115 250 -43 q 100 -229 163 -187 q -57 -307 38 -271 l -107 -156 q -23 -108 -56 -133 q 30 -41 10 -83 q 60 69 50 1 l 132 590 l 36 590 l 57 738 l 153 738 l 163 808 q 251 985 178 918 q 444 1053 324 1053 q 633 993 551 1053 l 560 869 q 463 899 513 899 m 443 1124 q 363 1153 393 1124 q 333 1229 333 1182 q 372 1326 333 1288 q 469 1364 411 1364 q 549 1335 519 1364 q 578 1258 578 1306 q 539 1162 578 1200 q 443 1124 500 1124 z "}}}
